<?xml version="1.0" encoding="UTF-8"?>
<!DOCTYPE svg PUBLIC "-//W3C//DTD SVG 1.1//EN"
    "http://www.w3.org/Graphics/SVG/1.1/DTD/svg11.dtd">
<svg xmlns="http://www.w3.org/2000/svg" style="background : #444;" height="400" width="400" xmlns:xlink="http://www.w3.org/1999/xlink" version="1.11.1">
  <line x2="160" y1="297.6148078402348" stroke="orange" stroke-width="2" fill="none" y2="297.6148078402348" x1="90"/>
  <text dy="4" font-size="16" font-style="italic" stroke="none" fill="white" font-family="CMU Serif" x="125" text-anchor="middle" y="311.6148078402348">a
  </text>
  <line x2="125" y1="297.6148078402348" stroke="orange" stroke-width="2" fill="none" y2="236.99302957532404" x1="90"/>
  <text dy="4" font-size="16" font-style="italic" stroke="none" fill="white" font-family="CMU Serif" x="119.62435565298215" text-anchor="middle" y="274.3039187077794">a
  </text>
  <line x2="55.000000000000014" y1="297.6148078402348" stroke="orange" stroke-width="2" fill="none" y2="236.99302957532404" x1="90"/>
  <text dy="4" font-size="16" font-style="italic" stroke="none" fill="white" font-family="CMU Serif" x="84.62435565298215" text-anchor="middle" y="260.3039187077794">a
  </text>
  <line x2="20" y1="297.6148078402348" stroke="orange" stroke-width="2" fill="none" y2="297.61480784023473" x1="90"/>
  <text dy="4" font-size="16" font-style="italic" stroke="none" fill="white" font-family="CMU Serif" x="55.00000000000001" text-anchor="middle" y="283.6148078402348">a
  </text>
  <line x2="54.99999999999997" y1="297.6148078402348" stroke="orange" stroke-width="2" fill="none" y2="358.2365861051455" x1="90"/>
  <text dy="4" font-size="16" font-style="italic" stroke="none" fill="white" font-family="CMU Serif" x="60.37564434701785" text-anchor="middle" y="320.92569697269016">a
  </text>
  <line x2="124.99999999999996" y1="297.6148078402348" stroke="orange" stroke-width="2" fill="none" y2="358.2365861051455" x1="90"/>
  <text dy="4" font-size="16" font-style="italic" stroke="none" fill="white" font-family="CMU Serif" x="95.37564434701783" text-anchor="middle" y="334.92569697269016">a
  </text>
  <line x2="390" y1="87.61480784023477" stroke="orange" stroke-width="2" fill="none" y2="71.89247405532244" x1="90"/>
  <text dy="4" font-size="16" font-style="italic" stroke="none" fill="white" font-family="CMU Serif" x="374.73407385264665" text-anchor="middle" y="86.71174018737503">b
  </text>
  <line x2="110.79682508148767" y1="87.61480784023477" stroke="orange" stroke-width="2" fill="none" y2="10" x1="90"/>
  <text dy="4" font-size="16" font-style="italic" stroke="none" fill="white" font-family="CMU Serif" x="123.0211263503577" text-anchor="middle" y="18.4701328497361">b
  </text>
  <line x2="10" y1="87.61480784023477" stroke="orange" stroke-width="2" fill="none" y2="35.66220038443393" x1="90"/>
  <text dy="4" font-size="16" font-style="italic" stroke="none" fill="white" font-family="CMU Serif" x="22.463617058155798" text-anchor="middle" y="27.063081841003058">b
  </text>
  <line x2="10" y1="87.61480784023477" stroke="orange" stroke-width="2" fill="none" y2="152.39753049583533" x1="90"/>
  <text dy="4" font-size="16" font-style="italic" stroke="none" fill="white" font-family="CMU Serif" x="5.966660486759242" text-anchor="middle" y="137.64903051160786">b
  </text>
  <line x2="205.0807314117576" y1="87.61480784023477" stroke="orange" stroke-width="2" fill="none" y2="387.4103627979691" x1="90"/>
  <text dy="4" font-size="16" font-style="italic" stroke="none" fill="white" font-family="CMU Serif" x="185.89820092066358" text-anchor="middle" y="376.5041559172194">b
  </text>
  <polyline points="95.17638090205054,68.29629131445346 90,87.61480784023477 109.97259069509141,86.56808871537594 " stroke="white" stroke-width="1" fill="none"/>
  <text dy="4" font-size="16" font-style="italic" stroke="none" fill="white" font-family="CMU Serif" x="110.98294095933826" text-anchor="middle" y="70.62315728188922">72°
  </text>
  <polyline points="94.14110472164043,72.1599946196097 94.90834814506154,72.3862780856304 95.6633232543383,72.65062494517261 96.40414300488094,72.95237446875667 97.12895573312458,73.29077243972176 97.8359497847238,73.66497303937469 98.52335804274495,74.07404096109624 99.1894623445383,74.51695374812059 99.83259777624978,74.99260434914466 100.45115683423859,75.49980388537995 101.04359344299904,76.03728462213029 101.60842681954429,76.60370313746834 102.14424517459248,77.19764368009085 102.64970924130483,77.81762170795949 103.12355562275513,78.46208759888292 103.5645999497642,79.12943052376517 103.97173984120596,79.81798247283952 104.34395765938613,80.52602242482419 104.6803230536066,81.25178064857931 104.9799952855575,81.99344312651309 105.24222533072522,82.74915608868099 105.46635775056365,83.51703064624535 105.65183233074907,84.29514751271357 105.79818548142433,85.0815618011549 105.90505139593196,85.87430788540492 105.97216296514041,86.67140431310715 " stroke="white" stroke-width="1" fill="none"/>
  <text dy="4" font-size="16" font-style="italic" stroke="none" fill="white" font-family="CMU Serif" x="110.98294095933826" text-anchor="middle" y="70.62315728188922">72°
  </text>
  <text dy="4" font-size="16" font-style="italic" stroke="none" fill="white" font-family="CMU Serif" x="110.98294095933826" text-anchor="middle" y="70.62315728188922">72°
  </text>
  <polyline points="73.22658864109144,76.7220271399343 90,87.61480784023477 95.17638090205054,68.29629131445346 " stroke="white" stroke-width="1" fill="none"/>
  <text dy="4" font-size="16" font-style="italic" stroke="none" fill="white" font-family="CMU Serif" x="80.32406536227697" text-anchor="middle" y="62.4081363248103">β
  </text>
  <polyline points="76.58127091287318,78.90058327999441 77.03357053442153,78.24081685911162 77.51827947684791,77.60448053380149 78.03418622022777,76.99316481347978 78.58000126638171,76.4083976690802 79.15436036194933,75.8516407139229 79.75582790831216,75.32428555044237 80.38290054984249,74.82765029190605 81.03401093150966,74.36297626781764 81.70753161645119,73.9314249212398 82.40177915371757,73.53407490579137 83.11501828602272,73.17191938957511 83.84546628698365,72.84586357277459 84.59129741700792,72.55672242512523 85.35064748669183,72.30521864891436 86.12161851632303,72.09198087260187 86.90228347984137,71.91754207957645 87.69069112140055,71.7823382759747 88.4848708324914,71.68670740089284 89.28283757743701,71.63088848171499 90.08259685494806,71.61502103666915 90.88214968333735,71.63914472610433 91.67949759693298,71.70319925336034 92.4726476412017,71.80702451547796 93.25961735409741,71.95036100337306 94.0384397211838,72.13285045047411 " stroke="white" stroke-width="1" fill="none"/>
  <text dy="4" font-size="16" font-style="italic" stroke="none" fill="white" font-family="CMU Serif" x="80.32406536227697" text-anchor="middle" y="62.4081363248103">β
  </text>
  <text dy="4" font-size="16" font-style="italic" stroke="none" fill="white" font-family="CMU Serif" x="80.32406536227697" text-anchor="middle" y="62.4081363248103">β
  </text>
  <circle stroke="#444" stroke-width="1" fill="red" cy="367.61480784023473" r="3" cx="230"/>
  <text dy="4" font-size="16" font-style="italic" stroke="none" fill="white" font-family="CMU Serif" x="216" text-anchor="middle" y="381.61480784023473">A
  </text>
  <circle stroke="#444" stroke-width="1" fill="red" cy="297.6148078402348" r="3" cx="230"/>
  <text dy="4" font-size="16" font-style="italic" stroke="none" fill="white" font-family="CMU Serif" x="216" text-anchor="middle" y="297.6148078402348">A
  </text>
  <circle stroke="#444" stroke-width="1" fill="red" cy="227.61480784023476" r="3" cx="230"/>
  <text dy="4" font-size="16" font-style="italic" stroke="none" fill="white" font-family="CMU Serif" x="216" text-anchor="middle" y="213.61480784023476">A
  </text>
  <circle stroke="#444" stroke-width="1" fill="red" cy="367.61480784023473" r="3" cx="300"/>
  <text dy="4" font-size="16" font-style="italic" stroke="none" fill="white" font-family="CMU Serif" x="300" text-anchor="middle" y="381.61480784023473">A
  </text>
  <circle stroke="#444" stroke-width="1" fill="red" cy="297.6148078402348" r="3" cx="300"/>
  <text dy="4" font-size="16" font-style="italic" stroke="none" fill="white" font-family="CMU Serif" x="300" text-anchor="middle" y="297.6148078402348">A
  </text>
  <circle stroke="#444" stroke-width="1" fill="red" cy="227.61480784023476" r="3" cx="300"/>
  <text dy="4" font-size="16" font-style="italic" stroke="none" fill="white" font-family="CMU Serif" x="300" text-anchor="middle" y="213.61480784023476">A
  </text>
  <circle stroke="#444" stroke-width="1" fill="red" cy="367.61480784023473" r="3" cx="370"/>
  <text dy="4" font-size="16" font-style="italic" stroke="none" fill="white" font-family="CMU Serif" x="384" text-anchor="middle" y="381.61480784023473">A
  </text>
  <circle stroke="#444" stroke-width="1" fill="red" cy="297.6148078402348" r="3" cx="370"/>
  <text dy="4" font-size="16" font-style="italic" stroke="none" fill="white" font-family="CMU Serif" x="384" text-anchor="middle" y="297.6148078402348">A
  </text>
  <circle stroke="#444" stroke-width="1" fill="red" cy="227.61480784023476" r="3" cx="370"/>
  <text dy="4" font-size="16" font-style="italic" stroke="none" fill="white" font-family="CMU Serif" x="384" text-anchor="middle" y="213.61480784023476">A
  </text>
</svg>