<?xml version="1.0" encoding="UTF-8"?>
<!DOCTYPE svg PUBLIC "-//W3C//DTD SVG 1.1//EN"
    "http://www.w3.org/Graphics/SVG/1.1/DTD/svg11.dtd">
<svg xmlns="http://www.w3.org/2000/svg" style="background : #444;" height="278.82685902179844" width="300.0" xmlns:xlink="http://www.w3.org/1999/xlink" version="1.11.1">
  <line x2="285" y1="135.93266739736606" stroke="orange" stroke-width="2" fill="none" y2="135.93266739736606" x1="15"/>
  <line x2="219.82050807568876" y1="248.8268590217984" stroke="orange" stroke-width="2" fill="none" y2="15" x1="84.82050807568879"/>
  <polyline points="160,118.6121593216771 150,135.93266739736606 169.99999969538237,135.9291767388791 " stroke="white" stroke-width="1.25" fill="none"/>
  <text dy="4" font-size="16" font-style="italic" stroke="none" fill="white" font-family="CMU Serif" x="175.9794530176677" text-anchor="middle" y="120.93040020527866">a
  </text>
  <polyline points="158,122.07626093681489 158.44901150340957,122.34538641052956 159.31943034587266,122.92696795333683 160.14995525340464,123.56422334187215 160.93703097580374,124.25442465993734 161.67728825695758,124.99461734427547 162.36755825770842,125.78163283224973 163.00488612078834,126.61210212559587 163.5865436197546,127.482470212181 164.11004083778153,128.38901128403955 164.57313682631684,129.32784468654023 164.9738491979665,130.29495153040767 165.3104626125555,131.2861918954896 165.5815361200298,132.29732255262257 165.78590932877069,133.32401512773828 165.92270737291256,134.36187463044922 165.99134465740644,135.40645826780252 165.9999997563059,135.9298748705765 " stroke="white" stroke-width="1.25" fill="none"/>
  <text dy="4" font-size="16" font-style="italic" stroke="none" fill="white" font-family="CMU Serif" x="175.9794530176677" text-anchor="middle" y="120.93040020527866">a
  </text>
  <text dy="4" font-size="16" font-style="italic" stroke="none" fill="white" font-family="CMU Serif" x="175.9794530176677" text-anchor="middle" y="120.93040020527866">a
  </text>
  <polyline points="140,153.25317547305502 150,135.93266739736606 130.00000030461763,135.93615805585188 " stroke="white" stroke-width="1.25" fill="none"/>
  <text dy="4" font-size="16" font-style="italic" stroke="none" fill="white" font-family="CMU Serif" x="124.02054698233144" text-anchor="middle" y="150.9349345894526">b
  </text>
  <polyline points="142,149.78907385791723 141.55098849658998,149.51994838420256 140.68056965412688,148.9383668413953 139.8500447465949,148.30111145285952 139.0629690241958,147.61091013479478 138.32271174304196,146.87071745045665 137.63244174229112,146.08370196248194 136.9951138792112,145.2532326691358 136.4134563802454,144.38286458255067 135.88995916221802,143.4763235106921 135.4268631736827,142.53749010819143 135.02615080203304,141.57038326432354 134.68953738744403,140.57914289924162 134.41846387996975,139.56801224210864 134.21409067122931,138.54131966699293 134.07729262708744,137.503460164282 134.00865534259356,136.4588765269287 134.0000002436941,135.9354599241547 " stroke="white" stroke-width="1.25" fill="none"/>
  <text dy="4" font-size="16" font-style="italic" stroke="none" fill="white" font-family="CMU Serif" x="124.02054698233144" text-anchor="middle" y="150.9349345894526">b
  </text>
  <text dy="4" font-size="16" font-style="italic" stroke="none" fill="white" font-family="CMU Serif" x="124.02054698233144" text-anchor="middle" y="150.9349345894526">b
  </text>
</svg>