<?xml version="1.0" encoding="UTF-8"?>
<!DOCTYPE svg PUBLIC "-//W3C//DTD SVG 1.1//EN"
    "http://www.w3.org/Graphics/SVG/1.1/DTD/svg11.dtd">
<svg xmlns="http://www.w3.org/2000/svg" style="background : #444;" height="278.82685902179844" width="300.0" xmlns:xlink="http://www.w3.org/1999/xlink" version="1.11.1">
  <line x2="285" y1="135.93266739736606" stroke="orange" stroke-width="2" fill="none" y2="135.93266739736606" x1="15"/>
  <line x2="219.82050807568876" y1="248.8268590217984" stroke="orange" stroke-width="2" fill="none" y2="15" x1="84.82050807568879"/>
  <polyline points="160,118.6121593216771 150,135.93266739736606 170,135.93266739736606 " stroke="white" stroke-width="1.25" fill="none"/>
  <text dy="4" font-size="16" font-style="italic" stroke="none" fill="white" font-family="CMU Serif" x="175.98076211353344" text-anchor="middle" y="120.93266739736606">a
  </text>
  <polyline points="158,122.07626093681489 158.79455876918382,122.56645117678323 159.7350217756616,123.23505537669877 160.72632186720693,124.06059852959567 161.79790204925303,125.12482268918171 162.5461668509206,126.00323149451339 163.30532034622684,127.04624795620344 163.91118341702168,128.02830303721754 164.50275664418905,129.17470544723398 165.075327508197,130.57221027874226 165.4224632733617,131.67266427743658 165.71552790397573,132.92897255611484 165.92872321411232,134.42409961029313 165.9960250927802,135.5760426209609 166,135.93266739736606 " stroke="white" stroke-width="1.25" fill="none"/>
  <text dy="4" font-size="16" font-style="italic" stroke="none" fill="white" font-family="CMU Serif" x="175.98076211353344" text-anchor="middle" y="120.93266739736606">a
  </text>
  <text dy="4" font-size="16" font-style="italic" stroke="none" fill="white" font-family="CMU Serif" x="175.98076211353344" text-anchor="middle" y="120.93266739736606">a
  </text>
  <polyline points="130,135.93266739736606 150,135.93266739736606 160,118.6121593216771 " stroke="white" stroke-width="1.25" fill="none"/>
  <text dy="4" font-size="16" font-style="italic" stroke="none" fill="white" font-family="CMU Serif" x="135" text-anchor="middle" y="109.95190528383262">b
  </text>
  <polyline points="134,135.93266739736606 134.01589765389326,135.21959503835575 134.07943561974616,134.34030129178706 134.207686590913,133.36306875376846 134.4339528328719,132.2315627527028 134.66143175573688,131.37983045584411 134.97085925881402,130.44404930338038 135.29597626773693,129.62460223592058 135.7122719488434,128.73122121370267 136.26845332272615,127.72019968967612 136.7416254699133,126.97635650392664 137.31823486744088,126.17701092931617 138.05432761975544,125.28837731376422 138.65872937114545,124.6465883384954 139.37514882460619,123.96970215037396 140.05017592649938,123.40266337077497 140.84054573460116,122.81381083286038 141.8098719922482,122.18778459624178 142.57934816179886,121.75755095000665 143.46621141830337,121.32754477652867 144.28055382571438,120.98984519205811 145.21145816888202,120.66604147243976 146.32421216860757,120.36062245077716 147.18747262653415,120.18180425360475 148.16261392298293,120.03851713999217 149.3129203025287,119.94742665819291 149.92194756538447,119.93285777920352 150.13008647375455,119.93319623393842 150.36276514195197,119.93678038064269 151.17910531065036,119.9761730873243 152.05617103678378,120.065337418208 153.02924586046265,120.22204457340155 154.15366887842356,120.48122620735381 154.99840190667192,120.73345760279523 155.92475716108083,121.07005482143501 156.98053208469264,121.5357173101225 157.76289454316475,121.9420466709044 158,122.07626093681489 " stroke="white" stroke-width="1.25" fill="none"/>
  <text dy="4" font-size="16" font-style="italic" stroke="none" fill="white" font-family="CMU Serif" x="135" text-anchor="middle" y="109.95190528383262">b
  </text>
  <text dy="4" font-size="16" font-style="italic" stroke="none" fill="white" font-family="CMU Serif" x="135" text-anchor="middle" y="109.95190528383262">b
  </text>
</svg>