<?xml version="1.0" encoding="UTF-8"?>
<!DOCTYPE svg PUBLIC "-//W3C//DTD SVG 1.1//EN"
    "http://www.w3.org/Graphics/SVG/1.1/DTD/svg11.dtd">
<svg xmlns="http://www.w3.org/2000/svg" style="background : #444;" height="282.4871130596428" width="320.0" xmlns:xlink="http://www.w3.org/1999/xlink" version="1.11.1">
  <line x2="290" y1="128.25317547305482" stroke="orange" stroke-width="2" fill="none" y2="128.25317547305482" x1="10"/>
  <line x2="218.27350269189625" y1="252.4871130596428" stroke="orange" stroke-width="2" fill="none" y2="10" x1="78.27350269189625"/>
  <polyline points="160,110.93266739736615 150,128.25317547305482 169.99999969538237,128.24968481456844 " stroke="white" stroke-width="1.25" fill="none"/>
  <text dy="4" font-size="16" font-style="italic" stroke="none" fill="white" font-family="CMU Serif" x="175.97945301766856" text-anchor="middle" y="113.25090828096828">a
  </text>
  <polyline points="158,114.39676901250388 158.44901150341002,114.66589448621832 159.31943034587312,115.24747602902559 160.1499552534051,115.88473141756114 160.9370309758042,116.5749327356261 161.67728825695758,117.31512541996423 162.36755825770888,118.10214090793895 163.00488612078834,118.93261020128509 163.5865436197546,119.80297828786999 164.11004083778198,120.70951935972832 164.5731368263173,121.64835276222922 164.97384919796696,122.61545960609689 165.3104626125555,123.60669997117859 165.5815361200298,124.6178306283118 165.78590932877069,125.6445232034275 165.92270737291256,126.68238270613844 165.99134465740644,127.72696634349174 165.9999997563059,128.25038294626572 " stroke="white" stroke-width="1.25" fill="none"/>
  <text dy="4" font-size="16" font-style="italic" stroke="none" fill="white" font-family="CMU Serif" x="175.97945301766856" text-anchor="middle" y="113.25090828096828">a
  </text>
  <text dy="4" font-size="16" font-style="italic" stroke="none" fill="white" font-family="CMU Serif" x="175.97945301766856" text-anchor="middle" y="113.25090828096828">a
  </text>
  <polyline points="140,145.5736835487438 150,128.25317547305482 130.00000030461763,128.2566661315412 " stroke="white" stroke-width="1.25" fill="none"/>
  <text dy="4" font-size="16" font-style="italic" stroke="none" fill="white" font-family="CMU Serif" x="124.02054698233144" text-anchor="middle" y="143.25544266514137">b
  </text>
  <polyline points="142,142.109581933606 141.55098849659043,141.84045645989133 140.68056965412734,141.25887491708406 139.85004474659536,140.62161952854873 139.06296902419626,139.93141821048354 138.32271174304242,139.19122552614542 137.63244174229112,138.4042100381707 136.99511387921166,137.57374074482456 136.4134563802454,136.70337265823989 135.88995916221802,135.79683158638133 135.4268631736827,134.85799818388065 135.02615080203304,133.89089134001276 134.6895373874445,132.89965097493084 134.4184638799702,131.88852031779786 134.21409067122931,130.86182774268215 134.07729262708744,129.8239682399712 134.00865534259356,128.7793846026179 134.0000002436941,128.25596799984393 " stroke="white" stroke-width="1.25" fill="none"/>
  <text dy="4" font-size="16" font-style="italic" stroke="none" fill="white" font-family="CMU Serif" x="124.02054698233144" text-anchor="middle" y="143.25544266514137">b
  </text>
  <text dy="4" font-size="16" font-style="italic" stroke="none" fill="white" font-family="CMU Serif" x="124.02054698233144" text-anchor="middle" y="143.25544266514137">b
  </text>
</svg>