<?xml version="1.0" encoding="UTF-8"?>
<!DOCTYPE svg PUBLIC "-//W3C//DTD SVG 1.1//EN"
    "http://www.w3.org/Graphics/SVG/1.1/DTD/svg11.dtd">
<svg xmlns="http://www.w3.org/2000/svg" style="background : #444;" height="285.8973755087662" width="320.0" xmlns:xlink="http://www.w3.org/1999/xlink" version="1.11.1">
  <line x2="290" y1="216.82395540555422" stroke="orange" stroke-width="2" fill="none" y2="216.82395540555422" x1="47.72727272727273"/>
  <line x2="167.13713905553263" y1="216.82395540555422" stroke="orange" stroke-width="2" fill="none" y2="10" x1="47.72727272727273"/>
  <polyline points="57.727272727272585,199.50344732986525 47.72727272727273,216.82395540555422 67.72727242265523,216.82046474706783 " stroke="white" stroke-width="1.25" fill="none"/>
  <text dy="4" font-size="16" font-style="italic" stroke="none" fill="white" font-family="CMU Serif" x="73.70672574494108" text-anchor="middle" y="201.82168821346767">a
  </text>
  <polyline points="55.72727272727261,202.96754894500305 56.176284230682406,203.2366744187177 57.0467030731455,203.81825596152498 57.877227980677596,204.4555113500603 58.66430370307658,205.1457126681255 59.40456098423042,205.88590535246362 60.09483098498149,206.67292084043834 60.73215884806118,207.50339013378448 61.313816347027206,208.37375822036915 61.83731356505459,209.2802992922277 62.30040955358991,210.2191326947284 62.701121925239455,211.18623953859628 63.03773533982835,212.1774799036782 63.30880884730275,213.18861056081118 63.51318205604341,214.2153031359269 63.64998010018528,215.25316263863783 63.718617384679284,216.29774627599113 63.72727248357874,216.8211628787651 " stroke="white" stroke-width="1.25" fill="none"/>
  <text dy="4" font-size="16" font-style="italic" stroke="none" fill="white" font-family="CMU Serif" x="73.70672574494108" text-anchor="middle" y="201.82168821346767">a
  </text>
  <text dy="4" font-size="16" font-style="italic" stroke="none" fill="white" font-family="CMU Serif" x="73.70672574494108" text-anchor="middle" y="201.82168821346767">a
  </text>
  <polyline points="67.72727242265523,216.82046474706783 47.72727272727273,216.82395540555422 57.727272727272585,199.50344732986525 " stroke="white" stroke-width="1.25" fill="none"/>
  <text dy="4" font-size="16" font-style="italic" stroke="none" fill="white" font-family="CMU Serif" x="21.74781970960438" text-anchor="middle" y="231.82622259764076">b
  </text>
  <polyline points="63.72727248357874,216.8211628787651 63.72398286395819,217.14840078287557 63.69733152918966,217.80233256356382 63.643959225069445,218.45462733174122 63.563955253692235,219.1041936732356 63.4574534770363,219.74994473905576 63.32463209298735,220.3908000638978 63.16571333717864,221.0256873739702 62.980963111148505,221.65354438111467 62.770690537436145,222.27332056021737 62.535247442360266,222.88397890693818 62.27502776734625,223.48449767281886 61.9904669097866,224.07387207486158 61.68204099453758,224.65111597672808 61.35026607727159,225.215263538729 60.99569728101617,225.76537083386415 60.618927867327535,226.30051742718956 60.22058824365022,226.81980791588262 59.80134490852422,227.3223734274245 59.36189933640535,227.807373073387 58.90298680396413,228.27399535640347 58.42537515982722,228.7214595279563 57.92986353981858,229.1490168947214 57.417281029853235,229.55595207127476 56.88848527871696,229.94158417706853 56.344361063055295,230.30526797567586 55.78581880697332,230.64639495439428 55.21379305872106,230.96439434240506 54.62924092701528,231.25873406578125 54.03314047961326,231.5289216377489 53.42648910681803,231.77450498271423 52.81030185265272,231.9950731926699 52.18560971649797,232.1902572147244 51.55345792803232,232.35973046859795 50.914904198362116,232.5032093930538 50.271016950268496,232.6204539203511 49.622873530531,232.71126787792286 48.97155840732055,232.77549931661292 48.31816135567565,232.81304076491165 47.663775634099785,232.82382940878165 47.00949615533134,232.80784719675353 46.356417654343865,232.7651208701311 45.70563285664466,232.6957219182484 45.05823064993613,232.59976645885376 44.41529426219743,232.4774150438218 43.777899449236635,232.32887239052184 43.147112694745125,232.15438703928316 42.523989425865786,231.95425093754216 41.90957224726137,231.7287989513577 41.30488919663694,231.47840830511427 40.71095202463537,231.2034979503553 40.128754501985306,230.9045278647966 39.55927075673183,230.58199828269494 39.00345364433324,230.23644885785984 38.46223315335212,229.86845776071073 37.93651484940538,229.4786407108861 37.42717835997983,229.06764994702576 36.93507590264651,228.6361731354525 36.461030859137715,228.18493221957328 36.00583639767135,227.71468221192958 35.570254145828336,227.22620993091618 35.155012916203965,226.72033268428527 34.7608074869647,226.19789690163157 34.38829743935057,225.6597767181545 34.03810605407043,225.1068725120624 33.71081926843281,224.540109398067 33.406984695960865,223.9604356794896 33.1271107101305,223.36882126156684 32.87166559376315,222.76625602861418 32.64107675549972,222.15374818776058 32.435730014663456,221.53232258202274 32.25596895571059,220.9030189755474 32.102094353347276,220.26689031388673 31.974363669276705,219.62500096221788 31.87299062141515,218.97842492445739 31.79814482630193,218.32824404624557 31.74995151529786,217.6755462048111 31.728491325049596,217.02142348874509 31.733800162568606,216.36697037072759 31.765869145152102,215.71328187626318 31.824644615245667,215.06145175149618 31.91002823022243,214.41257063316039 32.02187712692896,213.76772422373847 32.160004160723,213.1279914748709 32.324178218602334,212.49444278206306 32.51412460590095,211.86813819371105 32.729525505905805,211.25012563743417 32.97002051162551,210.64143916669332 33.235207228819924,210.04309723062147 33.524641949282774,209.45610096996074 33.83784039325085,208.88143254196552 34.17427851969703,208.32005347706195 34.53339340315038,207.77290307002454 34.91458417557974,207.2408968083571 35.31721303176014,206.7249248405044 35.74060629644314,206.2258504864651 36.18405555154559,205.74450879329083 36.64681882146781,205.2817051378927 37.128121814561474,204.83821387949206 37.62715921866798,204.41477706396768 38.143096048560075,204.01210318227209 38.67506904303159,203.6308659849899 39.22218810929994,203.2717033550232 39.783537812300985,202.93521624029313 40.35817890638803,202.6219676482367 40.9451499068691,202.33248170378852 41.54346869875619,202.06724277242006 42.15213418003075,201.8266946497008 42.77012793667982,201.61123981874675 43.39641594669795,201.42123877678546 44.02995031020394,201.25700943197785 44.66967100277825,201.11882657149613 45.31450764908718,201.0069214017501 45.96338131382593,200.92148116153908 46.615206306983715,200.86264880876 47.26889200041226,200.8305227812159 47.92334465265444,200.825156831909 48.57746923898444,200.84655993909996 49.23017128359343,200.89469629128894 49.88035869085761,200.9694853471317 50.526943572623374,201.07080197020355 51.16884406845279,201.19847663837504 51.80498615578367,201.35229572745425 52.434305446974555,201.53200186862318 53.05574897022982,201.7372943790631 53.668276931423385,201.96782976505597 54.27086445387304,202.2232222967143 54.86250329315576,202.50304465338172 55.442203524094545,202.8068286386217 55.72727272727261,202.96754894500305 " stroke="white" stroke-width="1.25" fill="none"/>
  <text dy="4" font-size="16" font-style="italic" stroke="none" fill="white" font-family="CMU Serif" x="21.74781970960438" text-anchor="middle" y="231.82622259764076">b
  </text>
  <text dy="4" font-size="16" font-style="italic" stroke="none" fill="white" font-family="CMU Serif" x="21.74781970960438" text-anchor="middle" y="231.82622259764076">b
  </text>
</svg>