<?xml version="1.0" encoding="UTF-8"?>
<!DOCTYPE svg PUBLIC "-//W3C//DTD SVG 1.1//EN"
    "http://www.w3.org/Graphics/SVG/1.1/DTD/svg11.dtd">
<svg xmlns="http://www.w3.org/2000/svg" style="background : #444;" height="282.4871130596428" width="320.0" xmlns:xlink="http://www.w3.org/1999/xlink" version="1.11.1">
  <line x2="290" y1="128.25317547305482" stroke="orange" stroke-width="2" fill="none" y2="128.25317547305482" x1="10"/>
  <line x2="218.27350269189625" y1="252.4871130596428" stroke="orange" stroke-width="2" fill="none" y2="10" x1="78.27350269189625"/>
  <polyline points="160,110.93266739736615 150,128.25317547305482 169.99999969538237,128.24968481456844 " stroke="white" stroke-width="1.25" fill="none"/>
  <text dy="4" font-size="16" font-style="italic" stroke="none" fill="white" font-family="CMU Serif" x="175.97945301766856" text-anchor="middle" y="113.25090828096828">a
  </text>
  <polyline points="158,114.39676901250388 158.44901150341002,114.66589448621832 159.31943034587312,115.24747602902559 160.1499552534051,115.88473141756114 160.9370309758042,116.5749327356261 161.67728825695758,117.31512541996423 162.36755825770888,118.10214090793895 163.00488612078834,118.93261020128509 163.5865436197546,119.80297828786999 164.11004083778198,120.70951935972832 164.5731368263173,121.64835276222922 164.97384919796696,122.61545960609689 165.3104626125555,123.60669997117859 165.5815361200298,124.6178306283118 165.78590932877069,125.6445232034275 165.92270737291256,126.68238270613844 165.99134465740644,127.72696634349174 165.9999997563059,128.25038294626572 " stroke="white" stroke-width="1.25" fill="none"/>
  <text dy="4" font-size="16" font-style="italic" stroke="none" fill="white" font-family="CMU Serif" x="175.97945301766856" text-anchor="middle" y="113.25090828096828">a
  </text>
  <text dy="4" font-size="16" font-style="italic" stroke="none" fill="white" font-family="CMU Serif" x="175.97945301766856" text-anchor="middle" y="113.25090828096828">a
  </text>
  <polyline points="130.00000030461763,128.2566661315412 150,128.25317547305482 160,110.93266739736615 " stroke="white" stroke-width="1.25" fill="none"/>
  <text dy="4" font-size="16" font-style="italic" stroke="none" fill="white" font-family="CMU Serif" x="134.99773280791345" text-anchor="middle" y="102.27372245538626">b
  </text>
  <polyline points="134.0000002436941,128.25596799984393 134.00847689511374,127.73241757739922 134.07678370848544,126.68755006011631 134.21328753928537,125.64938790823314 134.41740375976315,124.62237743216062 134.68825816729623,123.61091718116424 135.0246907284827,122.61933910496484 135.42526054741256,121.65189000057327 135.8882520368311,120.71271332382318 136.4116822657711,119.80583144350064 136.99330945218435,118.93512841407502 137.63064256419284,118.10433334080923 138.32095198885008,117.3170044084977 139.0612812227082,116.57651364223486 139.84845953413014,115.88603246547993 140.67911554311013,115.24851811727214 141.54969166044793,114.66670098676897 142.45645932442767,114.14307291935299 143.3955349697544,113.67987654438863 144.3628966603451,113.27909567034064 145.35440131474843,112.94244678838456 146.36580245040932,112.6713717209038 147.39276837078978,112.46703144635691 148.43090071745064,112.33030112696062 149.47575330763266,112.26176636048623 150.5228511766677,112.26172067222271 151.56770974365782,112.33016425784692 152.6058540183367,112.4668039825851 153.63283776686012,112.67105463667073 154.64426255443232,112.94204144171997 155.63579658321714,113.27860379729051 156.60319324485363,113.67930025157986 157.54230930811354,114.1424146749707 158,114.39676901250388 " stroke="white" stroke-width="1.25" fill="none"/>
  <text dy="4" font-size="16" font-style="italic" stroke="none" fill="white" font-family="CMU Serif" x="134.99773280791345" text-anchor="middle" y="102.27372245538626">b
  </text>
  <text dy="4" font-size="16" font-style="italic" stroke="none" fill="white" font-family="CMU Serif" x="134.99773280791345" text-anchor="middle" y="102.27372245538626">b
  </text>
</svg>