<?xml version="1.0" encoding="UTF-8"?>
<!DOCTYPE svg PUBLIC "-//W3C//DTD SVG 1.1//EN"
    "http://www.w3.org/Graphics/SVG/1.1/DTD/svg11.dtd">
<svg xmlns="http://www.w3.org/2000/svg" style="background : #444;" height="282.11532638345307" width="300.0" xmlns:xlink="http://www.w3.org/1999/xlink" version="1.11.1">
  <line x2="285" y1="210.33212254066555" stroke="orange" stroke-width="2" fill="none" y2="210.33212254066555" x1="64.0909090909091"/>
  <line x2="176.86596262114335" y1="210.33212254066555" stroke="orange" stroke-width="2" fill="none" y2="15.000000000000002" x1="64.0909090909091"/>
  <polyline points="74.0909090909091,193.0116144649766 64.0909090909091,210.33212254066555 84.09090878629175,210.32863188217917 " stroke="white" stroke-width="1.25" fill="none"/>
  <text dy="4" font-size="16" font-style="italic" stroke="none" fill="white" font-family="CMU Serif" x="90.07036210857723" text-anchor="middle" y="195.329855348579">a
  </text>
  <polyline points="72.0909090909091,196.47571608011438 72.88533785469085,196.96582078143663 73.82565470566291,197.63429879736103 74.81681316865578,198.4596762167196 75.88826070271793,199.52367700269158 76.63645085405423,200.40189687005866 77.39555054667662,201.4446867049776 78.00139359308227,202.42652826099246 78.59297732060949,203.5726834321952 79.16560613906776,204.96989269607346 79.51282006955407,206.070120456345 79.80600713246653,207.32617950324155 80.0193925507177,208.8210253662235 80.08687303246674,209.97276536404368 80.09090884721522,210.32933001387644 " stroke="white" stroke-width="1.25" fill="none"/>
  <text dy="4" font-size="16" font-style="italic" stroke="none" fill="white" font-family="CMU Serif" x="90.07036210857723" text-anchor="middle" y="195.329855348579">a
  </text>
  <text dy="4" font-size="16" font-style="italic" stroke="none" fill="white" font-family="CMU Serif" x="90.07036210857723" text-anchor="middle" y="195.329855348579">a
  </text>
  <polyline points="84.09090878629175,210.32863188217917 64.0909090909091,210.33212254066555 74.0909090909091,193.0116144649766 " stroke="white" stroke-width="1.25" fill="none"/>
  <text dy="4" font-size="16" font-style="italic" stroke="none" fill="white" font-family="CMU Serif" x="38.111456073240745" text-anchor="middle" y="225.3343897327521">b
  </text>
  <polyline points="80.09090884721522,210.32933001387644 80.0765300427166,211.01029861303576 80.01872979286449,211.85018962955135 79.90190681974045,212.78413208772852 79.69563598135355,213.86659543978956 79.48812426219487,214.68249780828617 79.20567729878516,215.58033957335218 78.90870236930877,216.36809821644582 78.52814325248968,217.228952954971 78.01919130555834,218.20631802649703 77.58573462857166,218.9280334120074 77.05693827692298,219.70666717746988 76.38093321702408,220.57689227841527 75.82505421695359,221.2091551397214 75.16517245380086,221.88031248408586 74.54241764889329,222.44682306780967 73.81197928342894,223.0404188195578 72.91420632971321,223.67938539998275 72.19993784396578,224.125006672786 71.37487399821484,224.57795895798907 70.61547220821316,224.94136879529177 69.74514713680568,225.29974065846707 68.70150899068867,225.65342694218933 67.88923923588422,225.87473133422944 66.96874877797322,226.0711834635911 65.87859644059799,226.23193933016844 65.03980517229238,226.3039601377216 64.0990059818765,226.33212049192642 63.2574087450931,226.3103977033209 62.31931504015424,226.233740524988 61.22900055831869,226.0740880961828 60.4049485291101,225.90176270146756 59.49581841702499,225.6580855348391 58.451822835579804,225.30545571016935 57.672044630306885,224.98811718573896 56.82136628551902,224.5853238442535 56.08172342126713,224.18322159125344 55.2811252860441,223.68830872204015 54.38270608689501,223.05025111498233 53.72718253722857,222.52200243837322 53.02833945294455,221.89151495571858 52.43563926086537,221.2936317975548 51.81126010617308,220.58932590277507 51.13437462790657,219.71978543986623 50.65852732797643,219.02528768201844 50.17060357188083,218.22041096445653 49.660662683451136,217.24356150950896 49.317102665095916,216.47497559869979 48.98146040404205,215.59563471210893 48.725520121968856,214.79360456272641 48.48976747272067,213.8823873489903 48.28240116665549,212.80013332038496 48.17446953799728,211.96520305261336 48.105982716318834,211.02647749234964 48.09158806209868,210.18472302551461 48.12793835532497,209.24420466927793 48.24067852846733,208.1480458209883 48.377500427604076,207.3173608286941 48.58195930079407,206.39861565651088 48.889485970603204,205.34045597353295 49.17308652364122,204.54778421623203 49.53902223196664,203.68061227272327 49.909029977209656,202.92440326922886 50.369148458914964,202.1033142941299 50.96808424498053,201.17835456987476 51.46773033729332,200.50077684669967 52.067663104386924,199.77553426852117 52.822792865783384,198.97300476079116 53.43587098779264,198.3960359532978 54.15615886511907,197.7901634452467 54.829607646772814,197.28496593239132 55.61281583137597,196.76296874675998 56.56689414230331,196.21159850459824 57.32003690911867,195.83538877412846 58.18417233272143,195.4623390563818 58.974486711123944,195.17223395164118 59.87475355237686,194.89761469380144 60.94711734444829,194.64401961345064 61.77664989226773,194.5003758157616 62.711574063962956,194.39168857908706 63.812033106237635,194.33455309449099 64.65387744324138,194.34202977563544 65.59313412531182,194.40279989511626 66.42892317485675,194.50386647301028 67.35559242334998,194.66873073879586 68.42596862661284,194.93058823976233 69.23007499484365,195.1799288443115 70.11214447568145,195.5083334015433 71.11819290049706,195.9579344850047 71.86453492039809,196.34746160580178 72.0909090909091,196.47571608011438 " stroke="white" stroke-width="1.25" fill="none"/>
  <text dy="4" font-size="16" font-style="italic" stroke="none" fill="white" font-family="CMU Serif" x="38.111456073240745" text-anchor="middle" y="225.3343897327521">b
  </text>
  <text dy="4" font-size="16" font-style="italic" stroke="none" fill="white" font-family="CMU Serif" x="38.111456073240745" text-anchor="middle" y="225.3343897327521">b
  </text>
</svg>