<?xml version="1.0" encoding="UTF-8"?>
<!DOCTYPE svg PUBLIC "-//W3C//DTD SVG 1.1//EN"
    "http://www.w3.org/Graphics/SVG/1.1/DTD/svg11.dtd">
<svg xmlns="http://www.w3.org/2000/svg" style="background : #444;" height="278.82685902179844" width="300.0" xmlns:xlink="http://www.w3.org/1999/xlink" version="1.11.1">
  <line x2="285" y1="135.93266739736606" stroke="orange" stroke-width="2" fill="none" y2="135.93266739736606" x1="15"/>
  <line x2="219.82050807568876" y1="248.8268590217984" stroke="orange" stroke-width="2" fill="none" y2="15" x1="84.82050807568879"/>
  <polyline points="160,118.6121593216771 150,135.93266739736606 169.99999969538237,135.9291767388791 " stroke="white" stroke-width="1.25" fill="none"/>
  <text dy="4" font-size="16" font-style="italic" stroke="none" fill="white" font-family="CMU Serif" x="175.9794530176677" text-anchor="middle" y="120.93040020527866">a
  </text>
  <polyline points="158,122.07626093681489 158.79442876378198,122.56636563813714 159.7347456147536,123.23484365406108 160.7259040777467,124.06022107342011 161.7973516118086,125.12422185939164 162.54554176314514,126.00244172675917 163.30464145576752,127.04523156167812 163.91048450217295,128.02707311769296 164.5020682297004,129.1732282888957 165.07469704815867,130.57043755277397 165.42191097864497,131.67066531304505 165.7150980415572,132.9267243599416 165.92848345980838,134.42157022292355 165.99596394155742,135.57331022074374 165.9999997563059,135.9298748705765 " stroke="white" stroke-width="1.25" fill="none"/>
  <text dy="4" font-size="16" font-style="italic" stroke="none" fill="white" font-family="CMU Serif" x="175.9794530176677" text-anchor="middle" y="120.93040020527866">a
  </text>
  <text dy="4" font-size="16" font-style="italic" stroke="none" fill="white" font-family="CMU Serif" x="175.9794530176677" text-anchor="middle" y="120.93040020527866">a
  </text>
  <polyline points="140,153.25317547305502 150,135.93266739736606 130.00000030461763,135.93615805585188 " stroke="white" stroke-width="1.25" fill="none"/>
  <text dy="4" font-size="16" font-style="italic" stroke="none" fill="white" font-family="CMU Serif" x="124.02054698233144" text-anchor="middle" y="150.9349345894526">b
  </text>
  <polyline points="142,149.78907385791723 141.20557123621802,149.29896915659498 140.26525438524595,148.63049114067059 139.2740959222533,147.805113721312 138.20264838819094,146.74111293534003 137.4544582368544,145.8628930679725 136.69535854423202,144.82010323305354 136.0895154978266,143.8382616770387 135.4979317702996,142.69210650583597 134.92530295184088,141.2948972419577 134.57808902135503,140.19466948168616 134.28490195844233,138.9386104347896 134.07151654019162,137.44376457180766 134.00403605844258,136.29202457398748 134.0000002436941,135.9354599241547 " stroke="white" stroke-width="1.25" fill="none"/>
  <text dy="4" font-size="16" font-style="italic" stroke="none" fill="white" font-family="CMU Serif" x="124.02054698233144" text-anchor="middle" y="150.9349345894526">b
  </text>
  <text dy="4" font-size="16" font-style="italic" stroke="none" fill="white" font-family="CMU Serif" x="124.02054698233144" text-anchor="middle" y="150.9349345894526">b
  </text>
</svg>