<?xml version="1.0" encoding="UTF-8"?>
<!DOCTYPE svg PUBLIC "-//W3C//DTD SVG 1.1//EN"
    "http://www.w3.org/Graphics/SVG/1.1/DTD/svg11.dtd">
<svg xmlns="http://www.w3.org/2000/svg" style="background : #444;" height="240.17891641676758" width="400.00000000000006" xmlns:xlink="http://www.w3.org/1999/xlink" version="1.11.1">
  <polygon points="70.83333333333333,182.69494798882332 329.1666666666667,182.69494798882332 264.58333333333337,70.83333333333333 " stroke="orange" stroke-width="2" fill="none"/>
  <polyline points="88.15384140902201,172.69494798882332 70.83333333333333,182.69494798882332 90.83333302871598,182.69145733033693 " stroke="white" stroke-width="1.25" fill="none"/>
  <text dy="4" font-size="16" font-style="italic" stroke="none" fill="white" font-family="CMU Serif" x="89.91093548837962" text-anchor="middle" y="165.028352940805">29.98999999999978°
  </text>
  <polyline points="84.68973979388427,174.69494798882332 84.94399128781613,175.1524462757582 85.40693843137304,176.09115858830526 85.80752074302139,177.05813049847146 86.14402401077594,178.0492240431211 86.41500823611939,179.06019803540292 86.61931379618893,180.08672621406166 86.75606640615099,181.1244157568074 86.82468086052752,182.16882607852293 86.83333308963945,182.6921554620342 " stroke="white" stroke-width="1.25" fill="none"/>
  <text dy="4" font-size="16" font-style="italic" stroke="none" fill="white" font-family="CMU Serif" x="89.91093548837962" text-anchor="middle" y="165.028352940805">29.98999999999978°
  </text>
  <text dy="4" font-size="16" font-style="italic" stroke="none" fill="white" font-family="CMU Serif" x="89.91093548837962" text-anchor="middle" y="165.028352940805">29.98999999999978°
  </text>
  <polyline points="274.58031018209874,88.15558647445916 264.58333333333337,70.83333333333333 247.26282525764498,80.83333333333304 " stroke="white" stroke-width="1.25" fill="none"/>
  <text dy="4" font-size="16" font-style="italic" stroke="none" fill="white" font-family="CMU Serif" x="256.816233221925" text-anchor="middle" y="99.81043042499128">89.98999999999923°
  </text>
  <polyline points="272.58091481234567,84.69113584623399 271.8913888663759,85.06682638057835 270.46123462521734,85.71453880879365 268.97448555005246,86.2189689136272 267.4454566681219,86.57525983603485 265.8888700939136,86.77998106151661 264.3197132786312,86.83116145051083 262.75309470488935,86.72830821733199 261.2040984160807,86.4724116749115 259.68763878103834,86.06593569966033 258.2183168924097,85.51279400826168 256.8102799813672,84.81831247480802 255.47708520229241,83.98917785110991 254.2315690989575,83.03337338391914 253.08572400903938,81.96010194896992 252.05058259699524,80.77969744193145 251.13611162706127,79.50352527944126 250.72692687278266,78.8333333333331 " stroke="white" stroke-width="1.25" fill="none"/>
  <text dy="4" font-size="16" font-style="italic" stroke="none" fill="white" font-family="CMU Serif" x="256.816233221925" text-anchor="middle" y="99.81043042499128">89.98999999999923°
  </text>
  <text dy="4" font-size="16" font-style="italic" stroke="none" fill="white" font-family="CMU Serif" x="256.816233221925" text-anchor="middle" y="99.81043042499128">89.98999999999923°
  </text>
  <polyline points="309.16666697128375,182.69145733033693 329.1666666666667,182.69494798882332 319.1666666666667,165.37443991313435 " stroke="white" stroke-width="1.25" fill="none"/>
  <text dy="4" font-size="16" font-style="italic" stroke="none" fill="white" font-family="CMU Serif" x="303.1872136489981" text-anchor="middle" y="167.69268079673677">59.98999999999995°
  </text>
  <polyline points="313.16666691036033,182.6921554620342 313.17532200926024,182.16873885926023 313.24395929375413,181.12415522190693 313.380757337896,180.086295719196 313.58513054663644,179.05960314408028 313.8562040541107,178.0484724869473 314.19281746869973,177.05723212186538 314.59352984034985,176.0901252779975 315.05662582888516,175.1512918754968 315.5801230469121,174.24475080363825 316.1617805458779,173.37438271705358 316.7991084089578,172.54391342370744 317.4893784097091,171.75689793573272 318.2296356908625,171.0167052513946 319.0167114132616,170.3265039333294 319.84723632079357,169.68924854479408 320.7176551632571,169.1076670019868 321.1666666666667,168.83854152827215 " stroke="white" stroke-width="1.25" fill="none"/>
  <text dy="4" font-size="16" font-style="italic" stroke="none" fill="white" font-family="CMU Serif" x="303.1872136489981" text-anchor="middle" y="167.69268079673677">59.98999999999995°
  </text>
  <text dy="4" font-size="16" font-style="italic" stroke="none" fill="white" font-family="CMU Serif" x="303.1872136489981" text-anchor="middle" y="167.69268079673677">59.98999999999995°
  </text>
</svg>