<?xml version="1.0" encoding="UTF-8"?>
<!DOCTYPE svg PUBLIC "-//W3C//DTD SVG 1.1//EN"
    "http://www.w3.org/Graphics/SVG/1.1/DTD/svg11.dtd">
<svg xmlns="http://www.w3.org/2000/svg" style="background : #444;" height="240.17891641676758" width="400.00000000000006" xmlns:xlink="http://www.w3.org/1999/xlink" version="1.11.1">
  <polygon points="70.83333333333333,182.69494798882332 329.1666666666667,182.69494798882332 264.58333333333337,70.83333333333333 " stroke="orange" stroke-width="2" fill="none"/>
  <polyline points="88.15384140902201,172.69494798882332 70.83333333333333,182.69494798882332 90.83333302871598,182.69145733033693 " stroke="white" stroke-width="1.25" fill="none"/>
  <text dy="4" font-size="16" font-style="italic" stroke="none" fill="white" font-family="CMU Serif" x="89.91093548837962" text-anchor="middle" y="165.028352940805">29.98999999999978°
  </text>
  <polyline points="84.68973979388427,174.69494798882332 85.05174651616933,175.35759652101413 85.45536774035175,176.19909471154168 85.847666267418,177.1659511047167 86.22572708877426,178.32754435766427 86.45418597709325,179.23243983981664 86.64665144836461,180.25794774409158 86.76184057224857,181.18410149105264 86.82644528077897,182.22551190534548 86.83333308963945,182.6921554620342 " stroke="white" stroke-width="1.25" fill="none"/>
  <text dy="4" font-size="16" font-style="italic" stroke="none" fill="white" font-family="CMU Serif" x="89.91093548837962" text-anchor="middle" y="165.028352940805">29.98999999999978°
  </text>
  <text dy="4" font-size="16" font-style="italic" stroke="none" fill="white" font-family="CMU Serif" x="89.91093548837962" text-anchor="middle" y="165.028352940805">29.98999999999978°
  </text>
  <polyline points="274.58031018209874,88.15558647445916 264.58333333333337,70.83333333333333 247.26282525764498,80.83333333333304 " stroke="white" stroke-width="1.25" fill="none"/>
  <text dy="4" font-size="16" font-style="italic" stroke="none" fill="white" font-family="CMU Serif" x="256.816233221925" text-anchor="middle" y="99.81043042499128">89.98999999999923°
  </text>
  <polyline points="272.58091481234567,84.69113584623399 271.8199420549339,85.10328407643199 270.85031775729783,85.55491294388419 269.73328823944155,85.98186344239168 268.38934920469035,86.37406186152596 267.342483499919,86.59363442050274 266.15767149681085,86.75569055037302 265.09029411840527,86.82529977784527 263.89446996815275,86.81849730697179 262.49974734961177,86.69708665492892 261.44445979005775,86.5224210340037 260.28144004917465,86.24416440020657 258.950754408232,85.8091156051383 257.96272777505726,85.39930676601973 256.89331585830803,84.8641434038105 255.97302560903643,84.31897758538601 254.98985866912005,83.63822473728904 253.90723069193007,82.75058269676545 253.13483177905925,82.01062335201807 252.3319984457388,81.12433879791281 251.67177782279612,80.28276370231931 251.00208127496205,79.29203255525825 250.72692687278266,78.8333333333331 " stroke="white" stroke-width="1.25" fill="none"/>
  <text dy="4" font-size="16" font-style="italic" stroke="none" fill="white" font-family="CMU Serif" x="256.816233221925" text-anchor="middle" y="99.81043042499128">89.98999999999923°
  </text>
  <text dy="4" font-size="16" font-style="italic" stroke="none" fill="white" font-family="CMU Serif" x="256.816233221925" text-anchor="middle" y="99.81043042499128">89.98999999999923°
  </text>
  <polyline points="309.16666697128375,182.69145733033693 329.1666666666667,182.69494798882332 319.1666666666667,165.37443991313435 " stroke="white" stroke-width="1.25" fill="none"/>
  <text dy="4" font-size="16" font-style="italic" stroke="none" fill="white" font-family="CMU Serif" x="303.1872136489981" text-anchor="middle" y="167.69268079673677">59.98999999999995°
  </text>
  <polyline points="313.16666691036033,182.6921554620342 313.19405849748244,181.7591123869636 313.30301947855486,180.61055409823828 313.52245989791,179.3395352606506 313.9084426361239,177.87970142880638 314.2950979978593,176.792707284739 314.81883636987976,175.61400414110065 315.366391823323,174.59850344518716 316.0633888826421,173.51322095548701 316.9873016585904,172.31886645483135 317.7666683661743,171.46819250254092 318.7080077906864,170.58641981584177 319.89605225865733,169.65440703002812 320.8598588077181,169.02026542598085 321.1666666666667,168.83854152827215 " stroke="white" stroke-width="1.25" fill="none"/>
  <text dy="4" font-size="16" font-style="italic" stroke="none" fill="white" font-family="CMU Serif" x="303.1872136489981" text-anchor="middle" y="167.69268079673677">59.98999999999995°
  </text>
  <text dy="4" font-size="16" font-style="italic" stroke="none" fill="white" font-family="CMU Serif" x="303.1872136489981" text-anchor="middle" y="167.69268079673677">59.98999999999995°
  </text>
</svg>