<?xml version="1.0" encoding="UTF-8"?>
<!DOCTYPE svg PUBLIC "-//W3C//DTD SVG 1.1//EN"
    "http://www.w3.org/Graphics/SVG/1.1/DTD/svg11.dtd">
<svg xmlns="http://www.w3.org/2000/svg" style="background : #444;" height="278.82685902179844" width="300.0" xmlns:xlink="http://www.w3.org/1999/xlink" version="1.11.1">
  <line x2="285" y1="135.93266739736606" stroke="orange" stroke-width="2" fill="none" y2="135.93266739736606" x1="15"/>
  <line x2="219.82050807568876" y1="248.8268590217984" stroke="orange" stroke-width="2" fill="none" y2="15" x1="84.82050807568879"/>
  <polyline points="160,118.6121593216771 150,135.93266739736606 170,135.93266739736606 " stroke="white" stroke-width="1.25" fill="none"/>
  <text dy="4" font-size="16" font-style="italic" stroke="none" fill="white" font-family="CMU Serif" x="175.98076211353344" text-anchor="middle" y="120.93266739736606">a
  </text>
  <polyline points="158,122.07626093681489 158.79455876918382,122.56645117678323 159.7350217756616,123.23505537669877 160.72632186720693,124.06059852959567 161.79790204925303,125.12482268918171 162.5461668509206,126.00323149451339 163.30532034622684,127.04624795620344 163.91118341702168,128.02830303721754 164.50275664418905,129.17470544723398 165.075327508197,130.57221027874226 165.4224632733617,131.67266427743658 165.71552790397573,132.92897255611484 165.92872321411232,134.42409961029313 165.9960250927802,135.5760426209609 166,135.93266739736606 " stroke="white" stroke-width="1.25" fill="none"/>
  <text dy="4" font-size="16" font-style="italic" stroke="none" fill="white" font-family="CMU Serif" x="175.98076211353344" text-anchor="middle" y="120.93266739736606">a
  </text>
  <text dy="4" font-size="16" font-style="italic" stroke="none" fill="white" font-family="CMU Serif" x="175.98076211353344" text-anchor="middle" y="120.93266739736606">a
  </text>
  <polyline points="140,153.25317547305502 150,135.93266739736606 130,135.93266739736606 " stroke="white" stroke-width="1.25" fill="none"/>
  <text dy="4" font-size="16" font-style="italic" stroke="none" fill="white" font-family="CMU Serif" x="124.01923788646656" text-anchor="middle" y="150.93266739736606">b
  </text>
  <polyline points="142,149.78907385791723 141.20544123081618,149.2988836179489 140.26497822433794,148.63027941803335 139.27367813279307,147.804736265136 138.20209795074697,146.7405121055504 137.4538331490794,145.86210330021873 136.6946796537727,144.81908683852868 136.08881658297832,143.83703175751458 135.49724335581095,142.69062934749815 134.924672491803,141.29312451598986 134.5775367266383,140.19267051729554 134.28447209602427,138.93636223861728 134.07127678588768,137.441235184439 134.0039749072198,136.28929217377123 134,135.93266739736606 " stroke="white" stroke-width="1.25" fill="none"/>
  <text dy="4" font-size="16" font-style="italic" stroke="none" fill="white" font-family="CMU Serif" x="124.01923788646656" text-anchor="middle" y="150.93266739736606">b
  </text>
  <text dy="4" font-size="16" font-style="italic" stroke="none" fill="white" font-family="CMU Serif" x="124.01923788646656" text-anchor="middle" y="150.93266739736606">b
  </text>
</svg>