<?xml version="1.0" encoding="UTF-8"?>
<!DOCTYPE svg PUBLIC "-//W3C//DTD SVG 1.1//EN"
    "http://www.w3.org/Graphics/SVG/1.1/DTD/svg11.dtd">
<svg xmlns="http://www.w3.org/2000/svg" style="background : #444;" height="282.11532638345307" width="300.0" xmlns:xlink="http://www.w3.org/1999/xlink" version="1.11.1">
  <line x2="285" y1="210.33212254066555" stroke="orange" stroke-width="2" fill="none" y2="210.33212254066555" x1="64.0909090909091"/>
  <line x2="176.86596262114335" y1="210.33212254066555" stroke="orange" stroke-width="2" fill="none" y2="15.000000000000002" x1="64.0909090909091"/>
  <polyline points="74.0909090909091,193.0116144649766 64.0909090909091,210.33212254066555 84.09090878629175,210.32863188217917 " stroke="white" stroke-width="1.25" fill="none"/>
  <text dy="4" font-size="16" font-style="italic" stroke="none" fill="white" font-family="CMU Serif" x="90.07036210857723" text-anchor="middle" y="195.329855348579">a
  </text>
  <polyline points="72.0909090909091,196.47571608011438 72.53992059431889,196.74484155382905 73.41033943678198,197.32642309663632 74.24086434431396,197.96367848517164 75.02794006671306,198.65387980323683 75.7681973478669,199.39407248757496 76.45846734861775,200.18108797554967 77.09579521169766,201.0115572688958 77.67745271066369,201.8819253554805 78.20094992869085,202.78846642733905 78.66404591722616,203.72729982983972 79.06475828887582,204.69440667370762 79.40137170346483,205.68564703878954 79.67244521093912,206.69677769592252 79.87681841967978,207.72347027103822 80.01361646382165,208.76132977374917 80.08225374831554,209.80591341110247 80.09090884721522,210.32933001387644 " stroke="white" stroke-width="1.25" fill="none"/>
  <text dy="4" font-size="16" font-style="italic" stroke="none" fill="white" font-family="CMU Serif" x="90.07036210857723" text-anchor="middle" y="195.329855348579">a
  </text>
  <text dy="4" font-size="16" font-style="italic" stroke="none" fill="white" font-family="CMU Serif" x="90.07036210857723" text-anchor="middle" y="195.329855348579">a
  </text>
  <polyline points="84.09090878629175,210.32863188217917 64.0909090909091,210.33212254066555 74.0909090909091,193.0116144649766 " stroke="white" stroke-width="1.25" fill="none"/>
  <text dy="4" font-size="16" font-style="italic" stroke="none" fill="white" font-family="CMU Serif" x="38.111456073240745" text-anchor="middle" y="225.3343897327521">b
  </text>
  <polyline points="80.09090884721522,210.32933001387644 80.07763751754314,210.98367009307665 79.97091523716162,212.2879867473487 79.75795623798089,213.57921873441026 79.44018520870108,214.84872775473767 79.01972802705595,216.088020834741 78.49939753776115,217.2888071444784 77.88267473467576,218.44305346303307 77.17368547306737,219.5430379204984 76.37717286777601,220.58140165703506 75.49846556193265,221.55119805339862 74.54344207851145,222.44593920359583 73.51849149320387,223.2596393187612 72.4304706917138,223.98685477188818 71.28665849741591,224.62272051551443 70.09470697626838,225.1629826287306 68.86259024474279,225.6040267757683 67.59855112324621,225.9429023857913 66.3110459919254,226.1773423921143 65.00868821776075,226.30577839880632 63.70019053142468,226.32735117320706 62.39430673940021,226.2419163941652 61.09977316130332,226.05004561754257 59.825250184192186,225.75302245252377 58.579264324862464,225.3528339743132 57.370151187730556,224.85215743066718 56.20599969991426,224.25434233119475 55.0945979965762,223.56338803924817 54.0433813185559,222.78391701631406 53.05938227085298,221.92114389789757 52.14918377473131,220.98084060778345 51.31887502819208,219.96929774405342 50.574010769439354,218.89328249519556 49.91957411586438,217.75999336783232 49.35994322715416,216.57701202895012 48.898862015546996,215.35225258479593 48.539415099182605,214.0939086357669 48.284007166109035,212.8103984614925 48.13434688699746,211.51030870282264 48.091435484192715,210.2023369174806 48.155560033568094,208.89523339368841 48.32629154399737,207.59774261102783 48.60248782729158,206.31854474015861 48.98230113939994,205.06619757276147 49.46319054175703,203.84907927019484 50.04193890007852,202.67533231386986 50.71467440688295,201.55280903231804 51.476896483757486,200.4890190693707 52.32350589007828,199.4910791448904 53.24883883676361,198.56566544414844 54.246704876835764,197.71896895436456 55.3104283193081,196.95665404720538 56.43289288933815,196.2838205843266 57.60658933587192,195.70496979946418 58.823665668287134,195.22397418532935 60.07597968595152,194.84405158676034 61.35515344927737,194.56774367344477 62.6526293278624,194.39689893623452 63.632528364048625,194.33868991632724 64.2869810162907,194.33332396702033 65.26770277584282,194.37545758137347 66.56780558988552,194.5250044056809 67.85133804781921,194.78030033038957 69.1097133597178,195.13963743416005 70.33451303613478,195.60061176358775 71.51754320752033,196.16013941557028 72.0909090909091,196.47571608011438 " stroke="white" stroke-width="1.25" fill="none"/>
  <text dy="4" font-size="16" font-style="italic" stroke="none" fill="white" font-family="CMU Serif" x="38.111456073240745" text-anchor="middle" y="225.3343897327521">b
  </text>
  <text dy="4" font-size="16" font-style="italic" stroke="none" fill="white" font-family="CMU Serif" x="38.111456073240745" text-anchor="middle" y="225.3343897327521">b
  </text>
</svg>