<?xml version="1.0" encoding="UTF-8"?>
<!DOCTYPE svg PUBLIC "-//W3C//DTD SVG 1.1//EN"
    "http://www.w3.org/Graphics/SVG/1.1/DTD/svg11.dtd">
<svg xmlns="http://www.w3.org/2000/svg" style="background : #444;" height="240.17891641676758" width="400.00000000000006" xmlns:xlink="http://www.w3.org/1999/xlink" version="1.11.1">
  <polygon points="70.83333333333333,182.69494798882332 329.1666666666667,182.69494798882332 264.58333333333337,70.83333333333333 " stroke="orange" stroke-width="2" fill="none"/>
  <polyline points="88.15384140902201,172.69494798882332 70.83333333333333,182.69494798882332 90.83333333333333,182.69494798882332 " stroke="white" stroke-width="1.25" fill="none"/>
  <text dy="4" font-size="16" font-style="italic" stroke="none" fill="white" font-family="CMU Serif" x="89.91161318539365" text-anchor="middle" y="165.03088169913627">30.000000000000114°
  </text>
  <polyline points="84.68973979388427,174.69494798882332 85.05186198688746,175.3578202859642 85.45559632295483,176.19960927076207 85.84798106006299,177.16680601866645 86.22608692485217,178.32881275605885 86.45453857343917,179.23403093600498 86.64695255274576,180.25990236636997 86.76205654744588,181.18638020175038 86.82652242971865,182.2281476811311 86.83333333333333,182.69494798882332 " stroke="white" stroke-width="1.25" fill="none"/>
  <text dy="4" font-size="16" font-style="italic" stroke="none" fill="white" font-family="CMU Serif" x="89.91161318539365" text-anchor="middle" y="165.03088169913627">30.000000000000114°
  </text>
  <text dy="4" font-size="16" font-style="italic" stroke="none" fill="white" font-family="CMU Serif" x="89.91161318539365" text-anchor="middle" y="165.03088169913627">30.000000000000114°
  </text>
  <polyline points="274.58333333333337,88.15384140902201 264.58333333333337,70.83333333333333 247.26282525764498,80.83333333333304 " stroke="white" stroke-width="1.25" fill="none"/>
  <text dy="4" font-size="16" font-style="italic" stroke="none" fill="white" font-family="CMU Serif" x="256.81876198025714" text-anchor="middle" y="99.81110812200531">90.00000000000121°
  </text>
  <polyline points="272.58333333333337,84.68973979388427 271.82234674834706,85.10206434829213 270.8526891956884,85.55390319564351 269.735602633314,85.98107643455053 268.3915723862614,86.37351722271372 267.3446210028636,86.59326005924488 266.15969871941195,86.75548997650124 265.09221138769533,86.82523888351064 263.89625363586254,86.81857407250648 262.50136317954946,86.69729879846052 261.44594125783294,86.52271735453003 260.28276722152293,86.24453481530561 258.95189845510265,85.80954584558897 257.96373228558,85.3997632998208 256.89416690292853,84.86460981145667 255.9737433826407,84.31943584224685 254.99043383333571,83.63865563239877 253.90765007127845,82.75095838567866 253.1351420661489,82.01094115924828 252.33219863665124,81.12457711840382 251.67189142926907,80.2829189304892 251.00211270038506,79.29208301157594 250.72692687278266,78.8333333333331 " stroke="white" stroke-width="1.25" fill="none"/>
  <text dy="4" font-size="16" font-style="italic" stroke="none" fill="white" font-family="CMU Serif" x="256.81876198025714" text-anchor="middle" y="99.81110812200531">90.00000000000121°
  </text>
  <text dy="4" font-size="16" font-style="italic" stroke="none" fill="white" font-family="CMU Serif" x="256.81876198025714" text-anchor="middle" y="99.81110812200531">90.00000000000121°
  </text>
  <polyline points="309.1666666666667,182.69494798882332 329.1666666666667,182.69494798882332 319.1666666666667,165.37443991313435 " stroke="white" stroke-width="1.25" fill="none"/>
  <text dy="4" font-size="16" font-style="italic" stroke="none" fill="white" font-family="CMU Serif" x="303.1859045531341" text-anchor="middle" y="167.69494798882332">60.000000000000284°
  </text>
  <polyline points="313.1666666666667,182.69494798882332 313.1939044825746,181.76174478992633 313.3027012015397,180.61297783503895 313.52199249809627,179.3417151965389 313.90784756459533,177.8815874569016 314.2944395040865,176.79436672723412 314.81814150882263,175.61541228408194 315.36569462149936,174.59969193305213 316.06272161794885,173.51417328511823 316.98671087194333,172.3195599556664 317.7661641079264,171.46870456512423 318.7076266769388,170.5867490107228 319.8958470326749,169.65455292908726 320.85980800429087,169.02029628710469 321.1666666666667,168.83854152827215 " stroke="white" stroke-width="1.25" fill="none"/>
  <text dy="4" font-size="16" font-style="italic" stroke="none" fill="white" font-family="CMU Serif" x="303.1859045531341" text-anchor="middle" y="167.69494798882332">60.000000000000284°
  </text>
  <text dy="4" font-size="16" font-style="italic" stroke="none" fill="white" font-family="CMU Serif" x="303.1859045531341" text-anchor="middle" y="167.69494798882332">60.000000000000284°
  </text>
</svg>