<?xml version="1.0" encoding="UTF-8"?>
<!DOCTYPE svg PUBLIC "-//W3C//DTD SVG 1.1//EN"
    "http://www.w3.org/Graphics/SVG/1.1/DTD/svg11.dtd">
<svg xmlns="http://www.w3.org/2000/svg" style="background : #444;" height="282.11532638345307" width="300.0" xmlns:xlink="http://www.w3.org/1999/xlink" version="1.11.1">
  <line x2="285" y1="210.33212254066555" stroke="orange" stroke-width="2" fill="none" y2="210.33212254066555" x1="64.0909090909091"/>
  <line x2="176.86596262114335" y1="210.33212254066555" stroke="orange" stroke-width="2" fill="none" y2="15.000000000000002" x1="64.0909090909091"/>
  <polyline points="74.0909090909091,193.0116144649766 64.0909090909091,210.33212254066555 84.0909090909091,210.33212254066555 " stroke="white" stroke-width="1.25" fill="none"/>
  <text dy="4" font-size="16" font-style="italic" stroke="none" fill="white" font-family="CMU Serif" x="90.07167120444211" text-anchor="middle" y="195.33212254066555">a
  </text>
  <polyline points="72.0909090909091,196.47571608011438 72.88546786009292,196.96590632008272 73.82593086657093,197.63451051999826 74.81723095811603,198.46005367289516 75.88881114016212,199.5242778324812 76.63707594182969,200.40268663781288 77.39622943713616,201.44570309950294 78.00209250793054,202.42775818051703 78.59366573509791,203.57416059053347 79.16623659910587,204.97166542204175 79.5133723642708,206.07211942073607 79.80643699488482,207.32842769941433 80.01963230502164,208.82355475359262 80.0869341836893,209.97549776426038 80.0909090909091,210.33212254066555 " stroke="white" stroke-width="1.25" fill="none"/>
  <text dy="4" font-size="16" font-style="italic" stroke="none" fill="white" font-family="CMU Serif" x="90.07167120444211" text-anchor="middle" y="195.33212254066555">a
  </text>
  <text dy="4" font-size="16" font-style="italic" stroke="none" fill="white" font-family="CMU Serif" x="90.07167120444211" text-anchor="middle" y="195.33212254066555">a
  </text>
  <polyline points="84.0909090909091,210.33212254066555 64.0909090909091,210.33212254066555 74.0909090909091,193.0116144649766 " stroke="white" stroke-width="1.25" fill="none"/>
  <text dy="4" font-size="16" font-style="italic" stroke="none" fill="white" font-family="CMU Serif" x="38.110146977376075" text-anchor="middle" y="225.33212254066555">b
  </text>
  <polyline points="80.0909090909091,210.33212254066555 80.0764124015046,211.01306593548023 80.01846942332563,211.85291899556412 79.90149122561942,212.78681041523967 79.69504514378181,213.86920298128805 79.48740472338076,214.6850436563398 79.20481960409629,215.58280906714688 78.90772656034628,216.370493188231 78.52704183547971,217.23125809384445 78.01795192179824,218.20850990966827 77.5843967507345,218.93013340214637 77.05549762109317,219.7086594409832 76.37938237663738,220.57875244058576 75.82342676248103,221.21091057455286 75.16346724453669,221.88194747156948 74.54065005376,222.4483477700558 73.81015001786463,223.04181788728172 72.9123157533705,223.68063498570908 72.19800835309329,224.12614086576176 71.37290909378598,224.57896345218322 70.61348281525906,224.94225710576873 69.74313830703395,225.3004993694465 68.69948788315227,225.6540350033995 67.88721620612986,225.87522558629078 66.96673105266618,226.07155226490502 65.8765946237223,226.23216427576497 65.03782231027034,226.30407781718057 64.0970510085784,226.33212136181717 63.25548445889771,226.310297207511 62.31743117686912,226.23353053141935 61.22717176099238,226.07375550885652 60.40316706644623,225.90134084991294 59.49409489661363,225.6575686765248 58.45017335698387,225.30483439857633 57.67045582172008,224.98742123493165 56.81984909881086,224.58454993361536 56.08027333593074,224.1823830003489 55.27975321052381,223.6874035954227 54.38142876541551,223.04927598822795 53.72597965467352,222.52097965615647 53.02722145907293,221.89044490964105 52.43459832325638,221.29252487305737 51.8103061708176,220.58818376898515 51.13352312072445,219.7186101062919 50.65775406723398,219.02409274942218 50.16991737938699,218.2191999314189 49.66007734077138,217.24233925211664 49.31659319511411,216.47375015973037 48.98103419222181,215.59441106810507 48.72516668629268,214.79238714660258 48.48949319367145,213.88118185285228 48.282216176984065,212.79894810264094 48.17435000827706,211.96403766379106 48.10593327868045,211.02533843954805 48.091598345564734,210.18361101279677 48.12801187261752,209.24312649004813 48.24082106575176,208.14701165222894 48.37769187412252,207.3163631507139 48.582201364478436,206.39766137601399 48.8897816803744,205.339555520716 49.17341903952419,204.54692673007847 49.53939154756185,203.67980435933512 49.90942828219849,202.9236407750016 50.36957477114183,202.10260344869064 50.96853745460052,201.17770488367594 51.468199846667375,200.500174039207 52.06814654340664,199.77498368933018 52.82328697220268,198.9725146341382 53.4363692531069,198.3955911833289 54.15665782439609,197.78976822523535 54.83010381750623,197.28461374825181 55.61330524132572,196.76266297259397 56.56737101556266,196.2113444166096 57.32050105858829,195.8351719966411 58.184619264388715,195.46216152911146 58.9749157703404,195.17208915205154 59.87516011480247,194.89750364124146 60.94749456500651,194.64394402567066 61.77700279663836,194.50032423278734 62.711898130096046,194.39166054077512 63.81232160185013,194.33454806792295 64.65413775639226,194.34203894268583 65.5933622101737,194.40282140645357 66.4291220489209,194.5038958502562 67.355758508599,194.66876535646614 68.42609657202783,194.93062425304586 69.2301742911562,195.1799625229808 70.11221254907863,195.5083610522768 71.11822590488518,195.95795062030746 71.86454250054393,196.34746581936523 72.0909090909091,196.47571608011438 " stroke="white" stroke-width="1.25" fill="none"/>
  <text dy="4" font-size="16" font-style="italic" stroke="none" fill="white" font-family="CMU Serif" x="38.110146977376075" text-anchor="middle" y="225.33212254066555">b
  </text>
  <text dy="4" font-size="16" font-style="italic" stroke="none" fill="white" font-family="CMU Serif" x="38.110146977376075" text-anchor="middle" y="225.33212254066555">b
  </text>
</svg>