<?xml version="1.0" encoding="UTF-8"?>
<!DOCTYPE svg PUBLIC "-//W3C//DTD SVG 1.1//EN"
    "http://www.w3.org/Graphics/SVG/1.1/DTD/svg11.dtd">
<svg xmlns="http://www.w3.org/2000/svg" style="background : #444;" height="282.11532638345307" width="300.0" xmlns:xlink="http://www.w3.org/1999/xlink" version="1.11.1">
  <line x2="285" y1="210.33212254066555" stroke="orange" stroke-width="2" fill="none" y2="210.33212254066555" x1="64.0909090909091"/>
  <line x2="176.86596262114335" y1="210.33212254066555" stroke="orange" stroke-width="2" fill="none" y2="15.000000000000002" x1="64.0909090909091"/>
  <polyline points="74.0909090909091,193.0116144649766 64.0909090909091,210.33212254066555 84.09090878629175,210.32863188217917 " stroke="white" stroke-width="1.25" fill="none"/>
  <text dy="4" font-size="16" font-style="italic" stroke="none" fill="white" font-family="CMU Serif" x="90.07036210857723" text-anchor="middle" y="195.329855348579">a
  </text>
  <polyline points="72.0909090909091,196.47571608011438 72.53992059431889,196.74484155382905 73.41033943678198,197.32642309663632 74.24086434431396,197.96367848517164 75.02794006671306,198.65387980323683 75.7681973478669,199.39407248757496 76.45846734861775,200.18108797554967 77.09579521169766,201.0115572688958 77.67745271066369,201.8819253554805 78.20094992869085,202.78846642733905 78.66404591722616,203.72729982983972 79.06475828887582,204.69440667370762 79.40137170346483,205.68564703878954 79.67244521093912,206.69677769592252 79.87681841967978,207.72347027103822 80.01361646382165,208.76132977374917 80.08225374831554,209.80591341110247 80.09090884721522,210.32933001387644 " stroke="white" stroke-width="1.25" fill="none"/>
  <text dy="4" font-size="16" font-style="italic" stroke="none" fill="white" font-family="CMU Serif" x="90.07036210857723" text-anchor="middle" y="195.329855348579">a
  </text>
  <text dy="4" font-size="16" font-style="italic" stroke="none" fill="white" font-family="CMU Serif" x="90.07036210857723" text-anchor="middle" y="195.329855348579">a
  </text>
  <polyline points="84.09090878629175,210.32863188217917 64.0909090909091,210.33212254066555 74.0909090909091,193.0116144649766 " stroke="white" stroke-width="1.25" fill="none"/>
  <text dy="4" font-size="16" font-style="italic" stroke="none" fill="white" font-family="CMU Serif" x="38.111456073240745" text-anchor="middle" y="225.3343897327521">b
  </text>
  <polyline points="80.09090884721522,210.32933001387644 80.08761922759444,210.6565679179869 80.06096789282614,211.31049969867516 80.00759558870581,211.96279446685256 79.9275916173286,212.61236080834695 79.82108984067267,213.2581118741671 79.68826845662383,213.89896719900915 79.529349700815,214.53385450908152 79.34459947478476,215.161711516226 79.13432690107251,215.7814876953287 78.89888380599663,216.39214604204952 78.63866413098262,216.9926648079302 78.35410327342296,217.58203920997292 78.04567735817395,218.15928311183941 77.71390244090784,218.72343067384034 77.35933364465254,219.2735379689755 76.9825642309639,219.8086845623009 76.5842246072867,220.32797505099396 76.16498127216059,220.83054056253584 75.7255357000416,221.31554020849833 75.26662316760061,221.7821624915148 74.78901152346347,222.22962666306765 74.29349990345494,222.65718402983273 73.7809173934896,223.0641192063861 73.25212164235322,223.44975131217987 72.70799742669178,223.8134351107872 72.14945517060968,224.15456208950562 71.57742942235754,224.4725614775164 70.99287729065176,224.7669012008926 70.39677684324974,225.03708877286024 69.7901254704544,225.28267211782557 69.17393821628897,225.50324032778124 68.54924608013434,225.69842434983573 67.9170942916688,225.86789760370928 67.27854056199848,226.01137652816513 66.63465331390475,226.12862105546245 65.98650989416737,226.2194350130342 65.33519477095692,226.28366645172426 64.6817977193119,226.32120790002298 64.02741199773627,226.33199654389298 63.37313251896771,226.31601433186486 62.72005401798023,226.27328800524245 62.06926922028103,226.20388905335975 61.421867013572495,226.1079335939651 60.778930625833794,225.98558217893313 60.141535812873,225.83703952563317 59.51074905838149,225.6625541743945 58.88762578950215,225.4624180726535 58.27320861089774,225.23696608646904 57.66852556027331,224.9865754402256 57.074588388271735,224.71166508546665 56.49239086562167,224.41269499990793 55.922907120368194,224.09016541780628 55.36709000796961,223.74461599297118 54.82586951698849,223.37662489582206 54.300151213041744,222.98680784599745 53.790814723616194,222.5758170821371 53.29871226628288,222.14434027056384 52.82466722277408,221.69309935468462 52.36947276130772,221.22284934704092 51.9338905094647,220.73437706602752 51.51864927984033,220.2284998193966 51.12444385060107,219.7060640367429 50.75193380298694,219.16794385326583 50.4017424177068,218.61503964717375 50.074455632069174,218.04827653317832 49.77062105959723,217.46860281460093 49.49074707376687,216.87698839667817 49.235301957399514,216.27442316372552 49.004713119136085,215.66191532287192 48.79936637829982,215.04048971713408 48.61960531934696,214.41118611065875 48.46573071698364,213.77505744899807 48.33800003291307,213.13316809732922 48.236626985051515,212.48659205956872 48.161781189938296,211.8364111813569 48.113587878934226,211.18371333992243 48.09212768868596,210.52959062385642 48.09743652620497,209.87513750583892 48.12950550878847,209.22144901137452 48.188280978882034,208.56961888660751 48.2736645938588,207.92073776827172 48.38551349056533,207.2758913588498 48.523640524359365,206.63615860998223 48.6878145822387,206.0026099171744 48.87776096953732,205.37630532882238 49.09316186954217,204.7582927725455 49.33365687526188,204.14960630180465 49.59884359245629,203.5512643657328 49.88827831291914,202.96426810507208 50.20147675688722,202.38959967707686 50.5379148833334,201.82822061217328 50.897029766786744,201.28107020513588 51.27822053921611,200.74906394346843 51.68084939539651,200.23309197561574 52.10424266007951,199.73401762157644 52.54769191518196,199.25267592840217 53.01045518510418,198.78987227300402 53.49175817819784,198.3463810146034 53.990795582304344,197.922944199079 54.50673241219644,197.52027031738342 55.03870540666796,197.13903312010123 55.58582447293631,196.77987049013453 56.14717417593735,196.44338337540447 56.72181527002439,196.13013478334804 57.308786270505465,195.84064883889985 57.90710506239256,195.5754099075314 58.51577054366712,195.33486178481215 59.13376430031619,195.1194069538581 59.760052310334316,194.9294059118968 60.3935866738403,194.76517656708918 61.03330736641462,194.62699370660746 61.67814401272355,194.51508853686144 62.327017677462294,194.4296482966504 62.97884267062008,194.37081594387135 63.632528364048625,194.33868991632724 64.2869810162907,194.33332396702033 64.9411056026207,194.3547270742113 65.59380764722968,194.40286342640027 66.24399505449387,194.47765248224303 66.89057993625974,194.57896910531488 67.53248043208927,194.70664377348638 68.16862251941993,194.86046286256558 68.79794181061092,195.04016900373452 69.41938533386619,195.24546151417442 70.03191329505975,195.4759969001673 70.63450081750929,195.73138943182565 71.22613965679224,196.01121178849306 71.80583988773091,196.31499577373305 72.0909090909091,196.47571608011438 " stroke="white" stroke-width="1.25" fill="none"/>
  <text dy="4" font-size="16" font-style="italic" stroke="none" fill="white" font-family="CMU Serif" x="38.111456073240745" text-anchor="middle" y="225.3343897327521">b
  </text>
  <text dy="4" font-size="16" font-style="italic" stroke="none" fill="white" font-family="CMU Serif" x="38.111456073240745" text-anchor="middle" y="225.3343897327521">b
  </text>
</svg>