<?xml version="1.0" encoding="UTF-8"?>
<!DOCTYPE svg PUBLIC "-//W3C//DTD SVG 1.1//EN"
    "http://www.w3.org/Graphics/SVG/1.1/DTD/svg11.dtd">
<svg xmlns="http://www.w3.org/2000/svg" style="background : #444;" height="240.17891641676758" width="400.00000000000006" xmlns:xlink="http://www.w3.org/1999/xlink" version="1.11.1">
  <polygon points="70.83333333333333,182.69494798882332 329.1666666666667,182.69494798882332 264.58333333333337,70.83333333333333 " stroke="orange" stroke-width="2" fill="none"/>
  <polyline points="88.15384140902201,172.69494798882332 70.83333333333333,182.69494798882332 90.83333302871598,182.69145733033693 " stroke="white" stroke-width="1.25" fill="none"/>
  <text dy="4" font-size="16" font-style="italic" stroke="none" fill="white" font-family="CMU Serif" x="85.81043042499128" text-anchor="middle" y="160.92784787741667">30°
  </text>
  <polyline points="84.68973979388427,174.69494798882332 84.94399128781613,175.1524462757582 85.40693843137304,176.09115858830526 85.80752074302139,177.05813049847146 86.14402401077594,178.0492240431211 86.41500823611939,179.06019803540292 86.61931379618893,180.08672621406166 86.75606640615099,181.1244157568074 86.82468086052752,182.16882607852293 86.83333308963945,182.6921554620342 " stroke="white" stroke-width="1.25" fill="none"/>
  <text dy="4" font-size="16" font-style="italic" stroke="none" fill="white" font-family="CMU Serif" x="85.81043042499128" text-anchor="middle" y="160.92784787741667">30°
  </text>
  <text dy="4" font-size="16" font-style="italic" stroke="none" fill="white" font-family="CMU Serif" x="85.81043042499128" text-anchor="middle" y="160.92784787741667">30°
  </text>
  <polyline points="274.58031018209874,88.15558647445916 264.58333333333337,70.83333333333333 247.26282525764498,80.83333333333304 " stroke="white" stroke-width="1.25" fill="none"/>
  <text dy="4" font-size="16" font-style="italic" stroke="none" fill="white" font-family="CMU Serif" x="256.816233221925" text-anchor="middle" y="99.81043042499128">90°
  </text>
  <polyline points="272.58091481234567,84.69113584623399 272.23845690716223,84.88321173385368 271.53991970434197,85.2418692083864 270.82462719890225,85.56582296963059 270.09430221030595,85.85429275798522 269.3507037645371,86.10658377885677 268.5956228573981,86.32208837610808 267.8308781408008,86.50028749562973 267.0583115424464,86.64075193550919 266.2797838294522,86.74314337978633 265.4971701265871,86.80721521330527 264.71235539994393,86.83281311569893 263.9272299168964,86.81987543307908 263.14368469329054,86.76843332653137 262.3636069388343,86.67861069706426 261.58887551165515,86.55062388718473 260.82135639297064,86.38478115982782 260.0628981927779,86.18148195588817 259.31532769737476,85.94121593214625 258.5804454694529,85.6645617819034 257.8600215113469,85.35218584117054 257.1557910018904,85.00484048376127 256.46945011715104,84.62336230916056 255.80265194509445,84.20867012753145 255.15700250404132,83.76176274671282 254.53405687448628,83.28371656653765 253.93531545360327,82.77568298626791 253.36222034146374,82.23888563138969 252.816151867661,81.67461740644633 252.29842526671325,81.08423738101085 251.8102875102544,80.46916751629472 251.35291430363702,79.83088924028114 250.92740725418332,79.17093987962706 250.72692687278266,78.8333333333331 " stroke="white" stroke-width="1.25" fill="none"/>
  <text dy="4" font-size="16" font-style="italic" stroke="none" fill="white" font-family="CMU Serif" x="256.816233221925" text-anchor="middle" y="99.81043042499128">90°
  </text>
  <text dy="4" font-size="16" font-style="italic" stroke="none" fill="white" font-family="CMU Serif" x="256.816233221925" text-anchor="middle" y="99.81043042499128">90°
  </text>
  <polyline points="309.16666697128375,182.69145733033693 329.1666666666667,182.69494798882332 319.1666666666667,165.37443991313435 " stroke="white" stroke-width="1.25" fill="none"/>
  <text dy="4" font-size="16" font-style="italic" stroke="none" fill="white" font-family="CMU Serif" x="303.1872136489981" text-anchor="middle" y="167.69268079673677">60°
  </text>
  <polyline points="313.16666691036033,182.6921554620342 313.17532200926024,182.16873885926023 313.24395929375413,181.12415522190693 313.380757337896,180.086295719196 313.58513054663644,179.05960314408028 313.8562040541107,178.0484724869473 314.19281746869973,177.05723212186538 314.59352984034985,176.0901252779975 315.05662582888516,175.1512918754968 315.5801230469121,174.24475080363825 316.1617805458779,173.37438271705358 316.7991084089578,172.54391342370744 317.4893784097091,171.75689793573272 318.2296356908625,171.0167052513946 319.0167114132616,170.3265039333294 319.84723632079357,169.68924854479408 320.7176551632571,169.1076670019868 321.1666666666667,168.83854152827215 " stroke="white" stroke-width="1.25" fill="none"/>
  <text dy="4" font-size="16" font-style="italic" stroke="none" fill="white" font-family="CMU Serif" x="303.1872136489981" text-anchor="middle" y="167.69268079673677">60°
  </text>
  <text dy="4" font-size="16" font-style="italic" stroke="none" fill="white" font-family="CMU Serif" x="303.1872136489981" text-anchor="middle" y="167.69268079673677">60°
  </text>
</svg>