<?xml version="1.0" encoding="UTF-8"?>
<!DOCTYPE svg PUBLIC "-//W3C//DTD SVG 1.1//EN"
    "http://www.w3.org/Graphics/SVG/1.1/DTD/svg11.dtd">
<svg xmlns="http://www.w3.org/2000/svg" style="background : #444;" height="278.82685902179844" width="300.0" xmlns:xlink="http://www.w3.org/1999/xlink" version="1.11.1">
  <line x2="285" y1="135.93266739736606" stroke="orange" stroke-width="2" fill="none" y2="135.93266739736606" x1="15"/>
  <line x2="219.82050807568876" y1="248.8268590217984" stroke="orange" stroke-width="2" fill="none" y2="15" x1="84.82050807568879"/>
  <polyline points="160,118.6121593216771 150,135.93266739736606 169.99999969538237,135.9291767388791 " stroke="white" stroke-width="1.25" fill="none"/>
  <text dy="4" font-size="16" font-style="italic" stroke="none" fill="white" font-family="CMU Serif" x="175.9794530176677" text-anchor="middle" y="120.93040020527866">a
  </text>
  <polyline points="158,122.07626093681489 158.44901150340957,122.34538641052956 159.31943034587266,122.92696795333683 160.14995525340464,123.56422334187215 160.93703097580374,124.25442465993734 161.67728825695758,124.99461734427547 162.36755825770842,125.78163283224973 163.00488612078834,126.61210212559587 163.5865436197546,127.482470212181 164.11004083778153,128.38901128403955 164.57313682631684,129.32784468654023 164.9738491979665,130.29495153040767 165.3104626125555,131.2861918954896 165.5815361200298,132.29732255262257 165.78590932877069,133.32401512773828 165.92270737291256,134.36187463044922 165.99134465740644,135.40645826780252 165.9999997563059,135.9298748705765 " stroke="white" stroke-width="1.25" fill="none"/>
  <text dy="4" font-size="16" font-style="italic" stroke="none" fill="white" font-family="CMU Serif" x="175.9794530176677" text-anchor="middle" y="120.93040020527866">a
  </text>
  <text dy="4" font-size="16" font-style="italic" stroke="none" fill="white" font-family="CMU Serif" x="175.9794530176677" text-anchor="middle" y="120.93040020527866">a
  </text>
  <polyline points="130.00000030461763,135.93615805585188 150,135.93266739736606 160,118.6121593216771 " stroke="white" stroke-width="1.25" fill="none"/>
  <text dy="4" font-size="16" font-style="italic" stroke="none" fill="white" font-family="CMU Serif" x="134.99773280791345" text-anchor="middle" y="109.9532143796975">b
  </text>
  <polyline points="134.0000002436941,135.9354599241547 134.00847689511374,135.41190950171 134.07678370848544,134.3670419844271 134.21328753928537,133.32887983254392 134.4174037597636,132.3018693564714 134.68825816729623,131.2904091054748 135.02469072848317,130.29883102927585 135.42526054741302,129.33138192488428 135.8882520368311,128.39220524813396 136.41168226577156,127.48532336781142 136.99330945218435,126.61462033838603 137.6306425641933,125.78382526512047 138.32095198885054,124.99649633280893 139.06128122270866,124.25600556654587 139.84845953413014,123.56552438979094 140.67911554311058,122.92801004158315 141.54969166044793,122.34619291107998 142.45645932442767,121.82256484366422 143.3955349697544,121.35936846869987 144.3628966603451,120.95858759465187 145.35440131474843,120.6219387126958 146.36580245040932,120.35086364521482 147.39276837079024,120.14652337066815 148.43090071745064,120.00979305127208 149.47575330763266,119.94125828479724 150.5228511766677,119.94121259653372 151.56770974365782,120.00965618215793 152.6058540183367,120.14629590689634 153.63283776686012,120.35054656098197 154.64426255443186,120.6215333660312 155.6357965832167,120.95809572160175 156.60319324485363,121.35879217589087 157.54230930811354,121.82190659928216 158,122.07626093681489 " stroke="white" stroke-width="1.25" fill="none"/>
  <text dy="4" font-size="16" font-style="italic" stroke="none" fill="white" font-family="CMU Serif" x="134.99773280791345" text-anchor="middle" y="109.9532143796975">b
  </text>
  <text dy="4" font-size="16" font-style="italic" stroke="none" fill="white" font-family="CMU Serif" x="134.99773280791345" text-anchor="middle" y="109.9532143796975">b
  </text>
</svg>