<?xml version="1.0" encoding="UTF-8"?>
<!DOCTYPE svg PUBLIC "-//W3C//DTD SVG 1.1//EN"
    "http://www.w3.org/Graphics/SVG/1.1/DTD/svg11.dtd">
<svg xmlns="http://www.w3.org/2000/svg" style="background : #444;" height="278.82685902179844" width="300.0" xmlns:xlink="http://www.w3.org/1999/xlink" version="1.11.1">
  <line x2="285" y1="135.93266739736606" stroke="orange" stroke-width="2" fill="none" y2="135.93266739736606" x1="15"/>
  <line x2="219.82050807568876" y1="248.8268590217984" stroke="orange" stroke-width="2" fill="none" y2="15" x1="84.82050807568879"/>
  <polyline points="160,118.6121593216771 150,135.93266739736606 169.99999969538237,135.9291767388791 " stroke="white" stroke-width="1.25" fill="none"/>
  <text dy="4" font-size="16" font-style="italic" stroke="none" fill="white" font-family="CMU Serif" x="175.9794530176677" text-anchor="middle" y="120.93040020527866">a
  </text>
  <polyline points="158,122.07626093681489 158.79442876378198,122.56636563813714 159.7347456147536,123.23484365406108 160.7259040777467,124.06022107342011 161.7973516118086,125.12422185939164 162.54554176314514,126.00244172675917 163.30464145576752,127.04523156167812 163.91048450217295,128.02707311769296 164.5020682297004,129.1732282888957 165.07469704815867,130.57043755277397 165.42191097864497,131.67066531304505 165.7150980415572,132.9267243599416 165.92848345980838,134.42157022292355 165.99596394155742,135.57331022074374 165.9999997563059,135.9298748705765 " stroke="white" stroke-width="1.25" fill="none"/>
  <text dy="4" font-size="16" font-style="italic" stroke="none" fill="white" font-family="CMU Serif" x="175.9794530176677" text-anchor="middle" y="120.93040020527866">a
  </text>
  <text dy="4" font-size="16" font-style="italic" stroke="none" fill="white" font-family="CMU Serif" x="175.9794530176677" text-anchor="middle" y="120.93040020527866">a
  </text>
  <polyline points="130.00000030461763,135.93615805585188 150,135.93266739736606 160,118.6121593216771 " stroke="white" stroke-width="1.25" fill="none"/>
  <text dy="4" font-size="16" font-style="italic" stroke="none" fill="white" font-family="CMU Serif" x="134.99773280791345" text-anchor="middle" y="109.9532143796975">b
  </text>
  <polyline points="134.0000002436941,135.9354599241547 134.0157760816569,135.22232541756154 134.0791711476877,134.34294771912897 134.2072728556077,133.36561279280983 134.43337905218414,132.23397678216003 134.66074678221003,131.382138777467 134.9700616262753,130.4462339035527 135.29508848013757,129.62667206014754 135.71129536698618,128.73315908703768 136.26738896970028,127.72197958875364 136.7405058200402,126.97801418846853 137.31706535532203,126.17853141313714 138.05311554124228,125.2897377382406 138.65749602459482,124.64782785185531 139.3739029139142,123.97080881614698 140.04892848918917,123.40365403690072 140.83930701764166,122.81467577963082 141.8086567772275,122.18850877609208 142.57815999658123,121.75817301613148 143.46506218888817,121.32805895328607 144.2794466389073,120.99026902083739 145.21040536727833,120.66637173488795 146.32323190793522,120.36085387429881 147.1865534374224,120.18196841479636 148.16176797359003,120.03861495574262 149.3121655941677,119.94745911501474 149.92124293774896,119.93286123212926 150.1293992053097,119.93319066074542 150.36209741464563,119.93676525143161 151.1785071569284,119.97612889802127 152.05564909081977,120.06526979046754 153.0288097308503,120.22196048729035 154.15333282618667,120.48113587343875 154.9981411378858,120.73337184902635 155.92457847526475,121.06998359226469 156.98044554108037,121.53567534874679 157.7628746896171,121.94203565489994 158,122.07626093681489 " stroke="white" stroke-width="1.25" fill="none"/>
  <text dy="4" font-size="16" font-style="italic" stroke="none" fill="white" font-family="CMU Serif" x="134.99773280791345" text-anchor="middle" y="109.9532143796975">b
  </text>
  <text dy="4" font-size="16" font-style="italic" stroke="none" fill="white" font-family="CMU Serif" x="134.99773280791345" text-anchor="middle" y="109.9532143796975">b
  </text>
</svg>