<?xml version="1.0" encoding="UTF-8"?>
<!DOCTYPE svg PUBLIC "-//W3C//DTD SVG 1.1//EN"
    "http://www.w3.org/Graphics/SVG/1.1/DTD/svg11.dtd">
<svg xmlns="http://www.w3.org/2000/svg" style="background : #444;" height="169.81089964785122" width="300.0" xmlns:xlink="http://www.w3.org/1999/xlink" version="1.11.1">
  <polyline points="142.1336803111672,93.53757208527546 142.0751441705509,95.92207009728348 141.60770081803383,100.66810210194467 140.6773158480149,105.34546320460112 139.2929493763556,109.90910786092859 137.4679336089497,114.3150856781447 135.21984444529238,118.5209646813172 132.57033221296024,122.4862399564782 129.54491316312132,126.1727237350879 126.1727237350879,129.54491316312132 122.4862399564782,132.57033221296024 118.5209646813172,135.21984444529238 114.31508567814471,137.4679336089497 109.90910786092859,139.2929493763556 105.34546320460112,140.6773158480149 100.66810210194467,141.60770081803383 95.92207009728348,142.0751441705509 91.15307407326745,142.0751441705509 86.40704206860627,141.60770081803383 81.72968096594981,140.6773158480149 77.16603630962234,139.2929493763556 72.76005849240624,137.4679336089497 68.55417948923373,135.21984444529238 64.58890421407274,132.57033221296024 60.902420435463014,129.54491316312132 57.53023100742961,126.17272373508793 54.504811957590704,122.4862399564782 51.85529972525856,118.5209646813172 49.60721056160125,114.3150856781447 47.782194794195334,109.90910786092861 46.39782832253602,105.34546320460112 45.467443352517094,100.66810210194467 45,95.92207009728347 45,91.15307407326746 45.467443352517094,86.40704206860627 46.39782832253602,81.72968096594981 47.78219479419533,77.16603630962234 49.60721056160124,72.76005849240624 51.85529972525856,68.55417948923375 54.504811957590704,64.58890421407274 57.5302310074296,60.902420435463014 60.90242043546301,57.53023100742961 64.58890421407276,54.5048119575907 68.55417948923373,51.85529972525856 72.7600584924062,49.607210561601256 77.16603630962234,47.78219479419533 81.7296809659498,46.39782832253602 86.40704206860623,45.4674433525171 91.15307407326745,45 95.92207009728347,45 100.66810210194467,45.4674433525171 105.34546320460112,46.39782832253602 109.90910786092857,47.78219479419532 114.3150856781447,49.60721056160125 118.5209646813172,51.855299725258554 122.48623995647817,54.50481195759069 126.1727237350879,57.5302310074296 129.54491316312132,60.90242043546301 132.57033221296024,64.58890421407274 135.21984444529238,68.55417948923372 137.4679336089497,72.7600584924062 139.2929493763556,77.16603630962234 140.6773158480149,81.7296809659498 141.60770081803383,86.40704206860623 142.0751441705509,91.15307407326745 142.1336803111672,93.53757208527546 " stroke="orange" stroke-width="2" fill="none"/>
  <polyline points="243.90762639286956,86.14992870782518 245.07452850646698,88.22959859665168 247.2451355997426,92.45664371799153 249.18094764140298,96.73995349806994 250.86332170326455,101.03827732220947 252.27605560343224,105.31021998228081 253.40554394216863,109.51464033518607 254.24090912933053,113.61104751455687 254.77410614150844,117.55999087993186 255,121.32343994799048 254.91641522346183,124.86515064689677 254.524156778984,128.15101436652427 253.8270023298172,131.14938644301714 252.83166585441023,133.83139091420185 251.54773298712755,136.1711986108881 249.98756870335018,138.14627590588782 248.1661982380034,139.7376017251631 246.101162384331,140.9298507311671 243.81234856646716,141.71154091422244 241.3217993126709,142.0751441705509 238.65349997372888,142.0171588020284 235.83314773091598,141.53814323945176 232.88790411809183,140.64271066454512 229.84613344128186,139.33948458249813 226.7371296149048,137.6410157728967 223.59083404536295,135.5636614188548 220.4375472789312,133.12742757839925 217.30763719093204,130.35577651519452 214.23124652649594,127.27540074411792 211.23800260944753,123.91596596774954 208.35673201498162,120.30982537943967 205.6151829539856,116.49170808437071 203.0397580426,112.49838463928941 200.655260030592,108.36831293194456 198.48465293731638,104.1412678106047 196.54884089565596,99.85795803052629 194.8664668337944,95.55963420638676 193.4537329336267,91.28769154631543 192.32424459489036,87.08327119341016 191.48887940772846,82.98686401403936 190.9556823955505,79.03792064866437 190.72978853705894,75.27447158060576 190.81337331359717,71.73276088169945 191.20563175807493,68.44689716207196 191.90278620724175,65.4485250855791 192.8981226826487,62.76652061439437 194.18205554993142,60.42671291770813 195.7422198337088,58.45163562270841 197.56359029905553,56.860309803433125 199.62862615272795,55.66806079742912 201.9174399705918,54.8863706143738 204.4079892243881,54.5227673580453 207.0762885633301,54.580752726567816 209.89664080614298,55.059768289144465 212.8418844189671,55.955200864051086 215.88365509577707,57.25842694609809 218.99265892215416,58.956895755699534 222.13895449169598,61.03425010974142 225.2922412581278,63.47048395019698 228.4221513461269,66.24213501340168 231.498542010563,69.3225107844783 234.49178592761146,72.6819455608467 237.37305652207732,76.28808614915656 240.1146055830734,80.10620344422549 242.69003049445897,84.09952688930682 243.90762639286956,86.14992870782517 " stroke="orange" stroke-width="2" fill="none"/>
  <circle stroke="#444" stroke-width="1" fill="red" cy="86.14992870782518" r="3" cx="243.90762639286956"/>
  <text dy="4" font-size="16" font-style="italic" stroke="none" fill="white" font-family="CMU Serif" x="256.0319820458517" text-anchor="middle" y="79.14992870782514">0
  </text>
  <circle stroke="#444" stroke-width="1" fill="red" cy="108.82032182646816" r="3" cx="253.23746190971184"/>
  <text dy="4" font-size="16" font-style="italic" stroke="none" fill="white" font-family="CMU Serif" x="266.82761671722795" text-anchor="middle" y="105.45763059655329">11
  </text>
  <circle stroke="#444" stroke-width="1" fill="red" cy="128.67152340548046" r="3" cx="254.42899245503963"/>
  <text dy="4" font-size="16" font-style="italic" stroke="none" fill="white" font-family="CMU Serif" x="268.1767195399079" text-anchor="middle" y="131.31727471654128">10
  </text>
  <circle stroke="#444" stroke-width="1" fill="red" cy="140.3844200129783" r="3" cx="247.16294838147536"/>
  <text dy="4" font-size="16" font-style="italic" stroke="none" fill="white" font-family="CMU Serif" x="254.16294838147542" text-anchor="middle" y="152.5087756659604">9
  </text>
  <circle stroke="#444" stroke-width="1" fill="red" cy="140.82055046195336" r="3" cx="233.3862603306995"/>
  <text dy="4" font-size="16" font-style="italic" stroke="none" fill="white" font-family="CMU Serif" x="228.80368463573024" text-anchor="middle" y="154.04930701727164">8
  </text>
  <circle stroke="#444" stroke-width="1" fill="red" cy="129.86305395080825" r="3" cx="216.79038074029302"/>
  <text dy="4" font-size="16" font-style="italic" stroke="none" fill="white" font-family="CMU Serif" x="207.0831273063562" text-anchor="middle" y="139.95112764053326">7
  </text>
  <circle stroke="#444" stroke-width="1" fill="red" cy="110.44798282077105" r="3" cx="201.8221621441894"/>
  <text dy="4" font-size="16" font-style="italic" stroke="none" fill="white" font-family="CMU Serif" x="189.69780649120884" text-anchor="middle" y="117.44798282077377">6
  </text>
  <circle stroke="#444" stroke-width="1" fill="red" cy="87.77758970212807" r="3" cx="192.49232662734715"/>
  <text dy="4" font-size="16" font-style="italic" stroke="none" fill="white" font-family="CMU Serif" x="178.9021718198306" text-anchor="middle" y="91.14028093204121">5
  </text>
  <circle stroke="#444" stroke-width="1" fill="red" cy="67.9263881231158" r="3" cx="191.30079608201936"/>
  <text dy="4" font-size="16" font-style="italic" stroke="none" fill="white" font-family="CMU Serif" x="177.5530689971483" text-anchor="middle" y="65.28063681206956">4
  </text>
  <circle stroke="#444" stroke-width="1" fill="red" cy="56.21349151561794" r="3" cx="198.56684015558363"/>
  <text dy="4" font-size="16" font-style="italic" stroke="none" fill="white" font-family="CMU Serif" x="191.56684015559927" text-anchor="middle" y="44.08913586262677">3
  </text>
  <circle stroke="#444" stroke-width="1" fill="red" cy="55.77736106664285" r="3" cx="212.34352820635945"/>
  <text dy="4" font-size="16" font-style="italic" stroke="none" fill="white" font-family="CMU Serif" x="216.92610390129232" text-anchor="middle" y="42.548604511311936">2
  </text>
  <circle stroke="#444" stroke-width="1" fill="red" cy="66.73485757778798" r="3" cx="228.93940779676592"/>
  <text dy="4" font-size="16" font-style="italic" stroke="none" fill="white" font-family="CMU Serif" x="238.64666123071908" text-anchor="middle" y="56.646783888078694">1
  </text>
</svg>