<?xml version="1.0" encoding="UTF-8"?>
<!DOCTYPE svg PUBLIC "-//W3C//DTD SVG 1.1//EN"
    "http://www.w3.org/Graphics/SVG/1.1/DTD/svg11.dtd">
<svg xmlns="http://www.w3.org/2000/svg" style="background : #444;" height="186.9665814645055" width="300.0" xmlns:xlink="http://www.w3.org/1999/xlink" version="1.11.1">
  <polyline points="142.87589407373144,105.30332092177318 144.82594166020868,104.48069131749693 147.1841264771083,103.35997102677078 149.70761987887897,101.97722552024334 152.44300568169905,100.20050081798965 154.3273752806267,98.74496607100758 155.69746275338196,97.51692100342953 156.64079017705018,96.55470978948796 157.58124066990155,95.46046967375804 158.5193254670588,94.16346960204963 159.1113299158397,93.16792709770684 159.50827806321652,92.36356998554373 159.76093556802468,91.75166783111817 159.9906698490689,91.0719297081857 160.1879478928193,90.28432745820595 160.28602511646645,89.69036268935376 160.3413391463796,89.03594658473106 160.34204815044126,88.46066718092715 160.30889760089235,88.0031038366357 160.2632703877019,87.65873137251876 160.191482147499,87.27941140114785 160.10874740925033,86.94555077235248 159.99562242643185,86.57869542957731 159.83565882205494,86.1582778360407 159.69359689329005,85.84408077052285 159.5145622206831,85.50030656134695 159.33650892630578,85.19982489924851 159.117600762486,84.8720216466798 158.71963742600968,84.36067673212096 158.31866871989126,83.92424027483212 157.82120294063145,83.460869263971 157.17464087997723,82.95288817006374 156.63558678892926,82.59097892654525 155.98827509543065,82.21414994959599 155.37082412604246,81.90267788569972 154.63925209351532,81.58376266031958 153.36847375988685,81.13496338820153 152.14730662284046,80.80548860347815 150.69653668937067,80.51887467727767 148.89690423992965,80.29368566385111 147.45900402781183,80.20155291812907 145.79761769788558,80.17925078077496 143.01797855288393,80.3178249201741 139.67858308164344,80.7366694235701 137.11242668060834,81.22382032453898 134.27437105885292,81.91471519768936 129.8629746084799,83.28097997482416 123.57232805542183,85.78002700136942 118.11608816583846,88.28030463371857 116.18529603835171,89.03585368870776 115.67552598680197,89.16612904777342 115.39739193164391,89.21008472222348 115.23929823160839,89.222687505669 115.11898892732562,89.22453691786741 115.03159811551993,89.22083640634605 114.77930337505363,79.43427755659357 114.79018118241456,63.85886740424779 114.39711622128155,61.28855666452242 113.79714315181877,58.50153301292363 112.87676830222411,55.42334731511348 112.01871719206453,53.25416169788081 111.23113551065994,51.64083104220497 110.57655372151518,50.50498527473049 109.7942178134706,49.34349624196147 109.05290379042248,48.40855444536325 108.57677020823866,47.88242956284387 108.02954265923916,47.34279639563554 107.37064285613074,46.77821172711794 106.85542579234402,46.39710480932174 106.26868431287625,46.02371092718195 105.56936749056004,45.65864275981329 105.02767458367447,45.43303213035415 104.58559721831148,45.2846919441136 104.24599164523164,45.19212749973472 103.86474842370532,45.11003896094076 103.4168173155092,45.042759031102854 103.07387132793733,45.012377214828135 102.69006020968382,45 102.34674241935085,45.00825175669494 101.96324114406423,45.0390709678164 101.51520992055785,45.10407805115829 101.17403636203323,45.174701590705844 100.79409982598153,45.275074494026676 100.45593531329146,45.38391451344376 100.0800732911843,45.52679020271578 99.4778398875746,45.80493805389834 98.94654173575881,46.10231994933482 98.36220759787636,46.48824523071784 97.69303745454914,47.010308880822535 97.19412655979431,47.45893068831832 96.65030878494042,48.0101639423024 96.17747715669475,48.546349122343145 95.66518655677598,49.192463843723715 94.87580844019197,50.337466450807895 94.21442360421099,51.459638785287055 93.52858583181737,52.81521315083032 92.54680275955229,55.20867592446842 91.60939578142319,58.26936435123027 91.05157534940267,60.747717107723375 90.5889608399766,63.6113820896627 90.31373371329867,66.21341469007359 90.14970126491384,69.11917404000972 90.16035274189005,73.68476606240363 90.65596781208248,80.26157171539248 91.19710886976192,84.81435476815224 91.37111431394277,86.85250899008477 91.37027580460051,87.63462745604758 91.34439420836648,87.94848237212501 91.31027278581695,88.17646013824549 91.27582449683666,88.33505782068656 91.2424285234975,88.45354993599105 91.21348768828831,88.53818145942324 91.17752880127455,88.62679130057322 91.13048204558552,88.72251459424092 91.09086715395091,88.78984317081651 91.04272771914326,88.85921048753033 90.99616430916952,88.91600281733585 90.95603047951786,88.9583426839734 90.92386670536106,88.9885263067349 90.88634639381868,89.02006744637069 90.8513778656317,89.04631580629787 90.8106902826334,89.07347916329783 90.76089495094934,89.10237025115725 90.7212708944437,89.12233703824717 90.67532968916385,89.14251609244788 90.59728803923426,89.17040664433243 90.50001409643116,89.19565888670832 90.42135445901795,89.20963165366689 90.32889094894601,89.21986569940984 90.16903161331962,89.22455445250131 89.96548900513665,89.21177482421065 89.79789044073885,89.18905098632845 89.59790284874083,89.150694711851 89.24569025396397,89.06060099766545 84.79017978765188,87.15617759989391 78.24505528129754,84.30383267170544 74.5245239020427,82.95481241645194 70.05266386753381,81.64866207419612 65.91393835481946,80.77727681290467 63.35480788994114,80.41890051113904 60.54421488047418,80.20492593390418 57.3859602285853,80.22561121088845 55.1158147986808,80.44787116679004 53.395354037597926,80.76071968010709 52.162515960704674,81.07958335567177 50.87742443187893,81.51675416221204 49.818819160530566,81.9782471995199 49.02961559018199,82.39884141512766 48.46930533536653,82.74772514734158 47.88825669438791,83.16515648231723 47.41045333570281,83.56216978902114 46.92448754998382,84.0314417471127 46.42200237425573,84.6133403156931 46.08761832576938,85.0802151216385 45.84904466548491,85.4713232497916 45.68628543255464,85.77780315664745 45.52449877307888,86.12800843531447 45.36237792440037,86.54768790219467 45.258510946201206,86.87495376387663 45.162996431270805,87.24730482761376 45.09607974913897,87.58581154405218 45.04203300443575,87.97001970592255 45.00668288071879,88.42704122884412 45,88.78100711810134 45.026463922981776,89.3617757727596 45.098914906902124,89.95136839539373 45.23411347547125,90.61941532414262 45.40316155350871,91.22343371089224 45.64541007057308,91.90435134828644 45.999464444133004,92.70674492995629 46.32022836427363,93.32176593496831 46.92925193980777,94.31710480156852 47.646023205705404,95.30807811613903 48.56923001681996,96.40451289340372 49.49806828430182,97.3694706926666 50.644163641675554,98.42479211762782 52.716034401328876,100.06489468512447 55.43132632999563,101.85311747217095 57.67055266471149,103.10619243183392 61.493195478601145,104.90152707865569 65.41868858410251,106.39407739647302 71.56602912447372,108.18636973959767 76.89192145320439,109.34664298175565 80.22552403334427,110.0093630900611 81.74902999157331,110.38449084774821 82.31400984140414,110.5698799241215 82.69659440596931,110.72877179452506 82.94350551537457,110.85738844961516 83.11437636218818,110.96695676216159 83.22747643735462,111.05441462976167 83.30792717936794,111.12776437049251 83.36273322995312,111.18546200518021 83.41719443861442,111.25176421190821 83.47183417998599,111.33191683465164 83.50695951432041,111.39506727686201 83.53119424444617,111.44742173778114 83.54719348267854,111.48820149984014 83.56250831905997,111.53461907826015 83.57699596829511,111.59009820874624 83.58556775957754,111.63332259366001 83.59487376188378,111.70484563517954 83.59856106696228,111.77837947408734 83.59606460441032,111.86304631099881 83.58794409357301,111.94103314656701 83.57232335302251,112.03082325704392 83.54532010765706,112.13953907350916 83.5184067655669,112.2252706929141 83.48192452579674,112.32394313115849 83.40874735416661,112.49008987033375 83.25392234999629,112.77660099425603 83.07819033844305,113.05223722013854 82.84132926718101,113.38310067415982 79.36729841163762,117.26376410457948 74.51713764088483,122.83069476177678 72.0900642344376,126.03973853140297 69.51676756581536,129.9621144193871 67.4910282100034,133.66602045763383 66.42515352020705,135.99667493219056 65.4383389222985,138.59701894112266 64.76158767323304,140.88423422260615 64.44824310909411,142.2653127230455 64.19744556542298,143.76908296404713 64.04160828369135,145.46232466491267 64.02487033600302,146.6973822083254 64.0768998696197,147.65419809602548 64.1562849519341,148.35720008506678 64.2856412238391,149.112443368071 64.49129948624028,149.95277169701978 64.68747638941613,150.56092691420503 64.94640163880575,151.204372368051 65.21291184685919,151.74583630230947 65.54923448754082,152.31159702823163 65.88366763120678,152.7809513428921 66.10591079757569,153.05322832112176 66.36818593284218,153.3411980737527 66.69342311362796,153.65589858295945 66.95480763939301,153.87971439936132 67.26000438597421,154.11267242633554 67.6343042564816,154.36192922006882 67.9322588240914,154.5350573485864 68.27736382354698,154.71069573985812 68.59646411920082,154.85161664627265 68.96454378570886,154.9909406625023 69.58443770328313,155.17527265929772 70.3463976945041,155.32601084503148 70.95308145289414,155.3935841327044 71.4584789752369,155.41801443124 71.85286773130696,155.41845225017096 72.3018749441156,155.4002735963012 73.04526407170394,155.32924413840226 73.93977702798945,155.181127948852 74.6387384762678,155.02124473293816 75.43421173368215,154.79520813475477 76.74746532127732,154.32586550067916 78.31564704041017,153.61893606115018 79.52753799406004,152.9696593524131 80.88832259103093,152.1380250538419 83.08232337622889,150.57493008165034 85.59907793639562,148.44727370674087 87.454822370139,146.64543149946002 90.28239484673739,143.4995923860344 92.83900346827949,140.20340630766427 99.57252291067498,129.23463011695281 101.81965160131907,125.81996008305552 101.9404398245587,125.71436812033558 102.03689251257774,125.64014474706943 102.10990760871309,125.59022876482835 102.19094159493989,125.54140717721769 102.26295475989353,125.50400764176368 102.34302896753877,125.46922040028007 102.43630929751075,125.43794032440775 102.50731104189005,125.42092488395811 102.56463824897452,125.41152551261762 102.60838648799252,125.40697810242978 102.65727217095801,125.40459527414224 102.70099014073452,125.40488050934621 102.74988035292796,125.40790108736878 102.80716592058644,125.41506152294261 102.85098028138337,125.42316428630622 102.90004030717384,125.43492176872306 102.9796396440673,125.45997359346185 103.07328602055937,125.49875802074737 103.14523732055193,125.53524160003917 103.22619043373666,125.58304204970997 103.29912276972138,125.63204772242872 103.3813325160332,125.69380229515355 103.51606533650671,125.80921845448546 103.63863280972396,125.9285683208509 103.7783044995459,126.07986724500127 104.01108994744362,126.36411291011191 104.40892791375484,126.92496958911005 107.23847052697042,131.86461060651402 111.21369970996282,138.3547519717444 113.59912852013436,141.66531656782783 116.6158347731502,145.28675101452203 119.56812832768733,148.28116474644526 122.07897187357712,150.42990688486628 124.03852011590867,151.85955051589332 125.63193043877787,152.86123220116417 126.845024868965,153.5246586171771 128.18866479370365,154.15548574862393 129.73342536902794,154.7379131744498 130.88450735578516,155.0649819445483 131.79255358650624,155.25291108339366 132.47002578033494,155.3495799946151 133.20886581148517,155.4091237164298 134.0463729520366,155.41335362329488 134.66431339373042,155.36887578163243 135.3309391928097,155.27025941987858 135.90404904144467,155.13848452093552 136.35080913294462,155.0019438476104 136.6814835131513,154.87971617577128 137.03991797233527,154.7248142211709 137.3501316745234,154.5700685443051 137.68502057854556,154.3791112071651 138.06063674431158,154.13171636962716 138.33528570405696,153.92562153683468 138.62942858603452,153.67789580062714 138.9560785214759,153.36497936243802 139.19244973810845,153.1095757167734 139.4429513109833,152.80754464680209 139.65448795577203,152.5229125334505 139.87677639527442,152.18879740892868 140.20410985128126,151.61355671075552 140.5355848244033,150.88757165515602 140.75051359011752,150.29645494435056 140.95098506750242,149.59989377587186 141.09432944646954,148.9464840424609 141.2141122539307,148.18381852586674 141.3170669738351,146.88317832580722 141.31413762530758,145.65668463095656 141.2056149620781,144.2236360012203 140.94008386950054,142.47587520851613 140.63952733908278,141.09953067472543 140.20726860096963,139.5285138403937 139.30568174381713,136.94019246253612 137.9648786462559,133.88790651113118 136.76418294497364,131.57954501841496 135.27751732132367,129.0603144093999 132.65547467664592,125.20750398498015 126.49934571236962,117.82543029982419 123.2978993036731,114.3481889729301 122.5646557815441,113.46046355570613 122.22196727217649,112.98156476160084 122.05493125313599,112.71058840228724 121.94563894544083,112.50466043618297 121.8780379555211,112.35504806233997 121.8190147980704,112.19538465741483 121.78122602766513,112.05913641065467 121.76113684730235,111.95327686904578 121.75216032487027,111.87495504176681 121.74870115236314,111.7899242180387 121.75152269713385,111.71607440206257 121.75791273812631,111.65780956826457 121.76527872754247,111.61417036820953 121.77606976962652,111.56625445266947 121.78801323485577,111.52416325571743 121.80393493702239,111.47794190744473 121.8260307293316,111.42492287145843 121.84542652738281,111.38519843193596 121.88143613819196,111.32231001295096 121.92317682747127,111.26108076048476 121.97664480033467,111.19451008007222 122.03056112448716,111.1365829454301 122.09766288227466,111.07354132097893 122.22150380960868,110.97516204465862 122.39048768221855,110.8652050547039 122.53699651476214,110.78462898613193 122.80591186499007,110.65973730935119 123.11400105966617,110.54055056409132 123.50442125317502,110.4125289156156 124.23728028842504,110.21279045025999 127.74246009921742,109.48582538104112 134.69298661968662,107.95605616289401 140.91053939461403,106.04953885465653 142.87589407373144,105.30332092177318 " stroke="orange" stroke-width="2" fill="none"/>
  <polyline points="232.65148605489273,93.90521101655114 233.0845666269935,92.70528098472346 233.54533046075733,91.14516253819302 233.94666240360152,89.31679645212881 234.2427568496714,87.09426127374076 234.33094544757563,85.36263880703143 234.310188192193,83.95659871332782 234.23755534171383,82.88746750233113 234.09766229275434,81.70471514105614 233.85536488952118,80.34695893095711 233.61393908324862,79.33679271945385 233.3836441169738,78.54096198976171 233.1870969485714,77.9478748031967 232.94670574885737,77.30177075055539 232.63832852261584,76.57036768305754 232.38381482179528,76.0314597983668 232.0805584470292,75.4508903196396 231.79322575289163,74.95250649065602 231.5500894717165,74.5645326480463 231.35814607679464,74.27770414905478 231.13740087125484,73.96715047773553 230.93464536430773,73.69870237643744 230.70223313845844,73.40927757578471 230.42275806915447,73.08517616067832 230.20414491678503,72.84858900233655 229.95473352487915,72.59563047217608 229.7273933557508,72.3799190430218 229.4687017139846,72.15076013980905 229.04070607712347,71.80741328782419 228.6488633056685,71.52969040520398 228.20176879906174,71.25276578323594 227.66780866728325,70.9744817664336 227.25343677709324,70.79582269044417 226.78472810325036,70.63130714689866 226.3616279587615,70.51592716934236 225.88539036363804,70.42263149064131 225.11072756782846,70.35165450319423 224.41720929399233,70.37161275397897 223.64570052217633,70.48609029617839 222.75384230611766,70.74097900225811 222.0851468773561,71.02066475697185 221.35459442507096,71.41669712194607 220.22026243830797,72.23161563322371 218.98368403431746,73.42919448121026 218.1160811681117,74.49261863718453 217.23261447179016,75.80046505411605 216.00555616426377,78.08653417200392 214.53114981694776,81.82343402050861 213.41866745636176,85.35279793903283 212.96038446794108,86.48982064633049 212.8047852401086,86.7300849296559 212.70632749862142,86.83768517415967 212.64417231013965,86.88812292979077 212.5930015593286,86.91980189380733 212.5533099720274,86.93844485977428 207.55078371990862,78.52610996537376 199.76778887249176,65.03468964724004 198.3124313817897,62.907001491301145 196.65912359611966,60.64336147543422 194.72149674683797,58.20766817596338 193.26535690864984,56.543611103455945 192.11765870898606,55.34332119128761 191.2662935961218,54.523295349159866 190.34678769440765,53.71300031757602 189.55831840803785,53.08864547642413 189.08908407789514,52.75204135814519 188.58231101474885,52.421512213868 188.0147066964698,52.09729249912166 187.60105770472046,51.89604849269884 187.16029425031397,51.71936527501503 186.67494709991982,51.57803617353979 186.32758187598387,51.51807486378578 186.0619866684424,51.50012783544007 185.86865091947598,51.50486606839074 185.6625234926478,51.52908611381721 185.43492366830728,51.582802762461775 185.27123279148833,51.642227834647734 185.09884909474303,51.72746163174184 184.95431400909072,51.82043731024876 184.80366269126048,51.94300284882619 184.6421630223089,52.11130844030279 184.52974230769175,52.2577636092873 184.41541141332883,52.43967322742767 184.3234018937134,52.61847257736377 184.23208670861808,52.83617205938334 184.1103859209426,53.227613515417914 184.02901802043272,53.61797832944542 183.96895655727192,54.098282961556386 183.94022921053653,54.71769588077129 183.94850535974314,55.230941486443044 183.9886419827087,55.84427793151748 184.0519924718423,56.42683582562691 184.15322149570778,57.1144602380813 184.38391204817324,58.303406112361614 184.65861018059417,59.4405820704399 185.0394208964819,60.78600335081774 185.8110277425074,63.104248683866956 186.93546282751603,65.98923435904403 187.93309587332269,68.27500591371138 189.1646104056312,70.87066616335525 190.34644986407983,73.19289927845587 191.7283014053748,75.7503688048809 194.01570964139634,79.70162461034555 197.5187200885333,85.27340161403889 200.02943256640376,89.08094213122826 201.12385624489875,90.80253410320712 201.5145523926843,91.4800781908354 201.66027279080842,91.75835492031959 201.75948666449807,91.96431981291535 201.8238689590317,92.11028150713571 201.86865413603604,92.22124768247235 201.89843814850317,92.3017759405279 201.9271724142553,92.38750403574252 201.954662218293,92.48216452871492 201.97117275531892,92.55037650933869 201.9850114269422,92.62248522650714 201.99324504388292,92.68330967935225 201.99703651918693,92.73001053686613 201.998201007817,92.76419126449503 201.99772480615806,92.80088677056952 201.9957071692502,92.83236064912089 201.99167060750267,92.8660567020845 201.98455414031824,92.90352595103475 201.97737981409577,92.93072371001298 201.96757621576967,92.9596845848951 201.94772846601583,93.00334892383509 201.91823373440687,93.04953649293589 201.89115949576,93.08130217343648 201.85623864430883,93.11328099455136 201.78936189801226,93.15730640774726 201.69483554914743,93.19712457704236 201.6109013230032,93.21934479726434 201.50512601820847,93.23612418717184 201.3075666338109,93.24615389066005 198.4260623095983,92.71075246520644 194.1657677987866,91.87683042362812 191.88022032615393,91.63867745717255 189.29077295899947,91.6254830882445 187.06295961170306,91.90552269366134 185.7756354637286,92.23494232843757 184.4516257021625,92.75228316115488 183.09440396057653,93.55976079947979 182.22253213223613,94.3197799250107 181.63397502623857,95.02082987535017 181.25957231734978,95.60518343795658 180.92169676554428,96.30505734441982 180.69405375541433,96.96937335623517 180.56261569287858,97.53091952422342 180.49443610164997,97.97313926299167 180.45155032717682,98.47990756366089 180.44316205721137,98.9431820125782 180.46736867835583,99.47107489599891 180.5407354990432,100.10063513274736 180.62938036171116,100.58855658720461 180.7216290005476,100.98690957688288 180.8043921387665,101.29301877020211 180.9094390995503,101.63675210293609 181.04907844627107,102.04073539487068 181.16773565624464,102.35012268942846 181.31255218993326,102.69646679848358 181.4528297748209,103.00635138480385 181.62153092880368,103.35259709950073 181.83473463768155,103.7572268793563 182.0088238100737,104.0654410517059 182.31066735219582,104.56178547961622 182.636835859815,105.05427492272119 183.02940202165752,105.59902089179562 183.404611180053,106.0798541395643 183.84996668365352,106.60898398216648 184.40447351540038,107.21536361433616 184.85087886963606,107.66779644850246 185.61226324689426,108.37752929846872 186.41812096666453,109.05654454688484 187.3660986309829,109.77528321481014 188.25077629843753,110.37875161568125 189.27471085824067,111.00616293951222 190.991908497598,111.9085657378631 193.06177578557933,112.77838911690486 194.65792671075434,113.3037772811402 197.21084692737648,113.90292199010979 199.65691046215758,114.2141352053908 203.21493317055763,114.22947077045228 206.1012488188873,113.90282379130976 207.87610113330126,113.64335559566608 208.7233624434665,113.58734927393056 209.06070043294304,113.60665596119624 209.30581034414942,113.64861421627926 209.47703431830527,113.69827172958576 209.60580772163183,113.75044295999736 209.69851042456392,113.79790867630823 209.77002148809777,113.84131872963881 209.82260202148555,113.87758483437034 209.87933551996028,113.92138892755843 209.943071533374,113.9771431996913 209.98985647040422,114.0230517533221 210.02652764683515,114.06233336394806 210.0538454012399,114.09364986429335 210.0836857091304,114.13001995729186 210.1176986105129,114.17444438136393 210.14302249747297,114.20973484894158 210.18281363543522,114.26934911927687 210.22117720482385,114.33210946553919 210.2624296232848,114.40605721280059 210.2979067567305,114.47562592127274 210.33603783289763,114.55729162309197 210.37870299289466,114.6581930932854 210.40991498362175,114.7391671891202 210.44345392952997,114.83374058723574 210.4948406543132,114.995922177025 210.5710550228981,115.2827543398511 210.63277894270772,115.56539531655692 210.6956468172781,115.91114674073873 211.13167904527214,120.14040756890526 211.81496315391547,126.17405113183273 212.3685314253121,129.559932909797 213.2154492260538,133.60013423913836 214.19023137338763,137.3142458004436 214.89402133135874,139.59912045530268 215.7668900805177,142.09778807509366 216.61745583439273,144.24776242504873 217.17231290827132,145.52214763208445 217.81559950675918,146.8871502481647 218.5947408347738,148.39249989629434 219.2050218625275,149.46627559094742 219.7059592553071,150.28189507303608 220.09183499881067,150.87086638387828 220.52546954911705,151.49258718502125 221.03468635346024,152.1689182998103 221.4237110529459,152.64655194154278 221.8575517016952,153.1390607381756 222.2436859740955,153.5413547084632 222.67219831240564,153.94723720940485 223.051689268877,154.27010168336017 223.28406187193832,154.4503396717805 223.54161521321467,154.6341600092638 223.8397972982259,154.8253893496243 224.06488802616116,154.9538734009558 224.31352110749413,155.07932178368566 224.60022610260708,155.2016095314977 224.81580827922772,155.2770542470011 225.05306232311437,155.34288530585837 225.26169725751728,155.3851513168242 225.49074243653837,155.41378953760938 225.85133037507143,155.41845225017096 226.25663782247068,155.35850535053152 226.55312623972176,155.26535459467598 226.7841849356688,155.16016247324416 226.9551791859961,155.06194444654312 227.14051568544858,154.93394946728313 227.42689789119345,154.68658887042852 227.7401752684971,154.3346882484949 227.96289284577767,154.02148495980515 228.194324571162,153.62686320923976 228.52830873835842,152.8920871681524 228.85388662185363,151.88782288505396 229.05401244372376,151.0225600227896 229.22743230946583,149.9621474443258 229.39591503132226,148.05996729358066 229.4218735359649,145.5881741823435 229.32451334360113,143.5637969487914 228.97596858477627,140.1325272411965 228.4349195524861,136.63879420634186 225.86623090412584,125.45617551616095 225.13193115301252,121.93720234860339 225.13143800655428,121.81555997064257 225.13609155896512,121.72716747183475 225.14275003190104,121.66568518912528 225.1534279834169,121.60314595744468 225.1659108308183,121.55275371841336 225.1831903590808,121.50260853164964 225.20794188885924,121.45219910881893 225.23017882580712,121.41971286903811 225.25030254896845,121.39724097290653 225.26697238705478,121.38236574040793 225.28694909457573,121.36808072983669 225.3060221483919,121.35739825832525 225.32870252028115,121.34779160257857 225.35708811649928,121.33967132977304 225.38011167293143,121.33573493848753 225.4072340284623,121.33365221049746 225.45422746476876,121.33544789290904 225.51416974891876,121.34562459808653 225.5635673653791,121.35923247957608 225.6225213164812,121.38039060500712 225.67860478070062,121.40459767851493 225.74507993143538,121.4375262707165 225.86112903372816,121.50379639158682 225.97387723965278,121.57651453949325 226.1100063175156,121.67262532891723 226.35292820582632,121.86059293384423 226.8056254380331,122.24684957416098 230.50067383880275,125.81731852750454 235.46706925058626,130.44413852819815 238.1552725228919,132.71481436673292 241.27226187167253,135.09689203245614 244.04784934646327,136.95205700510837 246.20944756350818,138.18521139669062 247.7727786579218,138.9334320389358 248.96358640968577,139.40256124416862 249.82058491455797,139.6738317664307 250.71781163446272,139.88423410647545 251.67792629787343,140.00244090927038 252.33989380410787,139.99792027627092 252.82705392533813,139.93366012694207 253.1687424460555,139.84800981135885 253.51844142511735,139.71486617929867 253.88320760833406,139.50915260096164 254.12854474776915,139.316148549753 254.36789400530262,139.06408782547555 254.55017039986953,138.80668995325098 254.675352857525,138.5767522386266 254.75742522842526,138.3882313747168 254.8351809247476,138.16447373214106 254.89213455966316,137.9529066193024 254.9416670402575,137.70381048829455 254.9806161923013,137.3956562327801 254.9964952640363,137.14851063205674 255,136.86043813083546 254.9849853520238,136.50778206224157 254.95963526835513,136.22750321271874 254.91709009626825,135.90331124017266 254.86637209370164,135.60392843808015 254.79556824922906,135.25900414258004 254.64968744434773,134.67899772066966 254.43022779026919,133.96740747647215 254.22773632042274,133.40175319688458 253.96626243225816,132.748395660346 253.70162750239027,132.1466901373903 253.37216222119218,131.45625672356408 252.76642282260082,130.3041305891532 252.15190753005479,129.24268822896295 251.3883915235651,128.02876237656028 250.39953279137964,126.58153990348441 249.58121572917673,125.46472970546625 248.60853378790398,124.21225390169026 246.92397453796906,122.19609854959535 244.81724679028616,119.88794215045465 243.14314955416546,118.18901638196519 241.23978915115092,116.37896508247928 238.17800616889258,113.69784404013573 231.82128729029634,108.84381293725113 228.6963996674565,106.63279521524588 227.93503320018246,106.04731333287702 227.5471953257811,105.71824693868203 227.3393784282063,105.52533353245154 227.189089487703,105.37431775937937 227.08501121348579,105.26164989039077 226.9796217341413,105.13813311503355 226.8951345931868,105.02958586471948 226.83350595211468,104.9429311075439 226.7904580902433,104.87734654605751 226.74644481274564,104.80457248573106 226.71074166948222,104.73991128283824 226.68437622149858,104.68785494637376 226.66574618845024,104.64822079317123 226.64646088896927,104.60402663254693 226.63058696264213,104.56458872040346 226.6143705877797,104.52057943306048 226.59742882851478,104.46913965293489 226.58596523567306,104.42988832964451 226.5701136450511,104.3664229584974 226.55757326746166,104.3029616980871 226.5474402386497,104.23194280448678 226.54182312452602,104.16829735328014 226.53935822574172,104.0969262655627 226.5437932821313,103.98076708122989 226.56198695040894,103.84329556645298 226.58513910155372,103.73688743599666 226.63913702554584,103.56149923362632 226.7129501875264,103.38125818576786 226.8179962661531,103.17278313757632 227.03546430443504,102.81658979365292 228.18976915031487,101.3107246233474 230.43455080944324,98.24827398838724 232.17357148155324,95.042793372967 232.65148605489273,93.90521101655116 " stroke="orange" stroke-width="2" fill="none"/>
</svg>