<?xml version="1.0" encoding="UTF-8"?>
<!DOCTYPE svg PUBLIC "-//W3C//DTD SVG 1.1//EN"
    "http://www.w3.org/Graphics/SVG/1.1/DTD/svg11.dtd">
<svg xmlns="http://www.w3.org/2000/svg" style="background : #444;" height="290.64665921184576" width="300.0" xmlns:xlink="http://www.w3.org/1999/xlink" version="1.11.1">
  <line x2="159.35102915196367" y1="236.05851272032447" stroke="orange" stroke-width="2" fill="none" y2="165.21964537920235" x1="159.35102915196367"/>
  <line x2="134.55742558257094" y1="165.21964537920235" stroke="orange" stroke-width="2" fill="none" y2="122.27586429429303" x1="159.35102915196367"/>
  <line x2="189.4054152330527" y1="165.21964537920235" stroke="orange" stroke-width="2" fill="none" y2="135.1652592981133" x1="159.35102915196367"/>
  <line x2="104.49677882313443" y1="122.27586429429303" stroke="orange" stroke-width="2" fill="none" y2="104.92034179571812" x1="134.55742558257094"/>
  <line x2="142.25789374314775" y1="122.27586429429303" stroke="orange" stroke-width="2" fill="none" y2="93.53732587695393" x1="134.55742558257094"/>
  <line x2="197.10588339362954" y1="135.1652592981133" stroke="orange" stroke-width="2" fill="none" y2="106.42672088077418" x1="189.4054152330527"/>
  <line x2="214.90740747585667" y1="135.1652592981133" stroke="orange" stroke-width="2" fill="none" y2="135.16525929811334" x1="189.4054152330527"/>
  <line x2="80.19904732512956" y1="104.92034179571812" stroke="orange" stroke-width="2" fill="none" y2="104.92034179571812" x1="104.49677882313443"/>
  <line x2="99.10645111073069" y1="104.92034179571812" stroke="orange" stroke-width="2" fill="none" y2="84.80336490358073" x1="104.49677882313443"/>
  <line x2="136.867566030744" y1="93.53732587695393" stroke="orange" stroke-width="2" fill="none" y2="73.4203489848165" x1="142.25789374314775"/>
  <line x2="157.71765493371512" y1="93.53732587695393" stroke="orange" stroke-width="2" fill="none" y2="84.61162859197253" x1="142.25789374314775"/>
  <line x2="191.7155556812258" y1="106.42672088077418" stroke="orange" stroke-width="2" fill="none" y2="86.30974398863678" x1="197.10588339362954"/>
  <line x2="212.5656445841969" y1="106.42672088077418" stroke="orange" stroke-width="2" fill="none" y2="97.50102359579283" x1="197.10588339362954"/>
  <line x2="230.367168666424" y1="135.16525929811334" stroke="orange" stroke-width="2" fill="none" y2="126.23956201313196" x1="214.90740747585667"/>
  <line x2="225.7269864650487" y1="135.16525929811334" stroke="orange" stroke-width="2" fill="none" y2="145.9848382873054" x1="214.90740747585667"/>
  <line x2="65.46933041300565" y1="104.92034179571812" stroke="orange" stroke-width="2" fill="none" y2="113.42454782001981" x1="80.19904732512956"/>
  <line x2="69.89039289931604" y1="104.92034179571812" stroke="orange" stroke-width="2" fill="none" y2="94.61168736990456" x1="80.19904732512956"/>
  <line x2="88.79779668491713" y1="84.80336490358073" stroke="orange" stroke-width="2" fill="none" y2="74.49471047776716" x1="99.10645111073069"/>
  <line x2="105.35443921021766" y1="84.80336490358073" stroke="orange" stroke-width="2" fill="none" y2="73.98153207018358" x1="99.10645111073069"/>
  <line x2="126.55891160493049" y1="73.4203489848165" stroke="orange" stroke-width="2" fill="none" y2="63.11169455900299" x1="136.867566030744"/>
  <line x2="143.11555413023098" y1="73.4203489848165" stroke="orange" stroke-width="2" fill="none" y2="62.5985161514194" x1="136.867566030744"/>
  <line x2="163.9656430332021" y1="84.61162859197253" stroke="orange" stroke-width="2" fill="none" y2="73.7897957585754" x1="157.71765493371512"/>
  <line x2="168.0635287639572" y1="84.61162859197253" stroke="orange" stroke-width="2" fill="none" y2="87.3837971297802" x1="157.71765493371512"/>
  <line x2="181.40690125541224" y1="86.30974398863678" stroke="orange" stroke-width="2" fill="none" y2="76.00108956282324" x1="191.7155556812258"/>
  <line x2="197.96354378071277" y1="86.30974398863678" stroke="orange" stroke-width="2" fill="none" y2="75.48791115523969" x1="191.7155556812258"/>
  <line x2="218.81363268368386" y1="97.50102359579283" stroke="orange" stroke-width="2" fill="none" y2="86.67919076239568" x1="212.5656445841969"/>
  <line x2="222.91151841443894" y1="97.50102359579283" stroke="orange" stroke-width="2" fill="none" y2="100.27319213360047" x1="212.5656445841969"/>
  <line x2="236.615156765911" y1="126.23956201313196" stroke="orange" stroke-width="2" fill="none" y2="115.4177291797348" x1="230.367168666424"/>
  <line x2="240.7130424966661" y1="126.23956201313196" stroke="orange" stroke-width="2" fill="none" y2="129.01173055093963" x1="230.367168666424"/>
  <line x2="236.07286029529078" y1="145.9848382873054" stroke="orange" stroke-width="2" fill="none" y2="148.75700682511305" x1="225.7269864650487"/>
  <line x2="225.7269864650487" y1="145.9848382873054" stroke="orange" stroke-width="2" fill="none" y2="155.16555549471482" x1="225.7269864650487"/>
  <line x2="59.51638619599444" y1="113.42454782001981" stroke="orange" stroke-width="2" fill="none" y2="123.73534965850654" x1="65.46933041300565"/>
  <line x2="55.61201173585833" y1="113.42454782001981" stroke="orange" stroke-width="2" fill="none" y2="110.78328724094195" x1="65.46933041300565"/>
  <line x2="60.0330742221687" y1="94.61168736990456" stroke="orange" stroke-width="2" fill="none" y2="91.97042679082674" x1="69.89039289931604"/>
  <line x2="69.89039289931604" y1="94.61168736990456" stroke="orange" stroke-width="2" fill="none" y2="85.86450403062278" x1="69.89039289931604"/>
  <line x2="78.94047800776984" y1="74.49471047776716" stroke="orange" stroke-width="2" fill="none" y2="71.85344989868933" x1="88.79779668491713"/>
  <line x2="88.79779668491716" y1="74.49471047776716" stroke="orange" stroke-width="2" fill="none" y2="65.74752713848541" x1="88.79779668491713"/>
  <line x2="105.35443921021766" y1="73.98153207018358" stroke="orange" stroke-width="2" fill="none" y2="65.23434873090183" x1="105.35443921021766"/>
  <line x2="112.59655089138712" y1="73.98153207018358" stroke="orange" stroke-width="2" fill="none" y2="72.04101409371825" x1="105.35443921021766"/>
  <line x2="116.70159292778315" y1="63.11169455900299" stroke="orange" stroke-width="2" fill="none" y2="60.47043397992513" x1="126.55891160493049"/>
  <line x2="126.5589116049305" y1="63.11169455900299" stroke="orange" stroke-width="2" fill="none" y2="54.364511219721244" x1="126.55891160493049"/>
  <line x2="143.115554130231" y1="62.5985161514194" stroke="orange" stroke-width="2" fill="none" y2="53.8513328121376" x1="143.11555413023098"/>
  <line x2="150.35766581140044" y1="62.5985161514194" stroke="orange" stroke-width="2" fill="none" y2="60.65799817495402" x1="143.11555413023098"/>
  <line x2="163.9656430332021" y1="73.7897957585754" stroke="orange" stroke-width="2" fill="none" y2="65.04261241929362" x1="163.9656430332021"/>
  <line x2="171.20775471437156" y1="73.7897957585754" stroke="orange" stroke-width="2" fill="none" y2="71.84927778211002" x1="163.9656430332021"/>
  <line x2="175.30564044512667" y1="87.3837971297802" stroke="orange" stroke-width="2" fill="none" y2="85.44327915331485" x1="168.0635287639572"/>
  <line x2="171.2767797865505" y1="87.3837971297802" stroke="orange" stroke-width="2" fill="none" y2="92.94931115838443" x1="168.0635287639572"/>
  <line x2="171.5495825782649" y1="76.00108956282324" stroke="orange" stroke-width="2" fill="none" y2="73.35982898374542" x1="181.40690125541224"/>
  <line x2="181.40690125541227" y1="76.00108956282324" stroke="orange" stroke-width="2" fill="none" y2="67.25390622354153" x1="181.40690125541224"/>
  <line x2="197.96354378071277" y1="75.48791115523969" stroke="orange" stroke-width="2" fill="none" y2="66.74072781595788" x1="197.96354378071277"/>
  <line x2="205.20565546188223" y1="75.48791115523969" stroke="orange" stroke-width="2" fill="none" y2="73.5473931787743" x1="197.96354378071277"/>
  <line x2="218.81363268368386" y1="86.67919076239568" stroke="orange" stroke-width="2" fill="none" y2="77.9320074231139" x1="218.81363268368386"/>
  <line x2="226.0557443648533" y1="86.67919076239568" stroke="orange" stroke-width="2" fill="none" y2="84.73867278593032" x1="218.81363268368386"/>
  <line x2="230.1536300956084" y1="100.27319213360047" stroke="orange" stroke-width="2" fill="none" y2="98.33267415713512" x1="222.91151841443894"/>
  <line x2="226.12476943703226" y1="100.27319213360047" stroke="orange" stroke-width="2" fill="none" y2="105.83870616220473" x1="222.91151841443894"/>
  <line x2="236.615156765911" y1="115.4177291797348" stroke="orange" stroke-width="2" fill="none" y2="106.67054584045306" x1="236.615156765911"/>
  <line x2="243.85726844708043" y1="115.4177291797348" stroke="orange" stroke-width="2" fill="none" y2="113.47721120326948" x1="236.615156765911"/>
  <line x2="247.95515417783557" y1="129.01173055093963" stroke="orange" stroke-width="2" fill="none" y2="127.07121257447426" x1="240.7130424966661"/>
  <line x2="243.9262935192594" y1="129.01173055093963" stroke="orange" stroke-width="2" fill="none" y2="134.57724457954384" x1="240.7130424966661"/>
  <line x2="243.31497197646027" y1="148.75700682511305" stroke="orange" stroke-width="2" fill="none" y2="146.8164888486477" x1="236.07286029529078"/>
  <line x2="239.28611131788406" y1="148.75700682511305" stroke="orange" stroke-width="2" fill="none" y2="154.3225208537173" x1="236.07286029529078"/>
  <line x2="228.940237487642" y1="155.16555549471482" stroke="orange" stroke-width="2" fill="none" y2="160.73106952331904" x1="225.7269864650487"/>
  <line x2="221.83193802893956" y1="155.16555549471482" stroke="orange" stroke-width="2" fill="none" y2="159.06060393082396" x1="225.7269864650487"/>
  <line x2="59.51638619599444" y1="123.73534965850654" stroke="orange" stroke-width="2" fill="none" y2="132.0694715623222" x1="59.51638619599444"/>
  <line x2="52.61626312199131" y1="123.73534965850654" stroke="orange" stroke-width="2" fill="none" y2="125.58423206386101" x1="59.51638619599444"/>
  <line x2="48.71188866185521" y1="110.78328724094195" stroke="orange" stroke-width="2" fill="none" y2="112.63216964629646" x1="55.61201173585833"/>
  <line x2="52.55049756710974" y1="110.78328724094195" stroke="orange" stroke-width="2" fill="none" y2="105.48058915257732" x1="55.61201173585833"/>
  <line x2="53.132951148165596" y1="91.97042679082674" stroke="orange" stroke-width="2" fill="none" y2="93.8193091961812" x1="60.0330742221687"/>
  <line x2="56.97156005342012" y1="91.97042679082674" stroke="orange" stroke-width="2" fill="none" y2="86.66772870246211" x1="60.0330742221687"/>
  <line x2="66.82887873056742" y1="85.86450403062278" stroke="orange" stroke-width="2" fill="none" y2="80.56180594225822" x1="69.89039289931604"/>
  <line x2="73.60150849260893" y1="85.86450403062278" stroke="orange" stroke-width="2" fill="none" y2="82.15338843732994" x1="69.89039289931604"/>
  <line x2="72.04035493376671" y1="71.85344989868933" stroke="orange" stroke-width="2" fill="none" y2="73.70233230404384" x1="78.94047800776984"/>
  <line x2="75.87896383902124" y1="71.85344989868933" stroke="orange" stroke-width="2" fill="none" y2="66.55075181032475" x1="78.94047800776984"/>
  <line x2="85.73628251616856" y1="65.74752713848541" stroke="orange" stroke-width="2" fill="none" y2="60.4448290501208" x1="88.79779668491716"/>
  <line x2="92.50891227821002" y1="65.74752713848541" stroke="orange" stroke-width="2" fill="none" y2="62.03641154519255" x1="88.79779668491716"/>
  <line x2="102.29292504146903" y1="65.23434873090183" stroke="orange" stroke-width="2" fill="none" y2="59.931650642537214" x1="105.35443921021766"/>
  <line x2="109.06555480351052" y1="65.23434873090183" stroke="orange" stroke-width="2" fill="none" y2="61.52323313760897" x1="105.35443921021766"/>
  <line x2="116.30766648467998" y1="72.04101409371825" stroke="orange" stroke-width="2" fill="none" y2="68.32989850042536" x1="112.59655089138712"/>
  <line x2="116.49241071141007" y1="72.04101409371825" stroke="orange" stroke-width="2" fill="none" y2="74.29028980953356" x1="112.59655089138712"/>
  <line x2="109.80146985378003" y1="60.47043397992513" stroke="orange" stroke-width="2" fill="none" y2="62.319316385279635" x1="116.70159292778315"/>
  <line x2="113.64007875903457" y1="60.47043397992513" stroke="orange" stroke-width="2" fill="none" y2="55.16773589156052" x1="116.70159292778315"/>
  <line x2="123.49739743618187" y1="54.364511219721244" stroke="orange" stroke-width="2" fill="none" y2="49.06181313135663" x1="126.5589116049305"/>
  <line x2="130.27002719822337" y1="54.364511219721244" stroke="orange" stroke-width="2" fill="none" y2="50.65339562642832" x1="126.5589116049305"/>
  <line x2="140.05403996148237" y1="53.8513328121376" stroke="orange" stroke-width="2" fill="none" y2="48.54863472377301" x1="143.115554130231"/>
  <line x2="146.82666972352388" y1="53.8513328121376" stroke="orange" stroke-width="2" fill="none" y2="50.14021721884473" x1="143.115554130231"/>
  <line x2="154.0687814046933" y1="60.65799817495402" stroke="orange" stroke-width="2" fill="none" y2="56.94688258166115" x1="150.35766581140044"/>
  <line x2="154.25352563142343" y1="60.65799817495402" stroke="orange" stroke-width="2" fill="none" y2="62.907273890769325" x1="150.35766581140044"/>
  <line x2="160.9041288644535" y1="65.04261241929362" stroke="orange" stroke-width="2" fill="none" y2="59.73991433092906" x1="163.9656430332021"/>
  <line x2="167.67675862649497" y1="65.04261241929362" stroke="orange" stroke-width="2" fill="none" y2="61.33149682600078" x1="163.9656430332021"/>
  <line x2="174.91887030766443" y1="71.84927778211002" stroke="orange" stroke-width="2" fill="none" y2="68.13816218881716" x1="171.20775471437156"/>
  <line x2="175.10361453439452" y1="71.84927778211002" stroke="orange" stroke-width="2" fill="none" y2="74.09855349792534" x1="171.20775471437156"/>
  <line x2="179.01675603841954" y1="85.44327915331485" stroke="orange" stroke-width="2" fill="none" y2="81.73216356002199" x1="175.30564044512667"/>
  <line x2="179.20150026514963" y1="85.44327915331485" stroke="orange" stroke-width="2" fill="none" y2="87.69255486913016" x1="175.30564044512667"/>
  <line x2="175.17263960657345" y1="92.94931115838443" stroke="orange" stroke-width="2" fill="none" y2="95.19858687419975" x1="171.2767797865505"/>
  <line x2="170.27879911293974" y1="92.94931115838443" stroke="orange" stroke-width="2" fill="none" y2="96.67382573727159" x1="171.2767797865505"/>
  <line x2="164.6494595042618" y1="73.35982898374542" stroke="orange" stroke-width="2" fill="none" y2="75.20871138909989" x1="171.5495825782649"/>
  <line x2="168.48806840951633" y1="73.35982898374542" stroke="orange" stroke-width="2" fill="none" y2="68.05713089538081" x1="171.5495825782649"/>
  <line x2="178.34538708666364" y1="67.25390622354153" stroke="orange" stroke-width="2" fill="none" y2="61.95120813517692" x1="181.40690125541227"/>
  <line x2="185.11801684870514" y1="67.25390622354153" stroke="orange" stroke-width="2" fill="none" y2="63.542790630248604" x1="181.40690125541227"/>
  <line x2="194.90202961196414" y1="66.74072781595788" stroke="orange" stroke-width="2" fill="none" y2="61.4380297275933" x1="197.96354378071277"/>
  <line x2="201.67465937400564" y1="66.74072781595788" stroke="orange" stroke-width="2" fill="none" y2="63.02961222266502" x1="197.96354378071277"/>
  <line x2="208.91677105517508" y1="73.5473931787743" stroke="orange" stroke-width="2" fill="none" y2="69.83627758548144" x1="205.20565546188223"/>
  <line x2="209.10151528190517" y1="73.5473931787743" stroke="orange" stroke-width="2" fill="none" y2="75.79666889458962" x1="205.20565546188223"/>
  <line x2="215.75211851493526" y1="77.9320074231139" stroke="orange" stroke-width="2" fill="none" y2="72.62930933474931" x1="218.81363268368386"/>
  <line x2="222.52474827697674" y1="77.9320074231139" stroke="orange" stroke-width="2" fill="none" y2="74.2208918298211" x1="218.81363268368386"/>
  <line x2="229.76685995814623" y1="84.73867278593032" stroke="orange" stroke-width="2" fill="none" y2="81.02755719263746" x1="226.0557443648533"/>
  <line x2="229.95160418487632" y1="84.73867278593032" stroke="orange" stroke-width="2" fill="none" y2="86.98794850174562" x1="226.0557443648533"/>
  <line x2="233.8647456889013" y1="98.33267415713512" stroke="orange" stroke-width="2" fill="none" y2="94.62155856384224" x1="230.1536300956084"/>
  <line x2="234.0494899156314" y1="98.33267415713512" stroke="orange" stroke-width="2" fill="none" y2="100.58194987295043" x1="230.1536300956084"/>
  <line x2="230.02062925705525" y1="105.83870616220473" stroke="orange" stroke-width="2" fill="none" y2="108.08798187802003" x1="226.12476943703226"/>
  <line x2="225.1267887634215" y1="105.83870616220473" stroke="orange" stroke-width="2" fill="none" y2="109.56322074109188" x1="226.12476943703226"/>
  <line x2="233.5536425971624" y1="106.67054584045306" stroke="orange" stroke-width="2" fill="none" y2="101.36784775208847" x1="236.615156765911"/>
  <line x2="240.32627235920387" y1="106.67054584045306" stroke="orange" stroke-width="2" fill="none" y2="102.9594302471602" x1="236.615156765911"/>
  <line x2="247.56838404037333" y1="113.47721120326948" stroke="orange" stroke-width="2" fill="none" y2="109.76609560997659" x1="243.85726844708043"/>
  <line x2="247.75312826710342" y1="113.47721120326948" stroke="orange" stroke-width="2" fill="none" y2="115.72648691908479" x1="243.85726844708043"/>
  <line x2="251.66626977112844" y1="127.07121257447426" stroke="orange" stroke-width="2" fill="none" y2="123.36009698118139" x1="247.95515417783557"/>
  <line x2="251.85101399785853" y1="127.07121257447426" stroke="orange" stroke-width="2" fill="none" y2="129.32048829028957" x1="247.95515417783557"/>
  <line x2="247.82215333928235" y1="134.57724457954384" stroke="orange" stroke-width="2" fill="none" y2="136.82652029535916" x1="243.9262935192594"/>
  <line x2="242.9283128456486" y1="134.57724457954384" stroke="orange" stroke-width="2" fill="none" y2="138.30175915843103" x1="243.9262935192594"/>
  <line x2="247.02608756975314" y1="146.8164888486477" stroke="orange" stroke-width="2" fill="none" y2="143.10537325535483" x1="243.31497197646027"/>
  <line x2="247.2108317964832" y1="146.8164888486477" stroke="orange" stroke-width="2" fill="none" y2="149.065764564463" x1="243.31497197646027"/>
  <line x2="243.18197113790706" y1="154.3225208537173" stroke="orange" stroke-width="2" fill="none" y2="156.5717965695326" x1="239.28611131788406"/>
  <line x2="238.2881306442733" y1="154.3225208537173" stroke="orange" stroke-width="2" fill="none" y2="158.04703543260445" x1="239.28611131788406"/>
  <line x2="232.83609730766494" y1="160.73106952331904" stroke="orange" stroke-width="2" fill="none" y2="162.98034523913438" x1="228.940237487642"/>
  <line x2="227.94225681403125" y1="160.73106952331904" stroke="orange" stroke-width="2" fill="none" y2="164.45558410220622" x1="228.940237487642"/>
  <line x2="220.8339573553288" y1="159.06060393082396" stroke="orange" stroke-width="2" fill="none" y2="162.78511850971108" x1="221.83193802893956"/>
  <line x2="218.52687983427217" y1="159.06060393082396" stroke="orange" stroke-width="2" fill="none" y2="159.06060393082396" x1="221.83193802893956"/>
  <line x2="62.43332886232993" y1="132.0694715623222" stroke="orange" stroke-width="2" fill="none" y2="137.12176446318068" x1="59.51638619599444"/>
  <line x2="55.980517727940395" y1="132.0694715623222" stroke="orange" stroke-width="2" fill="none" y2="135.60534003037623" x1="59.51638619599444"/>
  <line x2="49.08039465393729" y1="125.58423206386101" stroke="orange" stroke-width="2" fill="none" y2="129.12010053191506" x1="52.61626312199131"/>
  <line x2="48.9043744601361" y1="125.58423206386101" stroke="orange" stroke-width="2" fill="none" y2="123.44117214573696" x1="52.61626312199131"/>
  <line x2="45.176020193801165" y1="112.63216964629646" stroke="orange" stroke-width="2" fill="none" y2="116.16803811435047" x1="48.71188866185521"/>
  <line x2="45" y1="112.63216964629646" stroke="orange" stroke-width="2" fill="none" y2="110.48910972817241" x1="48.71188866185521"/>
  <line x2="48.83860890525452" y1="105.48058915257732" stroke="orange" stroke-width="2" fill="none" y2="103.33752923445331" x1="52.55049756710974"/>
  <line x2="53.50135137557777" y1="105.48058915257732" stroke="orange" stroke-width="2" fill="none" y2="101.93195442880432" x1="52.55049756710974"/>
  <line x2="49.59708268011154" y1="93.8193091961812" stroke="orange" stroke-width="2" fill="none" y2="97.35517766423524" x1="53.132951148165596"/>
  <line x2="49.42106248631037" y1="93.8193091961812" stroke="orange" stroke-width="2" fill="none" y2="91.67624927805718" x1="53.132951148165596"/>
  <line x2="53.259671391564886" y1="86.66772870246211" stroke="orange" stroke-width="2" fill="none" y2="84.52466878433806" x1="56.97156005342012"/>
  <line x2="57.922413861888124" y1="86.66772870246211" stroke="orange" stroke-width="2" fill="none" y2="83.11909397868911" x1="56.97156005342012"/>
  <line x2="63.1169900687122" y1="80.56180594225822" stroke="orange" stroke-width="2" fill="none" y2="78.41874602413418" x1="66.82887873056742"/>
  <line x2="67.77973253903545" y1="80.56180594225822" stroke="orange" stroke-width="2" fill="none" y2="77.01317121848518" x1="66.82887873056742"/>
  <line x2="74.55236230107693" y1="82.15338843732994" stroke="orange" stroke-width="2" fill="none" y2="78.6047537135569" x1="73.60150849260893"/>
  <line x2="76.75049449475036" y1="82.15338843732994" stroke="orange" stroke-width="2" fill="none" y2="82.15338843732998" x1="73.60150849260893"/>
  <line x2="68.50448646571269" y1="73.70233230404384" stroke="orange" stroke-width="2" fill="none" y2="77.23820077209785" x1="72.04035493376671"/>
  <line x2="68.32846627191151" y1="73.70233230404384" stroke="orange" stroke-width="2" fill="none" y2="71.55927238591978" x1="72.04035493376671"/>
  <line x2="72.16707517716601" y1="66.55075181032475" stroke="orange" stroke-width="2" fill="none" y2="64.4076918922007" x1="75.87896383902124"/>
  <line x2="76.82981764748924" y1="66.55075181032475" stroke="orange" stroke-width="2" fill="none" y2="63.00211708655168" x1="75.87896383902124"/>
  <line x2="82.02439385431333" y1="60.4448290501208" stroke="orange" stroke-width="2" fill="none" y2="58.30176913199678" x1="85.73628251616856"/>
  <line x2="86.68713632463658" y1="60.4448290501208" stroke="orange" stroke-width="2" fill="none" y2="56.89619432634778" x1="85.73628251616856"/>
  <line x2="93.45976608667806" y1="62.03641154519255" stroke="orange" stroke-width="2" fill="none" y2="58.48777682141954" x1="92.50891227821002"/>
  <line x2="95.65789828035145" y1="62.03641154519255" stroke="orange" stroke-width="2" fill="none" y2="62.03641154519255" x1="92.50891227821002"/>
  <line x2="98.58103637961383" y1="59.931650642537214" stroke="orange" stroke-width="2" fill="none" y2="57.7885907244132" x1="102.29292504146903"/>
  <line x2="103.24377884993709" y1="59.931650642537214" stroke="orange" stroke-width="2" fill="none" y2="56.3830159187642" x1="102.29292504146903"/>
  <line x2="110.01640861197856" y1="61.52323313760897" stroke="orange" stroke-width="2" fill="none" y2="57.97459841383592" x1="109.06555480351052"/>
  <line x2="112.21454080565196" y1="61.52323313760897" stroke="orange" stroke-width="2" fill="none" y2="61.52323313760897" x1="109.06555480351052"/>
  <line x2="117.25852029314802" y1="68.32989850042536" stroke="orange" stroke-width="2" fill="none" y2="64.78126377665231" x1="116.30766648467998"/>
  <line x2="119.45665248682144" y1="68.32989850042536" stroke="orange" stroke-width="2" fill="none" y2="68.32989850042539" x1="116.30766648467998"/>
  <line x2="119.64139671355152" y1="74.29028980953356" stroke="orange" stroke-width="2" fill="none" y2="74.29028980953356" x1="116.49241071141007"/>
  <line x2="117.19099718293761" y1="74.29028980953356" stroke="orange" stroke-width="2" fill="none" y2="76.89745001475458" x1="116.49241071141007"/>
  <line x2="106.26560138572597" y1="62.319316385279635" stroke="orange" stroke-width="2" fill="none" y2="65.85518485333363" x1="109.80146985378003"/>
  <line x2="106.08958119192482" y1="62.319316385279635" stroke="orange" stroke-width="2" fill="none" y2="60.17625646715558" x1="109.80146985378003"/>
  <line x2="109.92819009717932" y1="55.16773589156052" stroke="orange" stroke-width="2" fill="none" y2="53.024675973436494" x1="113.64007875903457"/>
  <line x2="114.59093256750258" y1="55.16773589156052" stroke="orange" stroke-width="2" fill="none" y2="51.61910116778747" x1="113.64007875903457"/>
  <line x2="119.78550877432666" y1="49.06181313135663" stroke="orange" stroke-width="2" fill="none" y2="46.91875321323258" x1="123.49739743618187"/>
  <line x2="124.44825124464991" y1="49.06181313135663" stroke="orange" stroke-width="2" fill="none" y2="45.51317840758358" x1="123.49739743618187"/>
  <line x2="131.2208810066914" y1="50.65339562642832" stroke="orange" stroke-width="2" fill="none" y2="47.10476090265531" x1="130.27002719822337"/>
  <line x2="133.4190132003648" y1="50.65339562642832" stroke="orange" stroke-width="2" fill="none" y2="50.65339562642832" x1="130.27002719822337"/>
  <line x2="136.34215129962718" y1="48.54863472377301" stroke="orange" stroke-width="2" fill="none" y2="46.405574805648996" x1="140.05403996148237"/>
  <line x2="141.00489376995043" y1="48.54863472377301" stroke="orange" stroke-width="2" fill="none" y2="45" x1="140.05403996148237"/>
  <line x2="147.7775235319919" y1="50.14021721884473" stroke="orange" stroke-width="2" fill="none" y2="46.59158249507172" x1="146.82666972352388"/>
  <line x2="149.97565572566532" y1="50.14021721884473" stroke="orange" stroke-width="2" fill="none" y2="50.14021721884473" x1="146.82666972352388"/>
  <line x2="155.01963521316137" y1="56.94688258166115" stroke="orange" stroke-width="2" fill="none" y2="53.39824785788811" x1="154.0687814046933"/>
  <line x2="157.21776740683475" y1="56.94688258166115" stroke="orange" stroke-width="2" fill="none" y2="56.94688258166115" x1="154.0687814046933"/>
  <line x2="157.40251163356484" y1="62.907273890769325" stroke="orange" stroke-width="2" fill="none" y2="62.907273890769325" x1="154.25352563142343"/>
  <line x2="154.95211210295093" y1="62.907273890769325" stroke="orange" stroke-width="2" fill="none" y2="65.51443409599034" x1="154.25352563142343"/>
  <line x2="157.19224020259827" y1="59.73991433092906" stroke="orange" stroke-width="2" fill="none" y2="57.59685441280504" x1="160.9041288644535"/>
  <line x2="161.8549826729215" y1="59.73991433092906" stroke="orange" stroke-width="2" fill="none" y2="56.191279607155984" x1="160.9041288644535"/>
  <line x2="168.627612434963" y1="61.33149682600078" stroke="orange" stroke-width="2" fill="none" y2="57.7828621022277" x1="167.67675862649497"/>
  <line x2="170.82574462863641" y1="61.33149682600078" stroke="orange" stroke-width="2" fill="none" y2="61.33149682600078" x1="167.67675862649497"/>
  <line x2="175.86972411613246" y1="68.13816218881716" stroke="orange" stroke-width="2" fill="none" y2="64.58952746504416" x1="174.91887030766443"/>
  <line x2="178.06785630980588" y1="68.13816218881716" stroke="orange" stroke-width="2" fill="none" y2="68.13816218881716" x1="174.91887030766443"/>
  <line x2="178.25260053653594" y1="74.09855349792534" stroke="orange" stroke-width="2" fill="none" y2="74.09855349792537" x1="175.10361453439452"/>
  <line x2="175.80220100592206" y1="74.09855349792534" stroke="orange" stroke-width="2" fill="none" y2="76.70571370314636" x1="175.10361453439452"/>
  <line x2="179.9676098468876" y1="81.73216356002199" stroke="orange" stroke-width="2" fill="none" y2="78.18352883624894" x1="179.01675603841954"/>
  <line x2="182.16574204056096" y1="81.73216356002199" stroke="orange" stroke-width="2" fill="none" y2="81.73216356002199" x1="179.01675603841954"/>
  <line x2="182.35048626729105" y1="87.69255486913016" stroke="orange" stroke-width="2" fill="none" y2="87.69255486913016" x1="179.20150026514963"/>
  <line x2="179.90008673667714" y1="87.69255486913016" stroke="orange" stroke-width="2" fill="none" y2="90.29971507435118" x1="179.20150026514963"/>
  <line x2="178.3216256087149" y1="95.19858687419975" stroke="orange" stroke-width="2" fill="none" y2="95.19858687419978" x1="175.17263960657345"/>
  <line x2="175.871226078101" y1="95.19858687419975" stroke="orange" stroke-width="2" fill="none" y2="97.80574707942075" x1="175.17263960657345"/>
  <line x2="170.97738558446724" y1="96.67382573727159" stroke="orange" stroke-width="2" fill="none" y2="99.28098594249258" x1="170.27879911293974"/>
  <line x2="168.2752140626422" y1="96.67382573727159" stroke="orange" stroke-width="2" fill="none" y2="97.83059610540516" x1="170.27879911293974"/>
  <line x2="161.11359103620777" y1="75.20871138909989" stroke="orange" stroke-width="2" fill="none" y2="78.74457985715391" x1="164.6494595042618"/>
  <line x2="160.9375708424066" y1="75.20871138909989" stroke="orange" stroke-width="2" fill="none" y2="73.06565147097584" x1="164.6494595042618"/>
  <line x2="164.7761797476611" y1="68.05713089538081" stroke="orange" stroke-width="2" fill="none" y2="65.91407097725678" x1="168.48806840951633"/>
  <line x2="169.43892221798433" y1="68.05713089538081" stroke="orange" stroke-width="2" fill="none" y2="64.50849617160773" x1="168.48806840951633"/>
  <line x2="174.63349842480844" y1="61.95120813517692" stroke="orange" stroke-width="2" fill="none" y2="59.808148217052896" x1="178.34538708666364"/>
  <line x2="179.2962408951317" y1="61.95120813517692" stroke="orange" stroke-width="2" fill="none" y2="58.40257341140387" x1="178.34538708666364"/>
  <line x2="186.06887065717314" y1="63.542790630248604" stroke="orange" stroke-width="2" fill="none" y2="59.9941559064756" x1="185.11801684870514"/>
  <line x2="188.26700285084655" y1="63.542790630248604" stroke="orange" stroke-width="2" fill="none" y2="63.542790630248675" x1="185.11801684870514"/>
  <line x2="191.1901409501089" y1="61.4380297275933" stroke="orange" stroke-width="2" fill="none" y2="59.29496980946925" x1="194.90202961196414"/>
  <line x2="195.85288342043216" y1="61.4380297275933" stroke="orange" stroke-width="2" fill="none" y2="57.889395003820255" x1="194.90202961196414"/>
  <line x2="202.62551318247367" y1="63.02961222266502" stroke="orange" stroke-width="2" fill="none" y2="59.48097749889201" x1="201.67465937400564"/>
  <line x2="204.82364537614706" y1="63.02961222266502" stroke="orange" stroke-width="2" fill="none" y2="63.02961222266502" x1="201.67465937400564"/>
  <line x2="209.8676248636431" y1="69.83627758548144" stroke="orange" stroke-width="2" fill="none" y2="66.28764286170839" x1="208.91677105517508"/>
  <line x2="212.0657570573165" y1="69.83627758548144" stroke="orange" stroke-width="2" fill="none" y2="69.83627758548144" x1="208.91677105517508"/>
  <line x2="212.2505012840466" y1="75.79666889458962" stroke="orange" stroke-width="2" fill="none" y2="75.79666889458962" x1="209.10151528190517"/>
  <line x2="209.8001017534327" y1="75.79666889458962" stroke="orange" stroke-width="2" fill="none" y2="78.40382909981064" x1="209.10151528190517"/>
  <line x2="212.04022985308" y1="72.62930933474931" stroke="orange" stroke-width="2" fill="none" y2="70.48624941662527" x1="215.75211851493526"/>
  <line x2="216.70297232340332" y1="72.62930933474931" stroke="orange" stroke-width="2" fill="none" y2="69.08067461097627" x1="215.75211851493526"/>
  <line x2="223.4756020854448" y1="74.2208918298211" stroke="orange" stroke-width="2" fill="none" y2="70.67225710604802" x1="222.52474827697674"/>
  <line x2="225.67373427911818" y1="74.2208918298211" stroke="orange" stroke-width="2" fill="none" y2="74.22089182982104" x1="222.52474827697674"/>
  <line x2="230.71771376661422" y1="81.02755719263746" stroke="orange" stroke-width="2" fill="none" y2="77.47892246886444" x1="229.76685995814623"/>
  <line x2="232.91584596028764" y1="81.02755719263746" stroke="orange" stroke-width="2" fill="none" y2="81.02755719263746" x1="229.76685995814623"/>
  <line x2="233.10059018701776" y1="86.98794850174562" stroke="orange" stroke-width="2" fill="none" y2="86.98794850174562" x1="229.95160418487632"/>
  <line x2="230.65019065640385" y1="86.98794850174562" stroke="orange" stroke-width="2" fill="none" y2="89.59510870696664" x1="229.95160418487632"/>
  <line x2="234.81559949736933" y1="94.62155856384224" stroke="orange" stroke-width="2" fill="none" y2="91.07292384006922" x1="233.8647456889013"/>
  <line x2="237.01373169104272" y1="94.62155856384224" stroke="orange" stroke-width="2" fill="none" y2="94.62155856384226" x1="233.8647456889013"/>
  <line x2="237.19847591777284" y1="100.58194987295043" stroke="orange" stroke-width="2" fill="none" y2="100.58194987295043" x1="234.0494899156314"/>
  <line x2="234.74807638715893" y1="100.58194987295043" stroke="orange" stroke-width="2" fill="none" y2="103.18911007817144" x1="234.0494899156314"/>
  <line x2="233.16961525919666" y1="108.08798187802003" stroke="orange" stroke-width="2" fill="none" y2="108.08798187802006" x1="230.02062925705525"/>
  <line x2="230.71921572858275" y1="108.08798187802003" stroke="orange" stroke-width="2" fill="none" y2="110.69514208324105" x1="230.02062925705525"/>
  <line x2="225.82537523494904" y1="109.56322074109188" stroke="orange" stroke-width="2" fill="none" y2="112.17038094631287" x1="225.1267887634215"/>
  <line x2="223.12320371312396" y1="109.56322074109188" stroke="orange" stroke-width="2" fill="none" y2="110.71999110922545" x1="225.1267887634215"/>
  <line x2="229.84175393530717" y1="101.36784775208847" stroke="orange" stroke-width="2" fill="none" y2="99.22478783396443" x1="233.5536425971624"/>
  <line x2="234.50449640563042" y1="101.36784775208847" stroke="orange" stroke-width="2" fill="none" y2="97.81921302831543" x1="233.5536425971624"/>
  <line x2="241.27712616767192" y1="102.9594302471602" stroke="orange" stroke-width="2" fill="none" y2="99.41079552338715" x1="240.32627235920387"/>
  <line x2="243.47525836134534" y1="102.9594302471602" stroke="orange" stroke-width="2" fill="none" y2="102.9594302471602" x1="240.32627235920387"/>
  <line x2="248.51923784884136" y1="109.76609560997659" stroke="orange" stroke-width="2" fill="none" y2="106.21746088620357" x1="247.56838404037333"/>
  <line x2="250.71737004251477" y1="109.76609560997659" stroke="orange" stroke-width="2" fill="none" y2="109.76609560997662" x1="247.56838404037333"/>
  <line x2="250.90211426924483" y1="115.72648691908479" stroke="orange" stroke-width="2" fill="none" y2="115.72648691908479" x1="247.75312826710342"/>
  <line x2="248.45171473863095" y1="115.72648691908479" stroke="orange" stroke-width="2" fill="none" y2="118.33364712430578" x1="247.75312826710342"/>
  <line x2="252.61712357959644" y1="123.36009698118139" stroke="orange" stroke-width="2" fill="none" y2="119.81146225740837" x1="251.66626977112844"/>
  <line x2="254.81525577326983" y1="123.36009698118139" stroke="orange" stroke-width="2" fill="none" y2="123.36009698118144" x1="251.66626977112844"/>
  <line x2="255" y1="129.32048829028957" stroke="orange" stroke-width="2" fill="none" y2="129.32048829028957" x1="251.85101399785853"/>
  <line x2="252.54960046938606" y1="129.32048829028957" stroke="orange" stroke-width="2" fill="none" y2="131.9276484955106" x1="251.85101399785853"/>
  <line x2="250.97113934142382" y1="136.82652029535916" stroke="orange" stroke-width="2" fill="none" y2="136.8265202953592" x1="247.82215333928235"/>
  <line x2="248.5207398108099" y1="136.82652029535916" stroke="orange" stroke-width="2" fill="none" y2="139.43368050058018" x1="247.82215333928235"/>
  <line x2="243.62689931717617" y1="138.30175915843103" stroke="orange" stroke-width="2" fill="none" y2="140.90891936365202" x1="242.9283128456486"/>
  <line x2="240.92472779535112" y1="138.30175915843103" stroke="orange" stroke-width="2" fill="none" y2="139.4585295265646" x1="242.9283128456486"/>
  <line x2="247.97694137822114" y1="143.10537325535483" stroke="orange" stroke-width="2" fill="none" y2="139.5567385315818" x1="247.02608756975314"/>
  <line x2="250.17507357189453" y1="143.10537325535483" stroke="orange" stroke-width="2" fill="none" y2="143.10537325535483" x1="247.02608756975314"/>
  <line x2="250.35981779862468" y1="149.065764564463" stroke="orange" stroke-width="2" fill="none" y2="149.065764564463" x1="247.2108317964832"/>
  <line x2="247.90941826801077" y1="149.065764564463" stroke="orange" stroke-width="2" fill="none" y2="151.67292476968402" x1="247.2108317964832"/>
  <line x2="246.33095714004847" y1="156.5717965695326" stroke="orange" stroke-width="2" fill="none" y2="156.5717965695326" x1="243.18197113790706"/>
  <line x2="243.88055760943456" y1="156.5717965695326" stroke="orange" stroke-width="2" fill="none" y2="159.1789567747536" x1="243.18197113790706"/>
  <line x2="238.98671711580084" y1="158.04703543260445" stroke="orange" stroke-width="2" fill="none" y2="160.65419563782547" x1="238.2881306442733"/>
  <line x2="236.28454559397576" y1="158.04703543260445" stroke="orange" stroke-width="2" fill="none" y2="159.20380580073802" x1="238.2881306442733"/>
  <line x2="235.98508330980636" y1="162.98034523913438" stroke="orange" stroke-width="2" fill="none" y2="162.9803452391344" x1="232.83609730766494"/>
  <line x2="233.53468377919248" y1="162.98034523913438" stroke="orange" stroke-width="2" fill="none" y2="165.58750544435537" x1="232.83609730766494"/>
  <line x2="228.6408432855588" y1="164.45558410220622" stroke="orange" stroke-width="2" fill="none" y2="167.06274430742724" x1="227.94225681403125"/>
  <line x2="225.9386717637337" y1="164.45558410220622" stroke="orange" stroke-width="2" fill="none" y2="165.6123544703398" x1="227.94225681403125"/>
  <line x2="221.53254382685634" y1="162.78511850971108" stroke="orange" stroke-width="2" fill="none" y2="165.3922787149321" x1="220.8339573553288"/>
  <line x2="218.83037230503126" y1="162.78511850971108" stroke="orange" stroke-width="2" fill="none" y2="163.9418888778447" x1="220.8339573553288"/>
  <line x2="216.52329478397465" y1="159.06060393082396" stroke="orange" stroke-width="2" fill="none" y2="160.2173742989575" x1="218.52687983427217"/>
  <line x2="217.12466239727289" y1="159.06060393082396" stroke="orange" stroke-width="2" fill="none" y2="157.65838649382465" x1="218.52687983427217"/>
</svg>