<?xml version="1.0" encoding="UTF-8"?>
<!DOCTYPE svg PUBLIC "-//W3C//DTD SVG 1.1//EN"
    "http://www.w3.org/Graphics/SVG/1.1/DTD/svg11.dtd">
<svg xmlns="http://www.w3.org/2000/svg" style="background : #444;" height="410.2335337372097" width="400.0" xmlns:xlink="http://www.w3.org/1999/xlink" version="1.11.1">
  <line x2="307.0799877030768" y1="190.38649265764153" stroke="orange" stroke-width="2" fill="none" y2="190.38649265764153" x1="200"/>
  <line x2="337.26493681965025" y1="190.38649265764153" stroke="orange" stroke-width="2" fill="none" y2="178.37736678631995" x1="200"/>
  <line x2="355" y1="190.38649265764153" stroke="orange" stroke-width="2" fill="none" y2="163.0558106478295" x1="200"/>
  <line x2="353.3848199238345" y1="190.38649265764153" stroke="orange" stroke-width="2" fill="none" y2="149.2871540278569" x1="200"/>
  <line x2="332.9616498607539" y1="190.38649265764153" stroke="orange" stroke-width="2" fill="none" y2="141.99240980940215" x1="200"/>
  <line x2="301.2765469685926" y1="190.38649265764153" stroke="orange" stroke-width="2" fill="none" y2="143.1604632146924" x1="200"/>
  <line x2="269.5504921908424" y1="190.38649265764153" stroke="orange" stroke-width="2" fill="none" y2="150.2314972689877" x1="200"/>
  <line x2="247.96649184592044" y1="190.38649265764153" stroke="orange" stroke-width="2" fill="none" y2="156.7999934856535" x1="200"/>
  <line x2="241.63710981701186" y1="190.38649265764153" stroke="orange" stroke-width="2" fill="none" y2="155.44880916689897" x1="200"/>
  <line x2="248.94698850844853" y1="190.38649265764153" stroke="orange" stroke-width="2" fill="none" y2="141.439504149193" x1="200"/>
  <line x2="262.85361427920856" y1="190.38649265764153" stroke="orange" stroke-width="2" fill="none" y2="115.48047203286403" x1="200"/>
  <line x2="274.3968598089706" y1="190.38649265764153" stroke="orange" stroke-width="2" fill="none" y2="84.1367656135877" x1="200"/>
  <line x2="276.7234912484859" y1="190.38649265764153" stroke="orange" stroke-width="2" fill="none" y2="57.49750768119789" x1="200"/>
  <line x2="267.7948349185537" y1="190.38649265764153" stroke="orange" stroke-width="2" fill="none" y2="45.00000000000002" x1="200"/>
  <line x2="250.65113195308538" y1="190.38649265764153" stroke="orange" stroke-width="2" fill="none" y2="51.223651346722974" x1="200"/>
  <line x2="231.30083969572175" y1="190.38649265764153" stroke="orange" stroke-width="2" fill="none" y2="73.57016859363918" x1="200"/>
  <line x2="215.4144416055736" y1="190.38649265764153" stroke="orange" stroke-width="2" fill="none" y2="102.96685022039324" x1="200"/>
  <line x2="205.51021198932517" y1="190.38649265764153" stroke="orange" stroke-width="2" fill="none" y2="127.40448142035213" x1="200"/>
  <line x2="200" y1="190.38649265764153" stroke="orange" stroke-width="2" fill="none" y2="136.8464988061031" x1="200"/>
  <line x2="194.4897880106748" y1="190.38649265764153" stroke="orange" stroke-width="2" fill="none" y2="127.40448142035216" x1="200"/>
  <line x2="184.5855583944264" y1="190.38649265764153" stroke="orange" stroke-width="2" fill="none" y2="102.9668502203933" x1="200"/>
  <line x2="168.6991603042782" y1="190.38649265764153" stroke="orange" stroke-width="2" fill="none" y2="73.57016859363911" x1="200"/>
  <line x2="149.34886804691467" y1="190.38649265764153" stroke="orange" stroke-width="2" fill="none" y2="51.223651346722974" x1="200"/>
  <line x2="132.2051650814463" y1="190.38649265764153" stroke="orange" stroke-width="2" fill="none" y2="45" x1="200"/>
  <line x2="123.27650875151414" y1="190.38649265764153" stroke="orange" stroke-width="2" fill="none" y2="57.49750768119777" x1="200"/>
  <line x2="125.60314019102954" y1="190.38649265764153" stroke="orange" stroke-width="2" fill="none" y2="84.13676561358753" x1="200"/>
  <line x2="137.14638572079144" y1="190.38649265764153" stroke="orange" stroke-width="2" fill="none" y2="115.48047203286401" x1="200"/>
  <line x2="151.05301149155144" y1="190.38649265764153" stroke="orange" stroke-width="2" fill="none" y2="141.439504149193" x1="200"/>
  <line x2="158.3628901829881" y1="190.38649265764153" stroke="orange" stroke-width="2" fill="none" y2="155.44880916689897" x1="200"/>
  <line x2="152.03350815407953" y1="190.38649265764153" stroke="orange" stroke-width="2" fill="none" y2="156.7999934856535" x1="200"/>
  <line x2="130.44950780915758" y1="190.38649265764153" stroke="orange" stroke-width="2" fill="none" y2="150.2314972689877" x1="200"/>
  <line x2="98.72345303140737" y1="190.38649265764153" stroke="orange" stroke-width="2" fill="none" y2="143.16046321469238" x1="200"/>
  <line x2="67.03835013924613" y1="190.38649265764153" stroke="orange" stroke-width="2" fill="none" y2="141.99240980940215" x1="200"/>
  <line x2="46.61518007616556" y1="190.38649265764153" stroke="orange" stroke-width="2" fill="none" y2="149.28715402785687" x1="200"/>
  <line x2="45" y1="190.38649265764153" stroke="orange" stroke-width="2" fill="none" y2="163.05581064782942" x1="200"/>
  <line x2="62.735063180349755" y1="190.38649265764153" stroke="orange" stroke-width="2" fill="none" y2="178.37736678631995" x1="200"/>
  <line x2="92.92001229692309" y1="190.38649265764153" stroke="orange" stroke-width="2" fill="none" y2="190.3864926576415" x1="200"/>
  <line x2="123.91990477658119" y1="190.38649265764153" stroke="orange" stroke-width="2" fill="none" y2="197.04263850966348" x1="200"/>
  <line x2="144.093595835116" y1="190.38649265764153" stroke="orange" stroke-width="2" fill="none" y2="200.2443001063027" x1="200"/>
  <line x2="146.52216872159892" y1="190.38649265764153" stroke="orange" stroke-width="2" fill="none" y2="204.71583436165693" x1="200"/>
  <line x2="131.71710130389963" y1="190.38649265764153" stroke="orange" stroke-width="2" fill="none" y2="215.23943529243653" x1="200"/>
  <line x2="107.18169358641815" y1="190.38649265764153" stroke="orange" stroke-width="2" fill="none" y2="233.66837975527193" x1="200"/>
  <line x2="84.08251301526259" y1="190.38649265764153" stroke="orange" stroke-width="2" fill="none" y2="257.31148497206465" x1="200"/>
  <line x2="72.5369101870894" y1="190.38649265764153" stroke="orange" stroke-width="2" fill="none" y2="279.6371089881427" x1="200"/>
  <line x2="77.58105071863079" y1="190.38649265764153" stroke="orange" stroke-width="2" fill="none" y2="293.10818784874857" x1="200"/>
  <line x2="97.51301764001293" y1="190.38649265764153" stroke="orange" stroke-width="2" fill="none" y2="292.8734750176286" x1="200"/>
  <line x2="125.19423559735888" y1="190.38649265764153" stroke="orange" stroke-width="2" fill="none" y2="279.5365311312451" x1="200"/>
  <line x2="151.55974430648112" y1="190.38649265764153" stroke="orange" stroke-width="2" fill="none" y2="259.56634727241885" x1="200"/>
  <line x2="169.64350354540898" y1="190.38649265764153" stroke="orange" stroke-width="2" fill="none" y2="242.9654868567776" x1="200"/>
  <line x2="177.2869183779741" y1="190.38649265764153" stroke="orange" stroke-width="2" fill="none" y2="239.09485338217456" x1="200"/>
  <line x2="177.40410647005098" y1="190.38649265764153" stroke="orange" stroke-width="2" fill="none" y2="252.46819990357716" x1="200"/>
  <line x2="175.87215936192175" y1="190.38649265764153" stroke="orange" stroke-width="2" fill="none" y2="280.43281979587476" x1="200"/>
  <line x2="178.22595214710037" y1="190.38649265764153" stroke="orange" stroke-width="2" fill="none" y2="313.8732543852773" x1="200"/>
  <line x2="186.84494026598162" y1="190.38649265764153" stroke="orange" stroke-width="2" fill="none" y2="340.74951346342107" x1="200"/>
  <line x2="199.99999999999997" y1="190.38649265764153" stroke="orange" stroke-width="2" fill="none" y2="351.00647421225676" x1="200"/>
  <line x2="213.15505973401832" y1="190.38649265764153" stroke="orange" stroke-width="2" fill="none" y2="340.74951346342107" x1="200"/>
  <line x2="221.77404785289963" y1="190.38649265764153" stroke="orange" stroke-width="2" fill="none" y2="313.87325438527756" x1="200"/>
  <line x2="224.12784063807828" y1="190.38649265764153" stroke="orange" stroke-width="2" fill="none" y2="280.43281979587493" x1="200"/>
  <line x2="222.595893529949" y1="190.38649265764153" stroke="orange" stroke-width="2" fill="none" y2="252.46819990357713" x1="200"/>
  <line x2="222.7130816220259" y1="190.38649265764153" stroke="orange" stroke-width="2" fill="none" y2="239.09485338217462" x1="200"/>
  <line x2="230.35649645459097" y1="190.38649265764153" stroke="orange" stroke-width="2" fill="none" y2="242.96548685677757" x1="200"/>
  <line x2="248.4402556935188" y1="190.38649265764153" stroke="orange" stroke-width="2" fill="none" y2="259.5663472724188" x1="200"/>
  <line x2="274.8057644026411" y1="190.38649265764153" stroke="orange" stroke-width="2" fill="none" y2="279.53653113124517" x1="200"/>
  <line x2="302.4869823599868" y1="190.38649265764153" stroke="orange" stroke-width="2" fill="none" y2="292.87347501762844" x1="200"/>
  <line x2="322.4189492813691" y1="190.38649265764153" stroke="orange" stroke-width="2" fill="none" y2="293.10818784874857" x1="200"/>
  <line x2="327.46308981291065" y1="190.38649265764153" stroke="orange" stroke-width="2" fill="none" y2="279.6371089881429" x1="200"/>
  <line x2="315.9174869847373" y1="190.38649265764153" stroke="orange" stroke-width="2" fill="none" y2="257.31148497206465" x1="200"/>
  <line x2="292.818306413582" y1="190.38649265764153" stroke="orange" stroke-width="2" fill="none" y2="233.668379755272" x1="200"/>
  <line x2="268.2828986961006" y1="190.38649265764153" stroke="orange" stroke-width="2" fill="none" y2="215.23943529243667" x1="200"/>
  <line x2="253.47783127840108" y1="190.38649265764153" stroke="orange" stroke-width="2" fill="none" y2="204.71583436165693" x1="200"/>
  <line x2="255.9064041648841" y1="190.38649265764153" stroke="orange" stroke-width="2" fill="none" y2="200.2443001063027" x1="200"/>
  <line x2="276.08009522341854" y1="190.38649265764153" stroke="orange" stroke-width="2" fill="none" y2="197.04263850966348" x1="200"/>
  <line x2="307.0799877030768" y1="190.38649265764153" stroke="orange" stroke-width="2" fill="none" y2="190.38649265764153" x1="200"/>
</svg>