<?xml version="1.0" encoding="UTF-8"?>
<!DOCTYPE svg PUBLIC "-//W3C//DTD SVG 1.1//EN"
    "http://www.w3.org/Graphics/SVG/1.1/DTD/svg11.dtd">
<svg xmlns="http://www.w3.org/2000/svg" style="background : #444;" height="315.0" width="270.90190922500915" xmlns:xlink="http://www.w3.org/1999/xlink" version="1.11.1">
  <polygon points="111.12459508963009,101.68738440674863 66.53323425024253,178.921886959205 155.7159559290176,178.92188695920507 " stroke="orange" stroke-width="2" fill="none"/>
  <polygon points="108.1603579558741,96.6160388510152 63.623438734486065,184.0246643977456 161.5899885785301,178.89045507639793 " stroke="orange" stroke-width="2" fill="none"/>
  <polygon points="104.61221064010314,91.21585365624185 60.720814828557195,189.7975427069595 168.0407598002299,178.5177619619574 " stroke="orange" stroke-width="2" fill="none"/>
  <polygon points="100.40371122493201,85.48805603566015 57.864646288982954,196.3061089226005 175.10542775497527,177.73699336689808 " stroke="orange" stroke-width="2" fill="none"/>
  <polygon points="95.45095948844292,79.43839480071426 55.1018618434744,203.6201483625105 182.82096393697293,176.47261516193396 " stroke="orange" stroke-width="2" fill="none"/>
  <polygon points="89.66212262359696,73.07801507576914 52.488029856379434,211.81361800830354 191.22363278891385,174.63952524108606 " stroke="orange" stroke-width="2" fill="none"/>
  <polygon points="82.93696460150403,66.42444646976807 50.088449428806356,220.96456000290124 200.3483712385799,172.14215185248943 " stroke="orange" stroke-width="2" fill="none"/>
  <polygon points="75.1663860691096,59.502715669720985 47.97934398400559,231.15494381408035 210.22805521577507,168.8734988413574 " stroke="orange" stroke-width="2" fill="none"/>
  <polygon points="66.23198298176843,52.34659510417795 46.24916332537164,242.47042413813946 220.89263896175018,164.71413908284134 " stroke="orange" stroke-width="2" fill="none"/>
  <polygon points="56.00563364943871,45 45,255 232.3681516194516,159.53115832515874 " stroke="orange" stroke-width="2" fill="none"/>
</svg>