<?xml version="1.0" encoding="UTF-8"?>
<!DOCTYPE svg PUBLIC "-//W3C//DTD SVG 1.1//EN"
    "http://www.w3.org/Graphics/SVG/1.1/DTD/svg11.dtd">
<svg xmlns="http://www.w3.org/2000/svg" style="background : #444;" height="168.312440096614" width="400.0" xmlns:xlink="http://www.w3.org/1999/xlink" version="1.11.1">
  <polyline points="45,96.65188476645352 54.6875,87.02104776706958 69.21875,73.31035873938319 78.90625,65.12746411753763 88.59375,58.04960679644782 95.859375,53.617354706705264 100.703125,51.129804752250195 105.546875,49.04205825064773 110.390625,47.37245110086735 115.234375,46.135646839882355 120.078125,45.34250785829288 124.921875,45 129.765625,45.11113138379644 134.609375,45.67492598418099 139.453125,46.686432203426506 144.296875,48.136766359616196 149.140625,50.01319070870908 153.984375,52.29922531539574 158.828125,54.97479279022453 166.09375,59.66622987434359 175.78125,67.03922354011716 190.3125,79.95401857146969 219.375,108.60206507389131 243.59375,130.02163927862873 253.28125,136.7894464002624 260.546875,140.95317423361982 265.390625,143.24746511548037 270.234375,145.132524391373 275.078125,146.59179628864638 279.921875,147.61246456641254 284.765625,148.1855650758114 287.79296875,148.314070577873 289.00390625,148.31582818905497 290.8203125,148.26525878047465 294.453125,147.9729045039322 299.296875,147.1890111411524 304.140625,145.9612690435268 308.984375,144.3004610120542 313.828125,142.22117330433312 318.671875,139.7416675289008 323.515625,136.8837202603355 330.78125,131.94298357627105 345.3125,120.082572251614 355,111.08835217339802 " stroke="white" stroke-width="2" fill="none"/>
  <line x2="63.18343554961896" y1="96.65188476645352" stroke="orange" stroke-width="2" fill="none" y2="57.303216702504855" x1="96.66666666666666"/>
  <line x2="180.39500127762935" y1="96.65188476645352" stroke="orange" stroke-width="2" fill="none" y2="56.13653097219243" x1="148.33333333333331"/>
  <line x2="236.48785348372502" y1="96.65188476645352" stroke="orange" stroke-width="2" fill="none" y2="60.07209536582054" x1="200"/>
  <line x2="217.1910732349434" y1="96.65188476645352" stroke="orange" stroke-width="2" fill="none" y2="135.1340611858683" x1="251.66666666666666"/>
  <line x2="333.2069098353394" y1="96.65188476645352" stroke="orange" stroke-width="2" fill="none" y2="138.80652711368776" x1="303.3333333333333"/>
</svg>