<?xml version="1.0" encoding="UTF-8"?>
<!DOCTYPE svg PUBLIC "-//W3C//DTD SVG 1.1//EN"
    "http://www.w3.org/Graphics/SVG/1.1/DTD/svg11.dtd">
<svg xmlns="http://www.w3.org/2000/svg" style="background : #444;" height="183.74674967643833" width="400.0" xmlns:xlink="http://www.w3.org/1999/xlink" version="1.11.1">
  <polyline points="45,109.58333333333333 54.6875,99.95249633394938 69.21875,86.241807306263 76.484375,80.01165480788379 81.328125,76.17542540445713 86.171875,72.63260519802627 91.015625,69.41430945728996 95.859375,66.54880327358508 100.703125,64.06125331913 104.3359375,62.4568974915188 106.7578125,61.5162678051792 109.1796875,60.68123489214812 111.6015625,59.9536332056058 114.0234375,59.33506118701124 116.4453125,58.82687775454481 118.8671875,58.43019931775069 121.2890625,58.145897324937756 123.7109375,57.9745963487267 125.52734375,57.92051327667995 126.73828125,57.919927406103085 128.5546875,57.97225367091457 130.9765625,58.14121711585645 133.3984375,58.42319185917989 135.8203125,58.81755844091324 138.2421875,59.323450491577205 140.6640625,59.93975663548025 143.0859375,60.665122932259024 145.5078125,61.497955851300304 147.9296875,62.436425772509956 150.3515625,63.47847100573824 153.984375,65.23067388227555 158.828125,67.90624135710434 163.671875,70.94784318870578 168.515625,74.32876612245488 175.78125,79.97067210699697 190.3125,92.88546713834951 209.6875,111.95437986909361 224.21875,126.18654335900423 233.90625,135.01555824542913 241.171875,141.06812855285824 246.015625,144.76473834836972 250.859375,148.15236298334307 255.703125,151.2012502139088 260.546875,153.88462280049964 264.1796875,155.64297949049262 266.6015625,156.68925332914074 269.0234375,157.6320418998485 271.4453125,158.46927402498346 273.8671875,159.199110419997 276.2890625,159.8199477340811 278.7109375,160.3304220725107 281.1328125,160.7294119929344 283.5546875,161.0160409690297 285.9765625,161.18967931611164 287.79296875,161.2455191447528 289.00390625,161.24727675593482 290.8203125,161.19670734735448 293.2421875,161.03008159189127 295.6640625,160.75043436208531 298.0859375,160.35838000467925 300.5078125,159.85477980951146 302.9296875,159.24074011738026 305.3515625,158.51760988956426 307.7734375,157.68697774433872 310.1953125,156.7506684669985 313.828125,155.15262187121294 318.671875,152.67311609578064 323.515625,149.8151688272153 328.359375,146.60388035060254 333.203125,143.06745421509152 340.46875,137.22183787349485 350.15625,128.60042077298894 355,124.01980074027783 " stroke="orange" stroke-width="2" fill="none"/>
  <line x2="50.0847817646145" y1="45" stroke="orange" stroke-width="2" fill="none" y2="96.41584812925572" x1="45"/>
  <line x2="65.40411074934477" y1="45" stroke="orange" stroke-width="2" fill="none" y2="86.13510717089194" x1="96.66666666666666"/>
  <line x2="103.23201624918705" y1="45" stroke="orange" stroke-width="2" fill="none" y2="70.20546848840029" x1="148.33333333333331"/>
  <line x2="150.93174381647395" y1="45" stroke="orange" stroke-width="2" fill="none" y2="61.1787106888127" x1="200"/>
  <line x2="201.22669095629536" y1="45" stroke="orange" stroke-width="2" fill="none" y2="56.19166184181768" x1="251.66666666666666"/>
</svg>