<?xml version="1.0" encoding="UTF-8"?>
<!DOCTYPE svg PUBLIC "-//W3C//DTD SVG 1.1//EN"
    "http://www.w3.org/Graphics/SVG/1.1/DTD/svg11.dtd">
<svg xmlns="http://www.w3.org/2000/svg" style="background : #444;" height="144.92517945880434" width="400.0" xmlns:xlink="http://www.w3.org/1999/xlink" version="1.11.1">
  <polyline points="61.87722751761457,86.85304348889767 71.97291917784673,76.85487137465218 84.45188034977139,65.35608561291033 92.16430249831105,59.13844278650763 96.93084152169604,55.75232234434955 102.25999415854321,52.44498988565241 107.0265331819282,49.95691565587984 109.97241630708285,48.65617734063777 113.26601376789051,47.425909008789844 117.12222484216035,46.29575873714424 120.068107967315,45.66357162544906 123.36170542812268,45.19813838913367 126.30758855327733,45 129.601186014085,45.02363412149806 133.4573970883548,45.379888140282105 136.40328021350948,45.88911348859174 139.69687767431714,46.698234056330136 143.553088748587,47.96064498110459 146.49897187374165,49.14777801967308 151.26551089712663,51.46075075578387 156.03204992051164,54.23180523675123 163.7444720690513,59.5919114459091 171.45689421759096,65.8741524637696 200.27102763571008,93.66326657679905 222.84568046786686,113.9081382558983 230.55810261640653,119.3038805407031 236.7975832023688,122.8732151242822 241.56412222575383,125.06567659820497 245.42033330002369,126.47861102850247 248.36621642517835,127.33227559310151 251.65981388598598,128.04943661855353 255.51602496025583,128.5651616425837 258.4619080854105,128.72109630332255 261.75550554621816,128.65019880919047 264.7013886713728,128.36778414502774 267.9949861321805,127.8089674823825 271.85119720645037,126.83321219102022 274.797080331605,125.85897977361199 278.09067779241263,124.5415397972514 283.41983042925983,121.92042393314708 289.6593110152221,118.13436989293446 294.4258500386071,114.76998204864738 299.7550026754543,110.58286539331448 308.3777527731091,103.0270720492054 328.56913609357343,83.27189993363555 344.90430833976785,67.67527064073165 352.6167304883075,61.18226665170948 355,59.34193873172283 " stroke="white" stroke-width="2" fill="none"/>
  <line x2="45" y1="86.85304348889767" stroke="orange" stroke-width="2" fill="none" y2="57.07390584098804" x1="74.43963205257396"/>
  <line x2="58.12231577595616" y1="86.85304348889767" stroke="orange" stroke-width="2" fill="none" y2="56.53059800227102" x1="87.00203658753333"/>
  <line x2="71.83176175541963" y1="86.85304348889767" stroke="orange" stroke-width="2" fill="none" y2="55.478093774719504" x1="99.5644411224927"/>
  <line x2="86.7722767529525" y1="86.85304348889767" stroke="orange" stroke-width="2" fill="none" y2="53.5268554363905" x1="112.12684565745207"/>
  <line x2="107.10828670515016" y1="86.85304348889767" stroke="orange" stroke-width="2" fill="none" y2="48.84779783380851" x1="124.68925019241145"/>
  <line x2="160.4057036809771" y1="86.85304348889767" stroke="orange" stroke-width="2" fill="none" y2="51.96208489647587" x1="137.25165472737083"/>
  <line x2="176.65713499247576" y1="86.85304348889767" stroke="orange" stroke-width="2" fill="none" y2="54.713686622436285" x1="149.8140592623302"/>
  <line x2="190.8097971892565" y1="86.85304348889767" stroke="orange" stroke-width="2" fill="none" y2="56.111629619894394" x1="162.3764637972896"/>
  <line x2="204.1700289276996" y1="86.85304348889767" stroke="orange" stroke-width="2" fill="none" y2="56.86924411845328" x1="174.93886833224894"/>
  <line x2="217.07386304753624" y1="86.85304348889767" stroke="orange" stroke-width="2" fill="none" y2="57.205937652569204" x1="187.50127286720834"/>
  <line x2="170.5005244145601" y1="86.85304348889767" stroke="orange" stroke-width="2" fill="none" y2="116.50955980277706" x1="200.0636774021677"/>
  <line x2="183.42589604459866" y1="86.85304348889767" stroke="orange" stroke-width="2" fill="none" y2="116.86700887646138" x1="212.62608193712705"/>
  <line x2="196.81822994737897" y1="86.85304348889767" stroke="orange" stroke-width="2" fill="none" y2="117.6526785381378" x1="225.18848647208648"/>
  <line x2="211.0361150353166" y1="86.85304348889767" stroke="orange" stroke-width="2" fill="none" y2="119.09912416894939" x1="237.75089100704582"/>
  <line x2="227.51965191347097" y1="86.85304348889767" stroke="orange" stroke-width="2" fill="none" y2="121.9805083074619" x1="250.3132955420052"/>
  <line x2="281.44584968105704" y1="86.85304348889767" stroke="orange" stroke-width="2" fill="none" y2="124.38487688570514" x1="262.87570007696456"/>
  <line x2="300.98629336063095" y1="86.85304348889767" stroke="orange" stroke-width="2" fill="none" y2="120.0310335742619" x1="275.4381046119239"/>
  <line x2="315.8201142153661" y1="86.85304348889767" stroke="orange" stroke-width="2" fill="none" y2="118.15094355068668" x1="288.0005091468833"/>
  <line x2="329.4866788805304" y1="86.85304348889767" stroke="orange" stroke-width="2" fill="none" y2="117.13347910622772" x1="300.5629136818427"/>
  <line x2="342.5838648055495" y1="86.85304348889767" stroke="orange" stroke-width="2" fill="none" y2="116.61347035617703" x1="313.1253182168021"/>
  <line x2="296.0783748415778" y1="86.85304348889767" stroke="orange" stroke-width="2" fill="none" y2="57.24264851048187" x1="325.68772275176144"/>
  <line x2="308.8306006522919" y1="86.85304348889767" stroke="orange" stroke-width="2" fill="none" y2="57.05404305179886" x1="338.25012728672084"/>
  <line x2="321.97861299831936" y1="86.85304348889767" stroke="orange" stroke-width="2" fill="none" y2="56.48704112223888" x1="350.8125318216802"/>
</svg>