<?xml version="1.0" encoding="UTF-8"?>
<!DOCTYPE svg PUBLIC "-//W3C//DTD SVG 1.1//EN"
    "http://www.w3.org/Graphics/SVG/1.1/DTD/svg11.dtd">
<svg xmlns="http://www.w3.org/2000/svg" style="background : #444;" height="168.32619115947656" width="400.0" xmlns:xlink="http://www.w3.org/1999/xlink" version="1.11.1">
  <polyline points="45,96.66340592723024 54.6875,87.0325689278463 69.21875,73.32187990015991 76.484375,67.0917274017807 81.328125,63.25549799835404 86.171875,59.712677791923184 91.015625,56.49438205118687 95.859375,53.628875867481995 100.703125,51.141325913026925 104.3359375,49.53697008541572 106.7578125,48.596340399076105 109.1796875,47.76130748604503 111.6015625,47.03370579950271 114.0234375,46.41513378090816 116.4453125,45.906950348441725 118.8671875,45.51027191164761 121.2890625,45.22596991883467 123.7109375,45.05466894262361 125.52734375,45.00058587057686 126.73828125,45 128.5546875,45.05232626481148 130.9765625,45.221289709753364 133.3984375,45.5032644530768 135.8203125,45.897631034810146 138.2421875,46.40352308547412 140.6640625,47.019829229377166 143.0859375,47.74519552615594 145.5078125,48.57802844519721 147.9296875,49.51649836640687 150.3515625,50.55854359963516 153.984375,52.31074647617246 158.828125,54.98631395100125 163.671875,58.02791578260268 168.515625,61.408838716351795 175.78125,67.05074470089389 190.3125,79.96553973224643 209.6875,99.03445246299053 224.21875,113.26661595290115 233.90625,122.09563083932606 241.171875,128.14820114675518 246.015625,131.84481094226663 250.859375,135.23243557723998 255.703125,138.28132280780568 260.546875,140.96469539439653 264.1796875,142.72305208438956 266.6015625,143.76932592303766 269.0234375,144.7121144937454 271.4453125,145.54934661888038 273.8671875,146.27918301389394 276.2890625,146.90002032797798 278.7109375,147.4104946664076 281.1328125,147.80948458683127 283.5546875,148.09611356292658 285.9765625,148.26975191000855 287.79296875,148.32559173864973 289.00390625,148.3273493498317 290.8203125,148.2767799412514 293.2421875,148.1101541857882 295.6640625,147.83050695598223 298.0859375,147.43845259857613 300.5078125,146.9348524034084 302.9296875,146.3208127112772 305.3515625,145.59768248346117 307.7734375,144.7670503382356 310.1953125,143.8307410608954 313.828125,142.23269446510986 318.671875,139.75318868967753 323.515625,136.89524142111222 328.359375,133.68395294449945 333.203125,130.14752680898843 340.46875,124.30191046739176 350.15625,115.68049336688586 355,111.09987333417475 " stroke="orange" stroke-width="2" fill="none"/>
  <line x2="63.18343554929658" y1="96.66340592723024" stroke="orange" stroke-width="2" fill="none" y2="57.31473786355591" x1="96.66666666666666"/>
  <line x2="180.39500193977528" y1="96.66340592723024" stroke="orange" stroke-width="2" fill="none" y2="56.14805265695579" x1="148.33333333333331"/>
  <line x2="236.48784794407678" y1="96.66340592723024" stroke="orange" stroke-width="2" fill="none" y2="60.083611000872665" x1="200"/>
  <line x2="217.19107236911591" y1="96.66340592723024" stroke="orange" stroke-width="2" fill="none" y2="135.14558157096343" x1="251.66666666666666"/>
  <line x2="333.20690924295474" y1="96.66340592723024" stroke="orange" stroke-width="2" fill="none" y2="138.81804869426756" x1="303.3333333333333"/>
</svg>