<?xml version="1.0" encoding="UTF-8"?>
<!DOCTYPE svg PUBLIC "-//W3C//DTD SVG 1.1//EN"
    "http://www.w3.org/Graphics/SVG/1.1/DTD/svg11.dtd">
<svg xmlns="http://www.w3.org/2000/svg" style="background : #444;" height="155.3243426891375" width="400.0" xmlns:xlink="http://www.w3.org/1999/xlink" version="1.11.1">
  <polyline points="77.6822144421298,91.21671395521561 86.34839524081325,82.60122237541574 99.34766643883842,70.33600327983324 105.847302037851,64.76267394261274 110.18039243719272,61.33088477148282 114.51348283653444,58.161571693169655 118.84657323587616,55.28256960255249 123.17966363521788,52.719163701367265 127.5127540345596,50.493867427709006 130.7625718340659,49.05865321687028 132.92911703373676,48.217190824464815 135.0956622334076,47.4701925073367 137.2622074330785,46.81929931869126 139.42875263274934,46.265941181901894 141.59529783242021,45.811333749163865 143.76184303209106,45.45647573087257 145.92838823176191,45.2021467015933 148.0949334314328,45.04890538744248 149.71984233118593,45.00052410429355 150.80311493102136,45 152.42802383077452,45.046809689948496 154.59456903044537,45.19795991056628 156.76111423011622,45.45020704412017 158.92765942978707,45.8029969381341 161.09420462945795,46.255554561429136 163.26074982912883,46.80688570676108 165.42729502879968,47.45577917495786 167.59384022847053,48.200809435758586 169.76038542814138,49.04033975950868 171.92693062781225,49.97252581283127 175.17674842731856,51.54000007595855 179.50983882666026,53.933491841217204 183.84292922600198,56.65442824279292 188.1760196253437,59.678912310951375 194.6756552243563,64.72601190436721 207.67492642238147,76.27924532058807 225.00728801974836,93.33778935764045 238.0065592177735,106.06950568899396 246.67274001645697,113.96770845338371 253.17237561546955,119.38217746818874 257.5054660148113,122.68906663774607 261.838556414153,125.7195458702367 266.1716468134947,128.44699959667588 270.5047372128364,130.84747360809547 273.75455501234273,132.42045290967525 275.9211002120136,133.356421761356 278.08764541168443,134.1998154345106 280.2541906113553,134.94878110851172 282.42073581102613,135.6016734081398 284.58728101069704,136.1570580182478 286.7538262103679,136.61371483475557 288.92037141003874,136.97064064505176 291.08691660970965,137.22705133191454 293.2534618093805,137.38238359611034 294.8783707091336,137.43233642715776 295.9616433089691,137.43390873954766 297.5865522087222,137.38867068663 299.75309740839305,137.2396117010753 301.9196426080639,136.98944669943924 304.0861878077348,136.6387252600387 306.25273300740565,136.1882178699405 308.4192782070765,135.63891423230677 310.58582340674735,134.99202109215227 312.7523686064182,134.24895958529055 314.9189138060891,133.41136211629288 318.1687316055954,131.9817919770621 322.5018220049371,129.7636918128013 326.83491240427884,127.2070479168023 331.16800280362054,124.33431433899017 335.50109320296224,121.17072122709051 342.00072880197484,115.94138774621153 350.6669096006583,108.22889646013716 355,104.13119515706147 " stroke="orange" stroke-width="2" fill="none"/>
  <polyline points="77.6822144421298,91.21671395521561 86.34839524081325,82.60122237541574 99.34766643883842,70.33600327983324 105.847302037851,64.76267394261274 110.18039243719272,61.33088477148282 114.51348283653444,58.161571693169655 118.84657323587616,55.28256960255249 123.17966363521788,52.719163701367265 127.5127540345596,50.493867427709006 130.7625718340659,49.05865321687028 132.92911703373676,48.217190824464815 135.0956622334076,47.4701925073367 137.2622074330785,46.81929931869126 139.42875263274934,46.265941181901894 141.59529783242021,45.811333749163865 143.76184303209106,45.45647573087257 145.92838823176191,45.2021467015933 148.0949334314328,45.04890538744248 149.71984233118593,45.00052410429355 150.80311493102136,45 152.42802383077452,45.046809689948496 154.59456903044537,45.19795991056628 156.76111423011622,45.45020704412017 158.92765942978707,45.8029969381341 161.09420462945795,46.255554561429136 163.26074982912883,46.80688570676108 165.42729502879968,47.45577917495786 167.59384022847053,48.200809435758586 169.76038542814138,49.04033975950868 171.92693062781225,49.97252581283127 175.17674842731856,51.54000007595855 179.50983882666026,53.933491841217204 183.84292922600198,56.65442824279292 188.1760196253437,59.678912310951375 194.6756552243563,64.72601190436721 207.67492642238147,76.27924532058807 225.00728801974836,93.33778935764045 238.0065592177735,106.06950568899396 246.67274001645697,113.96770845338371 253.17237561546955,119.38217746818874 257.5054660148113,122.68906663774607 261.838556414153,125.7195458702367 266.1716468134947,128.44699959667588 270.5047372128364,130.84747360809547 273.75455501234273,132.42045290967525 275.9211002120136,133.356421761356 278.08764541168443,134.1998154345106 280.2541906113553,134.94878110851172 282.42073581102613,135.6016734081398 284.58728101069704,136.1570580182478 286.7538262103679,136.61371483475557 288.92037141003874,136.97064064505176 291.08691660970965,137.22705133191454 293.2534618093805,137.38238359611034 294.8783707091336,137.43233642715776 295.9616433089691,137.43390873954766 297.5865522087222,137.38867068663 299.75309740839305,137.2396117010753 301.9196426080639,136.98944669943924 304.0861878077348,136.6387252600387 306.25273300740565,136.1882178699405 308.4192782070765,135.63891423230677 310.58582340674735,134.99202109215227 312.7523686064182,134.24895958529055 314.9189138060891,133.41136211629288 318.1687316055954,131.9817919770621 322.5018220049371,129.7636918128013 326.83491240427884,127.2070479168023 331.16800280362054,124.33431433899017 335.50109320296224,121.17072122709051 342.00072880197484,115.94138774621153 350.6669096006583,108.22889646013716 355,104.13119515706147 " stroke="orange" stroke-width="2" fill="none"/>
  <line x2="45" y1="91.21671395521561" stroke="orange" stroke-width="2" fill="none" y2="58.53449949347646" x1="77.6822144421298"/>
  <line x2="99.31306479148418" y1="91.21671395521561" stroke="orange" stroke-width="2" fill="none" y2="52.08046282275893" x1="123.9018453684415"/>
  <line x2="194.57666528004737" y1="91.21671395521561" stroke="orange" stroke-width="2" fill="none" y2="51.99684635398553" x1="170.12147629475322"/>
  <line x2="253.42217867909906" y1="91.21671395521561" stroke="orange" stroke-width="2" fill="none" y2="63.62598322026347" x1="216.3411072210649"/>
  <line x2="238.9957851806074" y1="91.21671395521561" stroke="orange" stroke-width="2" fill="none" y2="130.97784163839916" x1="262.5607381473766"/>
  <line x2="333.63432922450596" y1="91.21671395521561" stroke="orange" stroke-width="2" fill="none" y2="130.1850979066452" x1="308.7803690736883"/>
</svg>