<?xml version="1.0" encoding="UTF-8"?>
<!DOCTYPE svg PUBLIC "-//W3C//DTD SVG 1.1//EN"
    "http://www.w3.org/Graphics/SVG/1.1/DTD/svg11.dtd">
<svg xmlns="http://www.w3.org/2000/svg" style="background : #444;" height="169.88799944949773" width="300.0" xmlns:xlink="http://www.w3.org/1999/xlink" version="1.11.1">
  <polyline points="142.14974272948143,93.56755534147133 142.13511068294267,94.75982190430344 142.01810718810964,97.14148275538756 141.78438207011092,99.5145337022925 141.43449839322767,101.87325785743244 140.96929905788375,104.21197284771779 140.38990477002454,106.52504450388975 139.69771134123854,108.80690043372742 138.89438632612462,111.05204344642887 137.9818650050072,113.25506479582519 136.96234572167623,115.41065721052382 135.83828458738463,117.51362767959013 134.61238956386103,119.5589099629657 133.2876139395928,121.54157679648429 131.86714921509548,123.45685176208286 130.35441741430836,125.30012079461102 128.7530628406392,127.06694329751808 127.06694329751808,128.7530628406392 125.30012079461102,130.35441741430833 123.45685176208286,131.86714921509548 121.54157679648429,133.2876139395928 119.5589099629657,134.61238956386103 117.51362767959013,135.83828458738463 115.41065721052382,136.96234572167623 113.25506479582519,137.9818650050072 111.05204344642888,138.89438632612462 108.80690043372742,139.69771134123854 106.52504450388975,140.38990477002454 104.21197284771779,140.96929905788375 101.87325785743244,141.43449839322767 99.51453370229251,141.78438207011092 97.14148275538756,142.01810718810964 94.75982190430344,142.13511068294267 92.37528877863923,142.13511068294267 89.99362792755511,142.01810718810964 87.62057698065018,141.78438207011092 85.26185282551023,141.43449839322767 82.92313783522489,140.96929905788375 80.61006617905294,140.38990477002454 78.32821024921526,139.69771134123854 76.0830672365138,138.89438632612462 73.88004588711748,137.9818650050072 71.72445347241884,136.96234572167623 69.62148300335254,135.83828458738463 67.57620071997698,134.61238956386103 65.59353388645837,133.2876139395928 63.67825892085982,131.86714921509548 61.83498988833166,130.35441741430836 60.06816738542459,128.7530628406392 58.38204784230348,127.06694329751808 56.78069326863432,125.300120794611 55.2679614678472,123.45685176208288 53.84749674334987,121.54157679648429 52.52272111908164,119.5589099629657 51.29682609555804,117.51362767959014 50.17276496126644,115.41065721052382 49.153245677935466,113.25506479582519 48.240724356818035,111.05204344642888 47.43739934170413,108.8069004337274 46.745205912918124,106.52504450388975 46.16581162505894,104.2119728477178 45.70061228971498,101.87325785743244 45.35072861283175,99.51453370229251 45.117003494833035,97.14148275538759 45,94.75982190430344 45,92.37528877863924 45.117003494833035,89.99362792755511 45.35072861283175,87.62057698065018 45.70061228971498,85.26185282551026 46.165811625058936,82.92313783522488 46.74520591291812,80.61006617905294 47.43739934170412,78.32821024921526 48.24072435681803,76.0830672365138 49.153245677935466,73.88004588711749 50.17276496126643,71.72445347241884 51.29682609555803,69.62148300335255 52.52272111908164,67.576200719977 53.847496743349865,65.59353388645837 55.2679614678472,63.67825892085982 56.78069326863431,61.83498988833166 58.382047842303464,60.06816738542459 60.06816738542458,58.38204784230348 61.83498988833164,56.78069326863434 63.67825892085979,55.26796146784722 65.59353388645839,53.847496743349865 67.57620071997698,52.522721119081645 69.62148300335252,51.29682609555804 71.72445347241884,50.17276496126644 73.88004588711745,49.15324567793548 76.08306723651381,48.24072435681803 78.32821024921525,47.43739934170413 80.61006617905292,46.745205912918124 82.92313783522488,46.16581162505894 85.26185282551022,45.70061228971499 87.62057698065018,45.350728612831745 89.99362792755511,45.117003494833035 92.37528877863923,45 94.75982190430342,45 97.14148275538754,45.117003494833035 99.51453370229248,45.350728612831745 101.87325785743244,45.70061228971498 104.21197284771779,46.165811625058936 106.52504450388975,46.74520591291812 108.8069004337274,47.43739934170412 111.05204344642885,48.24072435681803 113.2550647958252,49.15324567793547 115.41065721052382,50.17276496126643 117.51362767959012,51.29682609555803 119.55890996296567,52.52272111908164 121.54157679648426,53.84749674334985 123.45685176208288,55.26796146784721 125.30012079461102,56.78069326863432 127.06694329751808,58.382047842303464 128.7530628406392,60.06816738542457 130.35441741430833,61.83498988833164 131.86714921509542,63.67825892085978 133.2876139395928,65.59353388645839 134.61238956386103,67.57620071997698 135.83828458738463,69.62148300335252 136.96234572167623,71.72445347241883 137.9818650050072,73.88004588711745 138.89438632612462,76.08306723651381 139.69771134123854,78.32821024921525 140.38990477002454,80.61006617905292 140.96929905788372,82.92313783522486 141.43449839322767,85.2618528255102 141.78438207011092,87.62057698065018 142.01810718810964,89.99362792755511 142.13511068294267,92.37528877863923 142.14974272948143,93.56755534147132 142.14974272948143,93.56755534147133 " stroke="orange" stroke-width="2" fill="none"/>
  <polyline points="243.9026692834621,86.19820437002947 245.06923712635887,88.27727851676002 247.23922242767307,92.50311275903977 249.1744799367467,96.78519554248776 250.85637206584806,101.08228806907479 252.2687012743581,105.35300698874015 253.39786605994124,109.55622294367497 254.23299194844802,113.65145666652171 254.66142632561116,116.62824350849417 254.85143070643275,118.55869532340697 254.9643792989132,120.44044756734755 255,122.26896693433821 254.95820699630428,124.03984836106447 254.83910097083256,125.74882563905847 254.6429688604327,127.3917816923688 254.37028316453777,128.96475849595703 254.0217008068736,130.4639666109269 253.59806155287205,131.88579431361427 253.2316832376905,132.8993164143239 252.96453554293365,133.54906291747716 252.67925759477512,134.17760305727347 252.37602123398375,134.78455822463522 252.05500911880443,135.36956281246518 251.71641461493203,135.9322644358743 251.3604416790348,136.4723241444454 250.98730473589856,136.98941662640422 250.59722854926548,137.48323040457495 250.1904480864444,137.9534680240025 249.7672083767757,138.3998462311282 249.3277643640345,138.82209614441132 248.8723807528621,139.21996341629296 248.4013318493182,139.59320838640582 247.91490139564849,139.94160622593637 247.41338239936945,140.26494707305355 246.89707695677154,140.56303615932154 246.36629607094736,140.83569392702105 245.8213594644554,141.08275613730814 245.26259538673096,141.30407396914558 244.69034041636087,141.4995141089471 244.10493925834135,141.6689588308804 243.50674453644032,141.81230606778098 242.89611658079045,141.92946947263346 242.27342321083927,142.02037847058375 241.63903951378887,142.08497830145075 240.99334761865725,142.12323005271196 240.336736466098,142.13511068294267 239.66960157411717,142.12061303569553 238.99234479982795,142.07974584381114 238.30537409738687,142.01253372415775 237.60910327225758,141.91901716280302 236.5481782281553,141.7295490407912 235.1050196908228,141.38551754545313 233.63237619886706,140.93779466501644 232.13379547944854,140.38745900311596 230.61288774478044,139.73583636656497 229.0733169948114,138.98449657137024 227.51879219032855,138.13524966090804 225.95305831774624,137.19014154537092 224.3798873671055,136.1514490729909 222.80306924502003,135.02167454491266 220.43931340680223,133.16224606944857 217.31029991263563,130.3913889732203 214.23479051086153,127.3118956063791 211.24240403826354,123.95342317346997 208.36195881237757,120.34831559994957 205.62119509534048,116.5312920425032 203.04650794000113,112.53911252458637 200.66269299113267,108.41022391730398 198.49270768981847,104.18438967502422 196.5574501807448,99.90230689157625 194.87555805164345,95.6052143649892 193.4632288431334,91.33449544532385 192.3340640575503,87.13127949038903 191.49893816904353,83.03604576754229 191.07050379188038,80.05925892556985 190.88049941105876,78.12880711065702 190.76755081857834,76.24705486671644 190.73193011749154,74.4185354997258 190.77372312118726,72.64765407299954 190.89282914665898,70.93867679500552 191.08896125705883,69.2957207416952 191.36164695295378,67.72274393810696 191.7102293106179,66.2235358231371 192.13386856461943,64.80170812044973 192.50024687980104,63.788186019740124 192.7673945745579,63.13843951658686 193.05267252271642,62.50989937679056 193.3559088835078,61.902944209428775 193.67692099868705,61.317939621598846 194.0155155025595,60.755237998189706 194.37148843845674,60.215178289618585 194.74462538159295,59.698085807659766 195.13470156822606,59.20427202948905 195.54148203104714,58.73403441006151 195.96472174071585,58.287656202935786 196.40416575345705,57.86540628965268 196.85954936462937,57.46753901777103 197.33059826817333,57.09429404765818 197.81702872184306,56.74589620812763 198.31854771812206,56.42255536101045 198.83485316072,56.124466274742446 199.3656340465442,55.85180850704294 199.91057065303613,55.604746296755856 200.46933473076058,55.383428464918424 201.04158970113065,55.18798832511692 201.6269908591502,55.0185436031836 202.22518558105122,54.875196366283 202.8358135367011,54.75803296143054 203.45850690665227,54.667123963480265 204.09289060370267,54.60252413261325 204.7385824988343,54.564272381352055 205.2300387025806,54.55288895316815 205.56100636487545,54.553543269007406 206.06232854337435,54.56688939836846 206.7395853176636,54.60775659025286 207.42655602010467,54.674968709906246 208.12282684523393,54.768485271260985 209.1837518893362,54.95795339327279 210.62691042666873,55.301984888610846 212.09955391862445,55.74970776904755 213.598134638043,56.30004343094802 215.1190423727111,56.95166606749904 216.65861312268015,57.70300586269377 218.21313792716296,58.55225277315595 219.7788717997453,59.497360888693066 221.352042750386,60.53605336107307 222.9288608724715,61.665827889151316 225.29261671068932,63.52525636461543 228.42163020485592,66.29611346084369 231.49713960663,69.37560682768488 234.489526079228,72.73407926059403 237.36997130511392,76.33918683411441 240.11073502215106,80.15621039156078 242.6854221774904,84.1483899094776 243.9026692834621,86.19820437002946 243.9026692834621,86.19820437002947 " stroke="orange" stroke-width="2" fill="none"/>
  <circle stroke="#444" stroke-width="1" fill="red" cy="86.19820437002947" r="3" cx="243.9026692834621"/>
  <text dy="4" font-size="16" font-style="italic" stroke="none" fill="white" font-family="CMU Serif" x="256.0270249364442" text-anchor="middle" y="79.19820437002943">0
  </text>
  <circle stroke="#444" stroke-width="1" fill="red" cy="108.86210332939018" r="3" cx="253.2298321762521"/>
  <text dy="4" font-size="16" font-style="italic" stroke="none" fill="white" font-family="CMU Serif" x="266.8199869837682" text-anchor="middle" y="105.49941209947531">11
  </text>
  <circle stroke="#444" stroke-width="1" fill="red" cy="128.70761833453832" r="3" cx="254.42102139582033"/>
  <text dy="4" font-size="16" font-style="italic" stroke="none" fill="white" font-family="CMU Serif" x="268.1687484806886" text-anchor="middle" y="131.35336964559914">10
  </text>
  <circle stroke="#444" stroke-width="1" fill="red" cy="140.41715966646473" r="3" cx="247.15705875275083"/>
  <text dy="4" font-size="16" font-style="italic" stroke="none" fill="white" font-family="CMU Serif" x="254.15705875275088" text-anchor="middle" y="152.54151531944683">9
  </text>
  <circle stroke="#444" stroke-width="1" fill="red" cy="140.85316518154082" r="3" cx="233.38431717110396"/>
  <text dy="4" font-size="16" font-style="italic" stroke="none" fill="white" font-family="CMU Serif" x="228.80174147613468" text-anchor="middle" y="154.0819217368591">8
  </text>
  <circle stroke="#444" stroke-width="1" fill="red" cy="129.89880755410653" r="3" cx="216.7931916352445"/>
  <text dy="4" font-size="16" font-style="italic" stroke="none" fill="white" font-family="CMU Serif" x="207.0859382013077" text-anchor="middle" y="139.98688124383153">7
  </text>
  <circle stroke="#444" stroke-width="1" fill="red" cy="110.48929806403453" r="3" cx="201.8292608340294"/>
  <text dy="4" font-size="16" font-style="italic" stroke="none" fill="white" font-family="CMU Serif" x="189.70490518104884" text-anchor="middle" y="117.48929806403726">6
  </text>
  <circle stroke="#444" stroke-width="1" fill="red" cy="87.8253991046738" r="3" cx="192.50209794123944"/>
  <text dy="4" font-size="16" font-style="italic" stroke="none" fill="white" font-family="CMU Serif" x="178.9119431337229" text-anchor="middle" y="91.18809033458695">5
  </text>
  <circle stroke="#444" stroke-width="1" fill="red" cy="67.97988409952569" r="3" cx="191.3109087216712"/>
  <text dy="4" font-size="16" font-style="italic" stroke="none" fill="white" font-family="CMU Serif" x="177.56318163680015" text-anchor="middle" y="65.33413278847945">4
  </text>
  <circle stroke="#444" stroke-width="1" fill="red" cy="56.27034276759928" r="3" cx="198.57487136474072"/>
  <text dy="4" font-size="16" font-style="italic" stroke="none" fill="white" font-family="CMU Serif" x="191.57487136475635" text-anchor="middle" y="44.14598711460811">3
  </text>
  <circle stroke="#444" stroke-width="1" fill="red" cy="55.834337252523156" r="3" cx="212.34761294638758"/>
  <text dy="4" font-size="16" font-style="italic" stroke="none" fill="white" font-family="CMU Serif" x="216.93018864132046" text-anchor="middle" y="42.605580697192245">2
  </text>
  <circle stroke="#444" stroke-width="1" fill="red" cy="66.78869487995745" r="3" cx="228.938738482247"/>
  <text dy="4" font-size="16" font-style="italic" stroke="none" fill="white" font-family="CMU Serif" x="238.64599191620016" text-anchor="middle" y="56.700621190248164">1
  </text>
</svg>