<?xml version="1.0" encoding="UTF-8"?>
<!DOCTYPE svg PUBLIC "-//W3C//DTD SVG 1.1//EN"
    "http://www.w3.org/Graphics/SVG/1.1/DTD/svg11.dtd">
<svg xmlns="http://www.w3.org/2000/svg" style="background : #444;" height="83.57087312842762" width="300.0" xmlns:xlink="http://www.w3.org/1999/xlink" version="1.11.1">
  <polyline points="45,74.99956798877703 51.5625,68.48928055592674 61.40625,59.39895173016522 67.96875,54.2099361713875 72.890625,50.956575630004394 76.171875,49.14168998371214 79.453125,47.6358310483686 82.734375,46.456995298156635 86.015625,45.619270963153184 88.4765625,45.221011629577546 90.1171875,45.066657204109845 91.34765625,45.00960973735835 91.962890625,45 92.373046875,45.00060263693154 93.3984375,45.02663844712819 95.0390625,45.14109377079166 96.6796875,45.34482525643233 99.140625,45.81641020969283 102.421875,46.74975562084113 105.703125,48.02071367751553 108.984375,49.61409519876582 112.265625,51.51085773065582 115.546875,53.68833312204933 120.46875,57.423116080891006 130.3125,66.19581212423063 137.6953125,73.44779369293997 138.720703125,74.4725186217604 139.0283203125,74.7801106509266 139.18212890625,74.93391733973239 139.2462158203125,74.99800420139644 139.2718505859375,74.97549701311611 139.310302734375,74.93704490735726 139.74609375,74.50127676094455 141.796875,72.45353884762788 146.71875,67.60557982910683 153.28125,61.47232847655418 159.84375,55.98379959336405 164.765625,52.449382164630165 168.046875,50.42433976151157 171.328125,48.69299516098908 174.609375,47.27603960954911 177.890625,46.1904070997465 181.171875,45.44907199257629 183.6328125,45.1245034627523 185.2734375,45.01966763281422 186.9140625,45.00447102625704 188.5546875,45.078959080590344 190.1953125,45.24290907821793 191.8359375,45.495830812358385 194.296875,46.04030896527854 197.578125,47.068419621096496 200.859375,48.43033457869799 204.140625,50.109777633985495 207.421875,52.086677814255864 212.34375,55.55717521872389 222.1875,63.957388185106026 230.390625,71.90017404227714 232.44140625,73.94563193876303 233.056640625,74.56066505701068 233.3642578125,74.86826700508234 233.4796142578125,74.98362303195266 233.49884033203125,74.99628687213992 233.62060546875,74.87452209750577 234.4921875,74.0031230123678 238.59375,69.92588066112178 245.15625,63.63028276533527 251.71875,57.876556966773094 255,55.289970027213364 " stroke="orange" stroke-width="2" fill="none"/>
</svg>