<?xml version="1.0" encoding="UTF-8"?>
<!DOCTYPE svg PUBLIC "-//W3C//DTD SVG 1.1//EN"
    "http://www.w3.org/Graphics/SVG/1.1/DTD/svg11.dtd">
<svg xmlns="http://www.w3.org/2000/svg" style="background : #444;" height="169.88799944949773" width="300.0" xmlns:xlink="http://www.w3.org/1999/xlink" version="1.11.1">
  <polyline points="142.14974272948143,93.56755534147133 142.13511068294267,94.75982190430344 142.01810718810964,97.14148275538756 141.78438207011092,99.5145337022925 141.43449839322767,101.87325785743244 140.96929905788375,104.21197284771779 140.38990477002454,106.52504450388975 139.69771134123854,108.80690043372742 138.89438632612462,111.05204344642887 137.9818650050072,113.25506479582519 136.96234572167623,115.41065721052382 135.83828458738463,117.51362767959013 134.61238956386103,119.5589099629657 133.2876139395928,121.54157679648429 131.86714921509548,123.45685176208286 130.35441741430836,125.30012079461102 128.7530628406392,127.06694329751808 127.06694329751808,128.7530628406392 125.30012079461102,130.35441741430833 123.45685176208286,131.86714921509548 121.54157679648429,133.2876139395928 119.5589099629657,134.61238956386103 117.51362767959013,135.83828458738463 115.41065721052382,136.96234572167623 113.25506479582519,137.9818650050072 111.05204344642888,138.89438632612462 108.80690043372742,139.69771134123854 106.52504450388975,140.38990477002454 104.21197284771779,140.96929905788375 101.87325785743244,141.43449839322767 99.51453370229251,141.78438207011092 97.14148275538756,142.01810718810964 94.75982190430344,142.13511068294267 92.37528877863923,142.13511068294267 89.99362792755511,142.01810718810964 87.62057698065018,141.78438207011092 85.26185282551023,141.43449839322767 82.92313783522489,140.96929905788375 80.61006617905294,140.38990477002454 78.32821024921526,139.69771134123854 76.0830672365138,138.89438632612462 73.88004588711748,137.9818650050072 71.72445347241884,136.96234572167623 69.62148300335254,135.83828458738463 67.57620071997698,134.61238956386103 65.59353388645837,133.2876139395928 63.67825892085982,131.86714921509548 61.83498988833166,130.35441741430836 60.06816738542459,128.7530628406392 58.38204784230348,127.06694329751808 56.78069326863432,125.300120794611 55.2679614678472,123.45685176208288 53.84749674334987,121.54157679648429 52.52272111908164,119.5589099629657 51.29682609555804,117.51362767959014 50.17276496126644,115.41065721052382 49.153245677935466,113.25506479582519 48.240724356818035,111.05204344642888 47.43739934170413,108.8069004337274 46.745205912918124,106.52504450388975 46.16581162505894,104.2119728477178 45.70061228971498,101.87325785743244 45.35072861283175,99.51453370229251 45.117003494833035,97.14148275538759 45,94.75982190430344 45,92.37528877863924 45.117003494833035,89.99362792755511 45.35072861283175,87.62057698065018 45.70061228971498,85.26185282551026 46.165811625058936,82.92313783522488 46.74520591291812,80.61006617905294 47.43739934170412,78.32821024921526 48.24072435681803,76.0830672365138 49.153245677935466,73.88004588711749 50.17276496126643,71.72445347241884 51.29682609555803,69.62148300335255 52.52272111908164,67.576200719977 53.847496743349865,65.59353388645837 55.2679614678472,63.67825892085982 56.78069326863431,61.83498988833166 58.382047842303464,60.06816738542459 60.06816738542458,58.38204784230348 61.83498988833164,56.78069326863434 63.67825892085979,55.26796146784722 65.59353388645839,53.847496743349865 67.57620071997698,52.522721119081645 69.62148300335252,51.29682609555804 71.72445347241884,50.17276496126644 73.88004588711745,49.15324567793548 76.08306723651381,48.24072435681803 78.32821024921525,47.43739934170413 80.61006617905292,46.745205912918124 82.92313783522488,46.16581162505894 85.26185282551022,45.70061228971499 87.62057698065018,45.350728612831745 89.99362792755511,45.117003494833035 92.37528877863923,45 94.75982190430342,45 97.14148275538754,45.117003494833035 99.51453370229248,45.350728612831745 101.87325785743244,45.70061228971498 104.21197284771779,46.165811625058936 106.52504450388975,46.74520591291812 108.8069004337274,47.43739934170412 111.05204344642885,48.24072435681803 113.2550647958252,49.15324567793547 115.41065721052382,50.17276496126643 117.51362767959012,51.29682609555803 119.55890996296567,52.52272111908164 121.54157679648426,53.84749674334985 123.45685176208288,55.26796146784721 125.30012079461102,56.78069326863432 127.06694329751808,58.382047842303464 128.7530628406392,60.06816738542457 130.35441741430833,61.83498988833164 131.86714921509542,63.67825892085978 133.2876139395928,65.59353388645839 134.61238956386103,67.57620071997698 135.83828458738463,69.62148300335252 136.96234572167623,71.72445347241883 137.9818650050072,73.88004588711745 138.89438632612462,76.08306723651381 139.69771134123854,78.32821024921525 140.38990477002454,80.61006617905292 140.96929905788372,82.92313783522486 141.43449839322767,85.2618528255102 141.78438207011092,87.62057698065018 142.01810718810964,89.99362792755511 142.13511068294267,92.37528877863923 142.14974272948143,93.56755534147132 " stroke="orange" stroke-width="2" fill="none"/>
  <polyline points="243.9026692834621,86.20084747533666 244.4924667028722,87.23703861846671 245.63263312898582,89.3288682924127 246.71795265759357,91.44242197640676 247.74581065888836,93.57260793449873 248.71373093291527,95.71429436213333 249.6193816749544,97.86232174911677 250.46058109304258,100.01151530932887 251.23530266410123,102.15669744723593 251.94168001600806,104.29270023117198 252.57801142385105,106.41437784333877 253.14276390953253,108.51661897653156 253.63457693484816,110.59435914772595 254.0522656791421,112.64259289886097 254.39482389364423,114.65638585542602 254.66142632561116,116.63088661380135 254.85143070643275,118.56133842871417 254.9643792989132,120.44309067265475 255,122.27161003964538 254.95820699630428,124.04249146637166 254.83910097083256,125.75146874436565 254.6429688604327,127.39442479767598 254.37028316453777,128.96740160126424 254.0217008068736,130.46660971623407 253.59806155287205,131.88843741892146 253.10038598660248,133.2294594018532 252.5298730520951,134.4864450256127 251.88789716498033,135.65636610173345 251.17600490140057,136.7364041878701 250.39591127217327,137.72395737767295 249.5494955911793,138.6166465690083 248.63879694793147,139.41232119542394 247.66600929522912,140.10906440705196 246.63347616373375,140.705197688468 245.5436850161984,141.19928490238206 244.39926125495185,141.5901357494189 243.2029618970746,141.87680863565348 241.95766893250334,142.05861294099333 240.66638238106444,142.13511068294267 239.33221306516364,142.10611757174075 237.95837511554237,141.97170345433196 236.5481782281553,141.73219214609838 235.1050196908228,141.3881606507603 233.63237619886706,140.94043777032363 232.13379547944854,140.39010210842315 230.61288774478044,139.73847947187215 229.0733169948114,138.98713967667743 227.51879219032855,138.13789276621523 225.95305831774624,137.1927846506781 224.3798873671055,136.15409217829813 222.80306924502003,135.02431765021987 221.22640264445883,133.8061827922381 219.6536858933624,132.5026221979217 218.08870780413775,131.1167762589208 216.53523854607778,129.65198359948823 214.997020562693,128.11177303344124 213.47775955583734,126.49985506293991 211.98111555834785,124.82011293956259 210.51069411670503,123.07659330921247 209.07003760495553,121.27349646339337 207.66261669082274,119.41516622033953 206.2918219745643,117.50607946037691 204.96095582071914,115.55083534072655 203.67322440242197,113.55414421573185 202.43172997745143,111.52081628920237 201.2394634146193,109.45575002621167 200.09929698850573,107.36392035226568 199.01397745989797,105.25036666827162 197.98611945860318,103.12018071017965 197.01819918457628,100.97849428254504 196.11254844253713,98.83046689556161 195.27134902444897,96.68127333534952 194.49662745339032,94.53609119744243 193.79025010148348,92.40008841350641 193.1539186936405,90.2784108013396 192.589166207959,88.17616966814681 192.0973531826434,86.09842949695243 191.67966443834942,84.0501957458174 191.33710622384731,82.03640278925235 191.07050379188038,80.06190203087704 190.88049941105876,78.13145021596421 190.76755081857834,76.24969797202364 190.73193011749154,74.42117860503299 190.77372312118726,72.65029717830674 190.89282914665898,70.9413199003127 191.08896125705883,69.29836384700239 191.36164695295378,67.72538704341414 191.7102293106179,66.22617892844428 192.13386856461943,64.80435122575692 192.63154413088907,63.46332924282518 193.20205706539645,62.20634361906566 193.8440329525112,61.036422542944905 194.55592521609094,59.95638445680828 195.33601884531825,58.96883126700544 196.18243452631225,58.076142075670056 197.09313316956008,57.280467449254424 198.0659208222624,56.58372423762643 199.09845395375777,55.98759095621038 200.18824510129315,55.49350374229631 201.3326688625397,55.10265289525948 202.5289682204169,54.815980009024884 203.77426118498818,54.634175703685045 205.0655477364271,54.5576779617357 206.3997170523279,54.58667107293762 207.77355500194912,54.721085190346415 209.1837518893362,54.960596498579974 210.62691042666873,55.30462799391803 212.09955391862445,55.75235087435474 213.598134638043,56.302686536255216 215.1190423727111,56.954309172806234 216.65861312268015,57.70564896800096 218.21313792716296,58.554895878463135 219.7788717997453,59.50000399400025 221.352042750386,60.538696466380266 222.9288608724715,61.6684709944585 224.50552747303266,62.886605852440255 226.07824422412915,64.19016644675668 227.64322231335376,65.57601238575756 229.19669157141374,67.04080504519015 230.73490955479852,68.58101561123715 232.2541705616542,70.19293358173844 233.7508145591437,71.8726757051158 235.2212360007865,73.6161953354659 236.66189251253599,75.41929218128499 238.0693134266688,77.27762242433883 239.44010814292722,79.18670918430144 240.7709742967724,81.14195330395182 242.05870571506958,83.13864442894653 243.30020014004012,85.17197235547599 243.9026692834621,86.20084747533664 " stroke="orange" stroke-width="2" fill="none"/>
  <circle stroke="#444" stroke-width="1" fill="red" cy="86.20084747533666" r="3" cx="243.9026692834621"/>
  <text dy="4" font-size="16" font-style="italic" stroke="none" fill="white" font-family="CMU Serif" x="256.0270249364442" text-anchor="middle" y="79.20084747533662">0
  </text>
  <circle stroke="#444" stroke-width="1" fill="red" cy="108.86474643469737" r="3" cx="253.2298321762521"/>
  <text dy="4" font-size="16" font-style="italic" stroke="none" fill="white" font-family="CMU Serif" x="266.8199869837682" text-anchor="middle" y="105.5020552047825">11
  </text>
  <circle stroke="#444" stroke-width="1" fill="red" cy="128.7102614398455" r="3" cx="254.42102139582033"/>
  <text dy="4" font-size="16" font-style="italic" stroke="none" fill="white" font-family="CMU Serif" x="268.1687484806886" text-anchor="middle" y="131.35601275090633">10
  </text>
  <circle stroke="#444" stroke-width="1" fill="red" cy="140.4198027717719" r="3" cx="247.15705875275083"/>
  <text dy="4" font-size="16" font-style="italic" stroke="none" fill="white" font-family="CMU Serif" x="254.15705875275088" text-anchor="middle" y="152.54415842475402">9
  </text>
  <circle stroke="#444" stroke-width="1" fill="red" cy="140.85580828684803" r="3" cx="233.38431717110396"/>
  <text dy="4" font-size="16" font-style="italic" stroke="none" fill="white" font-family="CMU Serif" x="228.80174147613468" text-anchor="middle" y="154.08456484216632">8
  </text>
  <circle stroke="#444" stroke-width="1" fill="red" cy="129.90145065941374" r="3" cx="216.7931916352445"/>
  <text dy="4" font-size="16" font-style="italic" stroke="none" fill="white" font-family="CMU Serif" x="207.0859382013077" text-anchor="middle" y="139.98952434913875">7
  </text>
  <circle stroke="#444" stroke-width="1" fill="red" cy="110.49194116934171" r="3" cx="201.8292608340294"/>
  <text dy="4" font-size="16" font-style="italic" stroke="none" fill="white" font-family="CMU Serif" x="189.70490518104884" text-anchor="middle" y="117.49194116934444">6
  </text>
  <circle stroke="#444" stroke-width="1" fill="red" cy="87.82804220998099" r="3" cx="192.50209794123944"/>
  <text dy="4" font-size="16" font-style="italic" stroke="none" fill="white" font-family="CMU Serif" x="178.9119431337229" text-anchor="middle" y="91.19073343989413">5
  </text>
  <circle stroke="#444" stroke-width="1" fill="red" cy="67.98252720483289" r="3" cx="191.3109087216712"/>
  <text dy="4" font-size="16" font-style="italic" stroke="none" fill="white" font-family="CMU Serif" x="177.56318163680015" text-anchor="middle" y="65.33677589378665">4
  </text>
  <circle stroke="#444" stroke-width="1" fill="red" cy="56.27298587290647" r="3" cx="198.57487136474072"/>
  <text dy="4" font-size="16" font-style="italic" stroke="none" fill="white" font-family="CMU Serif" x="191.57487136475635" text-anchor="middle" y="44.1486302199153">3
  </text>
  <circle stroke="#444" stroke-width="1" fill="red" cy="55.83698035783034" r="3" cx="212.34761294638758"/>
  <text dy="4" font-size="16" font-style="italic" stroke="none" fill="white" font-family="CMU Serif" x="216.93018864132046" text-anchor="middle" y="42.60822380249943">2
  </text>
  <circle stroke="#444" stroke-width="1" fill="red" cy="66.79133798526463" r="3" cx="228.938738482247"/>
  <text dy="4" font-size="16" font-style="italic" stroke="none" fill="white" font-family="CMU Serif" x="238.64599191620016" text-anchor="middle" y="56.70326429555535">1
  </text>
</svg>