<?xml version="1.0" encoding="UTF-8"?>
<!DOCTYPE svg PUBLIC "-//W3C//DTD SVG 1.1//EN"
    "http://www.w3.org/Graphics/SVG/1.1/DTD/svg11.dtd">
<svg xmlns="http://www.w3.org/2000/svg" style="background : #444;" height="154.5880043496606" width="300.0" xmlns:xlink="http://www.w3.org/1999/xlink" version="1.11.1">
  <polyline points="45,130.2351144941805 51.5625,123.72482706133017 61.40625,114.63449823556867 67.96875,109.44548267679095 72.890625,106.19212213540784 76.171875,104.37723648911559 79.453125,102.87137755377205 82.734375,101.69254180356008 86.015625,100.85481746855663 88.4765625,100.45655813498098 90.1171875,100.3022037095133 91.34765625,100.2451562427618 91.962890625,100.23554650540345 92.373046875,100.23614914233498 93.3984375,100.26218495253164 95.0390625,100.3766402761951 96.6796875,100.58037176183578 99.140625,101.05195671509628 102.421875,101.98530212624458 105.703125,103.25626018291898 108.984375,104.84964170416927 112.265625,106.74640423605928 115.546875,108.92387962745278 120.46875,112.65866258629445 130.3125,121.43135862963406 137.6953125,128.68334019834342 138.720703125,129.70806512716388 139.0283203125,130.01565715633006 139.18212890625,130.16946384513585 139.2462158203125,130.2335507067999 139.2718505859375,130.21104351851955 139.310302734375,130.1725914127607 139.74609375,129.73682326634798 141.796875,127.68908535303132 146.71875,122.84112633451028 153.28125,116.70787498195763 159.84375,111.21934609876749 164.765625,107.68492867003361 168.046875,105.65988626691501 171.328125,103.92854166639253 174.609375,102.51158611495256 177.890625,101.42595360514994 181.171875,100.68461849797974 183.6328125,100.36004996815575 185.2734375,100.25521413821767 186.9140625,100.24001753166048 188.5546875,100.31450558599379 190.1953125,100.47845558362138 191.8359375,100.73137731776183 194.296875,101.27585547068199 197.578125,102.30396612649994 200.859375,103.66588108410143 204.140625,105.34532413938894 207.421875,107.32222431965931 212.34375,110.79272172412735 222.1875,119.19293469050947 230.390625,127.13572054768059 232.44140625,129.18117844416645 233.056640625,129.79621156241413 233.3642578125,130.1038135104858 233.4796142578125,130.2191695373561 233.49884033203125,130.23183337754335 233.62060546875,130.11006860290922 234.4921875,129.23866951777123 238.59375,125.16142716652521 245.15625,118.86582927073871 251.71875,113.11210347217654 255,110.5255165326168 " stroke="orange" stroke-width="2" fill="none"/>
  <polyline points="45,100.23554650540345 50.625,94.64344760253536 59.0625,86.68240236065293 64.6875,81.93104419312971 70.3125,77.82132058733562 74.53125,75.24775485780769 77.34375,73.80337101328539 80.15625,72.59113110912912 82.96875,71.62168179635341 85.78125,70.90353738674922 88.59375,70.44300507485856 91.40625,70.24412954423688 94.21875,70.3086574445058 97.03125,70.63602205118069 99.84375,71.22334824300066 102.65625,72.0654777530463 105.46875,73.15501447187441 108.28125,74.48238940478925 111.09375,76.03594471275436 115.3125,78.76000495514607 120.9375,83.04109805140169 129.375,90.54001129541284 135,96.00194626360744 " stroke="orange" stroke-width="2" fill="none"/>
  <polyline points="45,70.24412954423688 48.75,66.50388754268005 56.25,59.25595367165547 63.75,52.69121135602303 69.375,48.46386988641551 73.125,46.061696296416095 75,45 " stroke="orange" stroke-width="2" fill="none"/>
</svg>