<?xml version="1.0" encoding="UTF-8"?>
<!DOCTYPE svg PUBLIC "-//W3C//DTD SVG 1.1//EN"
    "http://www.w3.org/Graphics/SVG/1.1/DTD/svg11.dtd">
<svg xmlns="http://www.w3.org/2000/svg" style="background : #444;" height="154.59347793185782" width="300.0" xmlns:xlink="http://www.w3.org/1999/xlink" version="1.11.1">
  <polyline points="45,130.23937172477832 52.23278928721294,123.07644771784967 61.17300851314039,114.83844904747721 66.69836786163881,110.38398451547626 70.11322773906782,107.95808874889632 73.93115714885175,105.58863853373728 77.34601702628078,103.80612404730775 79.4565164973502,102.87424473991872 81.81612663924449,101.9928517744384 84.5788063134937,101.18318572551402 86.68930578456312,100.73027211415697 89.04891592645743,100.39682487360827 91.15941539752684,100.25487390417082 93.51902553942114,100.27180594077979 96.28170521367035,100.52703464004144 98.39220468473977,100.89185557237431 100.75181482663407,101.47152844386804 103.51449450088329,102.37594911360145 105.62499397195272,103.22643894756467 109.0398538493817,104.88350663449253 112.45471372681072,106.86875478179611 117.98007307530916,110.70886005369474 123.50543242380758,115.20960423872727 132.44565164973505,123.49537696436623 137.97101099823345,128.962988508031 138.8723018722381,129.8639037922415 139.121412543063,130.1130050338341 139.21656435235778,130.20815647507487 139.25290910941737,130.23424222307972 139.27006877600093,130.21708255852184 139.5244820754179,129.96267318028168 140.73369067248268,128.75406813919767 143.09330081437696,126.40437292440129 151.3813398371246,118.4339205202692 160.32155906305204,110.85646997015071 165.8469184115505,106.99083418138885 170.31702802451417,104.43367952498409 173.73188790194322,102.86294892079177 176.49456757619245,101.85068969627073 178.60506704726188,101.23910446511448 180.96467718915613,100.72531355740202 183.72735686340536,100.35583610558498 185.8378563344748,100.24412087282485 188.1974664763691,100.2949134934106 190.30796594743853,100.49724195452578 192.6675760893328,100.89759126263881 195.43025576358204,101.59664514184021 197.54075523465147,102.29460799857466 199.90036537654575,103.23845276605124 203.7182947863297,105.11628138646313 208.1884043992934,107.82869892301747 211.6032642767224,110.23902494892438 215.42119368650634,113.23877310964687 221.59873323818456,118.65191992463292 228.8315225253975,125.59410084194099 232.64945193518142,129.3933766116131 233.39678394765602,130.14059663551075 233.47805329506693,130.2218658054511 233.50581821883475,130.22911272153112 233.53686034730217,130.19807060591017 233.6458946184809,130.08903695088614 233.85866053224618,129.87627927307875 234.20292301236586,129.5320734702474 235.41213160943065,128.32410277750046 240.53442142557412,123.2649143008856 247.76721071278706,116.49996736527267 253.2925700612855,111.84822766539456 255,110.52977376321464 " stroke="orange" stroke-width="2" fill="none"/>
  <polyline points="45,100.24412087282485 53.11529493745269,92.22743799718401 63.14635113760411,83.18425990823522 69.34588481235805,78.48389356326383 73.17740733775551,76.03070961106661 76.2771741751325,74.33301257366321 78.64518532448896,73.22145179137925 81.2927022752082,72.17821789509917 83.66071342456468,71.42998079013125 86.30823037528391,70.80605601633326 89.40799721266089,70.36697147797389 91.32375847535963,70.25479040937304 91.94875244731233,70.24463208960051 92.09629351022076,70.24413356541433 92.14669955499383,70.2441295442369 92.20305522628857,70.24422532549943 92.40100233397007,70.24540071963057 94.42352531273659,70.33221644786857 96.79153646209306,70.60650437014733 99.4390534128123,71.13157096079048 102.53882025018927,72.03388266431716 104.90683139954575,72.92655786283852 107.55434835026497,74.12571989662837 111.8381207623202,76.49186441211049 116.85364886239591,79.87254859994874 120.68517138779339,82.84351195262937 129.9844718999243,91.12731191758678 135,96.01052063102884 " stroke="orange" stroke-width="2" fill="none"/>
  <polyline points="45,70.2441295442369 47.70509831248423,67.54269542900516 51.0487837125347,64.23624623531157 54.78713763747792,60.6296798082479 60.83592135001262,55.13345137426672 67.91796067500631,49.49114403510032 73.32815729997476,45.94202218031957 75,45 " stroke="orange" stroke-width="2" fill="none"/>
</svg>