<?xml version="1.0" encoding="UTF-8"?>
<!DOCTYPE svg PUBLIC "-//W3C//DTD SVG 1.1//EN"
    "http://www.w3.org/Graphics/SVG/1.1/DTD/svg11.dtd">
<svg xmlns="http://www.w3.org/2000/svg" style="background : #444;" height="201.6625378772775" width="500.0" xmlns:xlink="http://www.w3.org/1999/xlink" version="1.11.1">
  <polyline points="45,113.33333333333333 57.8125,100.59577472124488 77.03125,82.4622827814016 89.84375,71.63974473315426 102.65625,62.27870763106773 112.265625,56.416696802698546 118.671875,53.126711379064425 125.078125,50.36549826404181 131.484375,48.15730816271937 137.890625,46.521534785287606 144.296875,45.47254451931443 150.703125,45.01955025512062 157.109375,45.166530472399785 163.515625,45.91219429871483 169.921875,47.24999284674922 176.328125,49.16817673074204 182.734375,51.64989925696166 189.140625,54.673364381934334 195.546875,58.21201813896596 205.15625,64.41682202441376 217.96875,74.16820074366268 237.1875,91.24905868835472 275.625,129.13841051413817 307.65625,157.4675247849199 320.46875,166.4184954941773 330.078125,171.9253613382952 336.484375,174.95974605301402 342.890625,177.45288896629137 349.296875,179.38289373365293 355.703125,180.73280984295656 362.109375,181.49078148441959 366.11328125,181.66074037424295 367.71484375,181.66306495677398 370.1171875,181.5961828357484 374.921875,181.2095207280632 381.328125,180.17275853858024 387.734375,178.54897060301093 394.140625,176.35241804525683 400.546875,173.60239236730314 406.953125,170.3230460191507 413.359375,166.54318027685466 422.96875,160.00865756567265 442.1875,144.32230710402945 455,132.42672571025992 " stroke="white" stroke-width="2" fill="none"/>
  <circle stroke="#444" stroke-width="1" fill="red" cy="113.33333333333333" r="3" cx="113.33333333333333"/>
  <text dy="4" font-size="16" font-style="italic" stroke="none" fill="white" font-family="CMU Serif" x="113.33333333333333" text-anchor="middle" y="127.33333333333333">A
  </text>
  <circle stroke="#444" stroke-width="1" fill="red" cy="77.44001728975842" r="3" cx="82.790388532989"/>
  <text dy="4" font-size="16" font-style="italic" stroke="none" fill="white" font-family="CMU Serif" x="73.71751305472213" text-anchor="middle" y="66.77779751356435">A&#39;
  </text>
  <circle stroke="#444" stroke-width="1" fill="red" cy="113.33333333333333" r="3" cx="181.66666666666666"/>
  <text dy="4" font-size="16" font-style="italic" stroke="none" fill="white" font-family="CMU Serif" x="181.66666666666666" text-anchor="middle" y="127.33333333333333">B
  </text>
  <circle stroke="#444" stroke-width="1" fill="red" cy="71.5564926705223" r="3" cx="214.72660734729175"/>
  <text dy="4" font-size="16" font-style="italic" stroke="none" fill="white" font-family="CMU Serif" x="223.4142851142592" text-anchor="middle" y="60.5781387402949">B&#39;
  </text>
  <circle stroke="#444" stroke-width="1" fill="red" cy="113.33333333333333" r="3" cx="318.3333333333333"/>
  <text dy="4" font-size="16" font-style="italic" stroke="none" fill="white" font-family="CMU Serif" x="318.3333333333333" text-anchor="middle" y="127.33333333333333">C
  </text>
  <circle stroke="#444" stroke-width="1" fill="red" cy="143.69291696436096" r="3" cx="291.1346465799601"/>
  <text dy="4" font-size="16" font-style="italic" stroke="none" fill="white" font-family="CMU Serif" x="300.4764203260509" text-anchor="middle" y="133.2654885528662">C&#39;
  </text>
  <circle stroke="#444" stroke-width="1" fill="red" cy="45" r="3" cx="455"/>
  <text dy="4" font-size="16" font-style="italic" stroke="none" fill="white" font-family="CMU Serif" x="455" text-anchor="middle" y="59">D
  </text>
</svg>