<?xml version="1.0" encoding="UTF-8"?>
<!DOCTYPE svg PUBLIC "-//W3C//DTD SVG 1.1//EN"
    "http://www.w3.org/Graphics/SVG/1.1/DTD/svg11.dtd">
<svg xmlns="http://www.w3.org/2000/svg" style="background : #444;" height="201.6625378772775" width="500.0" xmlns:xlink="http://www.w3.org/1999/xlink" version="1.11.1">
  <polyline points="45,113.33333333333333 57.8125,100.59577472124488 77.03125,82.4622827814016 86.640625,74.22240367064201 93.046875,69.14868091127126 99.453125,64.46301547695947 105.859375,60.20655981985661 112.265625,56.416696802698546 118.671875,53.126711379064425 123.4765625,51.004821413514115 126.6796875,49.76076279609721 129.8828125,48.65636442724966 133.0859375,47.69405251924208 136.2890625,46.87594113981057 139.4921875,46.203827567838836 142.6953125,45.6791883449821 145.8984375,45.30317603190693 149.1015625,45.07661667627294 151.50390625,45.00508745195305 153.10546875,45.00431259086752 155.5078125,45.07351829594077 158.7109375,45.29698607796068 161.9140625,45.669920415904585 165.1171875,46.191502024003526 168.3203125,46.860585058752655 171.5234375,47.67569963617281 174.7265625,48.63505506094474 177.9296875,49.7365437603219 181.1328125,50.977745914179835 184.3359375,52.35593477103015 189.140625,54.673364381934334 195.546875,58.21201813896596 201.953125,62.23478185172914 208.359375,66.70632508668764 217.96875,74.16820074366268 237.1875,91.24905868835472 262.8125,116.46923359030662 282.03125,135.29241756083354 294.84375,146.96950176546005 304.453125,154.9745141075437 310.859375,159.8635786758008 317.265625,164.34398545108814 323.671875,168.37638469151375 330.078125,171.9253613382952 334.8828125,174.2509298637698 338.0859375,175.63471139230444 341.2890625,176.88162530840177 344.4921875,177.98893231261255 347.6953125,178.95419980279175 350.8984375,179.77530721819326 354.1015625,180.45045069805175 357.3046875,180.9781470444186 360.5078125,181.35723698054463 363.7109375,181.58688769765303 366.11328125,181.66074037424295 367.71484375,181.66306495677398 370.1171875,181.5961828357484 373.3203125,181.37580683658737 376.5234375,181.00595082297306 379.7265625,180.48742731801664 382.9296875,179.8213754469883 386.1328125,179.00925843481477 389.3359375,178.05286039157423 392.5390625,176.9542823930501 395.7421875,175.715937864955 400.546875,173.60239236730314 406.953125,170.3230460191507 413.359375,166.54318027685466 419.765625,162.29599229165711 426.171875,157.6187835317877 435.78125,149.8874844993534 448.59375,138.48496510836173 455,132.42672571025992 " stroke="orange" stroke-width="2" fill="none"/>
  <circle stroke="#444" stroke-width="1" fill="red" cy="113.33333333333333" r="3" cx="113.33333333333333"/>
  <text dy="4" font-size="16" font-style="italic" stroke="none" fill="white" font-family="CMU Serif" x="113.33333333333333" text-anchor="middle" y="127.33333333333333">A
  </text>
  <circle stroke="#444" stroke-width="1" fill="red" cy="77.60447989095664" r="3" cx="82.69643622699385"/>
  <text dy="4" font-size="16" font-style="italic" stroke="none" fill="white" font-family="CMU Serif" x="91.80960137735501" text-anchor="middle" y="88.23228403585142">A&#39;
  </text>
  <circle stroke="#444" stroke-width="1" fill="red" cy="113.33333333333333" r="3" cx="181.66666666666666"/>
  <text dy="4" font-size="16" font-style="italic" stroke="none" fill="white" font-family="CMU Serif" x="181.66666666666666" text-anchor="middle" y="127.33333333333333">B
  </text>
  <circle stroke="#444" stroke-width="1" fill="red" cy="71.31516975840034" r="3" cx="214.29462758302054"/>
  <text dy="4" font-size="16" font-style="italic" stroke="none" fill="white" font-family="CMU Serif" x="205.7081247306972" text-anchor="middle" y="82.37283536950666">B&#39;
  </text>
  <circle stroke="#444" stroke-width="1" fill="red" cy="113.33333333333333" r="3" cx="181.66666666666666"/>
  <text dy="4" font-size="16" font-style="italic" stroke="none" fill="white" font-family="CMU Serif" x="181.66666666666666" text-anchor="middle" y="127.33333333333333">B
  </text>
  <circle stroke="#444" stroke-width="1" fill="red" cy="143.40196137904618" r="3" cx="290.92932150056197"/>
  <text dy="4" font-size="16" font-style="italic" stroke="none" fill="white" font-family="CMU Serif" x="281.4989290481261" text-anchor="middle" y="153.7493136100781">C&#39;
  </text>
  <circle stroke="#444" stroke-width="1" fill="red" cy="45" r="3" cx="455"/>
  <text dy="4" font-size="16" font-style="italic" stroke="none" fill="white" font-family="CMU Serif" x="455" text-anchor="middle" y="59">D
  </text>
</svg>