<?xml version="1.0" encoding="UTF-8"?>
<!DOCTYPE svg PUBLIC "-//W3C//DTD SVG 1.1//EN"
    "http://www.w3.org/Graphics/SVG/1.1/DTD/svg11.dtd">
<svg xmlns="http://www.w3.org/2000/svg" style="background : #444;" height="201.65144667162824" width="500.0" xmlns:xlink="http://www.w3.org/1999/xlink" version="1.11.1">
  <polyline points="45,113.33333333333333 67.84851690034492,90.90819561912531 90.69703380068981,70.96696815173705 101.48464014775817,63.064902435294826 110.21199701116355,57.578671490735935 116.8791043909059,53.995280140283526 124.33315704810308,50.6585983244174 131.00026442784542,48.30439676867756 135.12076339517145,47.15751057027697 139.72762129125078,46.16022854553563 145.12142446478498,45.3806850792201 149.24192343211098,45.070115829808614 151.7885318445273,45.00220710627438 153.36242239943698,45.00768245785135 155.12208553439848,45.05671798099514 159.2425845017245,45.34855756612114 163.36308346905054,45.88752089673501 167.96994136512984,46.780255610307044 172.09044033245587,47.83506998460691 176.69729822853523,49.29607520876649 184.15135088573243,52.27284606160779 190.8184582654748,55.55154772546613 198.27251092267196,59.86635263479316 261.42425845017243,115.08190290826447 307.1212922508622,157.0577627019991 317.90889859793066,164.76974567613843 326.63625546133596,170.08069521344197 333.30336284107835,173.51912682633304 340.7574154982755,176.68425841657873 347.42452287801785,178.87814774841928 352.81832605155205,180.1976014707192 356.9388250188781,180.92537198061186 361.54568291495747,181.44804487511993 365.6661818822834,181.65338964971826 370.2730397783628,181.58892836926537 375.66684295189697,181.11946155798398 379.787341919223,180.47615795740373 384.39419981530233,179.4680888324217 388.5146987826284,178.31171099126695 393.12155667870763,176.73940884510432 400.57560933590486,173.58884526006446 407.24271671564725,170.16274647778008 414.69676937284436,165.69393465118193 426.75767992612094,157.17102878617175 446.2726431365946,140.62819999307035 455,132.42672571025992 " stroke="orange" stroke-width="2" fill="none"/>
  <circle stroke="#444" stroke-width="1" fill="red" cy="113.33333333333333" r="3" cx="113.33333333333333"/>
  <text dy="4" font-size="16" font-style="italic" stroke="none" fill="white" font-family="CMU Serif" x="113.33333333333333" text-anchor="middle" y="127.33333333333333">A
  </text>
  <circle stroke="#444" stroke-width="1" fill="red" cy="77.44001731387098" r="3" cx="82.7903885046525"/>
  <text dy="4" font-size="16" font-style="italic" stroke="none" fill="white" font-family="CMU Serif" x="73.71751302252824" text-anchor="middle" y="66.77779754095931">A&#39;
  </text>
  <circle stroke="#444" stroke-width="1" fill="red" cy="113.33333333333333" r="3" cx="181.66666666666666"/>
  <text dy="4" font-size="16" font-style="italic" stroke="none" fill="white" font-family="CMU Serif" x="181.66666666666666" text-anchor="middle" y="127.33333333333333">B
  </text>
  <circle stroke="#444" stroke-width="1" fill="red" cy="71.55649318295241" r="3" cx="214.72660799483407"/>
  <text dy="4" font-size="16" font-style="italic" stroke="none" fill="white" font-family="CMU Serif" x="223.4142858050895" text-anchor="middle" y="60.578139286980786">B&#39;
  </text>
  <circle stroke="#444" stroke-width="1" fill="red" cy="113.33333333333333" r="3" cx="318.3333333333333"/>
  <text dy="4" font-size="16" font-style="italic" stroke="none" fill="white" font-family="CMU Serif" x="318.3333333333333" text-anchor="middle" y="127.33333333333333">C
  </text>
  <circle stroke="#444" stroke-width="1" fill="red" cy="143.6929168330538" r="3" cx="291.134646433393"/>
  <text dy="4" font-size="16" font-style="italic" stroke="none" fill="white" font-family="CMU Serif" x="300.4764201878134" text-anchor="middle" y="133.26548842902136">C&#39;
  </text>
  <circle stroke="#444" stroke-width="1" fill="red" cy="45" r="3" cx="455"/>
  <text dy="4" font-size="16" font-style="italic" stroke="none" fill="white" font-family="CMU Serif" x="455" text-anchor="middle" y="59">D
  </text>
</svg>