<?xml version="1.0" encoding="UTF-8"?>
<!DOCTYPE svg PUBLIC "-//W3C//DTD SVG 1.1//EN"
    "http://www.w3.org/Graphics/SVG/1.1/DTD/svg11.dtd">
<svg xmlns="http://www.w3.org/2000/svg" style="background : #444;" height="272.73808023482815" width="300.0" xmlns:xlink="http://www.w3.org/1999/xlink" version="1.11.1">
  <circle stroke="orange" stroke-width="2" fill="none" cy="51.38885388126557" r="6.388853881265575" cx="150.00000000000006"/>
  <circle stroke="orange" stroke-width="2" fill="none" cy="51.38885388126557" r="6.388853881265575" cx="150.00000000000006"/>
  <circle stroke="orange" stroke-width="2" fill="none" cy="62.34564789445828" r="6.388853881265569" cx="143.42592359208442"/>
  <circle stroke="orange" stroke-width="2" fill="none" cy="62.34564789445829" r="6.388853881265575" cx="156.57407640791567"/>
  <circle stroke="orange" stroke-width="2" fill="none" cy="51.38885388126557" r="6.388853881265575" cx="150.00000000000006"/>
  <circle stroke="orange" stroke-width="2" fill="none" cy="62.34564789445828" r="6.388853881265569" cx="143.42592359208442"/>
  <circle stroke="orange" stroke-width="2" fill="none" cy="62.34564789445829" r="6.388853881265575" cx="156.57407640791567"/>
  <circle stroke="orange" stroke-width="2" fill="none" cy="73.302441907651" r="6.388853881265569" cx="136.85184718416878"/>
  <circle stroke="orange" stroke-width="2" fill="none" cy="84.25923592084371" r="6.388853881265555" cx="130.27777077625313"/>
  <circle stroke="orange" stroke-width="2" fill="none" cy="84.25923592084371" r="6.3888538812655815" cx="143.42592359208442"/>
  <circle stroke="orange" stroke-width="2" fill="none" cy="73.302441907651" r="6.3888538812655815" cx="163.14815281583128"/>
  <circle stroke="orange" stroke-width="2" fill="none" cy="84.25923592084371" r="6.3888538812655815" cx="156.57407640791567"/>
  <circle stroke="orange" stroke-width="2" fill="none" cy="84.25923592084371" r="6.3888538812655815" cx="169.72222922374692"/>
  <circle stroke="orange" stroke-width="2" fill="none" cy="51.38885388126557" r="6.388853881265575" cx="150.00000000000006"/>
  <circle stroke="orange" stroke-width="2" fill="none" cy="62.34564789445828" r="6.388853881265569" cx="143.42592359208442"/>
  <circle stroke="orange" stroke-width="2" fill="none" cy="62.34564789445829" r="6.388853881265575" cx="156.57407640791567"/>
  <circle stroke="orange" stroke-width="2" fill="none" cy="73.302441907651" r="6.388853881265569" cx="136.85184718416878"/>
  <circle stroke="orange" stroke-width="2" fill="none" cy="84.25923592084371" r="6.388853881265555" cx="130.27777077625313"/>
  <circle stroke="orange" stroke-width="2" fill="none" cy="84.25923592084371" r="6.3888538812655815" cx="143.42592359208442"/>
  <circle stroke="orange" stroke-width="2" fill="none" cy="73.302441907651" r="6.3888538812655815" cx="163.14815281583128"/>
  <circle stroke="orange" stroke-width="2" fill="none" cy="84.25923592084371" r="6.3888538812655815" cx="156.57407640791567"/>
  <circle stroke="orange" stroke-width="2" fill="none" cy="84.25923592084371" r="6.3888538812655815" cx="169.72222922374692"/>
  <circle stroke="orange" stroke-width="2" fill="none" cy="95.21602993403641" r="6.3888538812655815" cx="123.70369436833752"/>
  <circle stroke="orange" stroke-width="2" fill="none" cy="106.17282394722915" r="6.3888538812655575" cx="117.1296179604219"/>
  <circle stroke="orange" stroke-width="2" fill="none" cy="106.17282394722915" r="6.388853881265562" cx="130.27777077625313"/>
  <circle stroke="orange" stroke-width="2" fill="none" cy="117.12961796042185" r="6.388853881265562" cx="110.55554155250626"/>
  <circle stroke="orange" stroke-width="2" fill="none" cy="128.08641197361456" r="6.3888538812655575" cx="103.98146514459063"/>
  <circle stroke="orange" stroke-width="2" fill="none" cy="128.0864119736146" r="6.3888538812655575" cx="117.1296179604219"/>
  <circle stroke="orange" stroke-width="2" fill="none" cy="117.12961796042187" r="6.3888538812655575" cx="136.85184718416878"/>
  <circle stroke="orange" stroke-width="2" fill="none" cy="128.0864119736146" r="6.38885388126555" cx="130.27777077625313"/>
  <circle stroke="orange" stroke-width="2" fill="none" cy="128.0864119736146" r="6.3888538812655575" cx="143.42592359208442"/>
  <circle stroke="orange" stroke-width="2" fill="none" cy="95.21602993403644" r="6.388853881265555" cx="176.29630563166253"/>
  <circle stroke="orange" stroke-width="2" fill="none" cy="106.17282394722915" r="6.388853881265569" cx="169.72222922374692"/>
  <circle stroke="orange" stroke-width="2" fill="none" cy="106.17282394722915" r="6.3888538812655815" cx="182.87038203957817"/>
  <circle stroke="orange" stroke-width="2" fill="none" cy="117.12961796042187" r="6.388853881265569" cx="163.14815281583128"/>
  <circle stroke="orange" stroke-width="2" fill="none" cy="128.0864119736146" r="6.3888538812655575" cx="156.57407640791567"/>
  <circle stroke="orange" stroke-width="2" fill="none" cy="128.0864119736146" r="6.3888538812655815" cx="169.72222922374692"/>
  <circle stroke="orange" stroke-width="2" fill="none" cy="117.12961796042187" r="6.388853881265569" cx="189.44445844749382"/>
  <circle stroke="orange" stroke-width="2" fill="none" cy="128.0864119736146" r="6.3888538812655575" cx="182.87038203957817"/>
  <circle stroke="orange" stroke-width="2" fill="none" cy="128.0864119736146" r="6.3888538812655815" cx="196.01853485540943"/>
  <circle stroke="orange" stroke-width="2" fill="none" cy="51.38885388126557" r="6.388853881265575" cx="150.00000000000006"/>
  <circle stroke="orange" stroke-width="2" fill="none" cy="62.34564789445828" r="6.388853881265569" cx="143.42592359208442"/>
  <circle stroke="orange" stroke-width="2" fill="none" cy="62.34564789445829" r="6.388853881265575" cx="156.57407640791567"/>
  <circle stroke="orange" stroke-width="2" fill="none" cy="73.302441907651" r="6.388853881265569" cx="136.85184718416878"/>
  <circle stroke="orange" stroke-width="2" fill="none" cy="84.25923592084371" r="6.388853881265555" cx="130.27777077625313"/>
  <circle stroke="orange" stroke-width="2" fill="none" cy="84.25923592084371" r="6.3888538812655815" cx="143.42592359208442"/>
  <circle stroke="orange" stroke-width="2" fill="none" cy="73.302441907651" r="6.3888538812655815" cx="163.14815281583128"/>
  <circle stroke="orange" stroke-width="2" fill="none" cy="84.25923592084371" r="6.3888538812655815" cx="156.57407640791567"/>
  <circle stroke="orange" stroke-width="2" fill="none" cy="84.25923592084371" r="6.3888538812655815" cx="169.72222922374692"/>
  <circle stroke="orange" stroke-width="2" fill="none" cy="95.21602993403641" r="6.3888538812655815" cx="123.70369436833752"/>
  <circle stroke="orange" stroke-width="2" fill="none" cy="106.17282394722915" r="6.3888538812655575" cx="117.1296179604219"/>
  <circle stroke="orange" stroke-width="2" fill="none" cy="106.17282394722915" r="6.388853881265562" cx="130.27777077625313"/>
  <circle stroke="orange" stroke-width="2" fill="none" cy="117.12961796042185" r="6.388853881265562" cx="110.55554155250626"/>
  <circle stroke="orange" stroke-width="2" fill="none" cy="128.08641197361456" r="6.3888538812655575" cx="103.98146514459063"/>
  <circle stroke="orange" stroke-width="2" fill="none" cy="128.0864119736146" r="6.3888538812655575" cx="117.1296179604219"/>
  <circle stroke="orange" stroke-width="2" fill="none" cy="117.12961796042187" r="6.3888538812655575" cx="136.85184718416878"/>
  <circle stroke="orange" stroke-width="2" fill="none" cy="128.0864119736146" r="6.38885388126555" cx="130.27777077625313"/>
  <circle stroke="orange" stroke-width="2" fill="none" cy="128.0864119736146" r="6.3888538812655575" cx="143.42592359208442"/>
  <circle stroke="orange" stroke-width="2" fill="none" cy="95.21602993403644" r="6.388853881265555" cx="176.29630563166253"/>
  <circle stroke="orange" stroke-width="2" fill="none" cy="106.17282394722915" r="6.388853881265569" cx="169.72222922374692"/>
  <circle stroke="orange" stroke-width="2" fill="none" cy="106.17282394722915" r="6.3888538812655815" cx="182.87038203957817"/>
  <circle stroke="orange" stroke-width="2" fill="none" cy="117.12961796042187" r="6.388853881265569" cx="163.14815281583128"/>
  <circle stroke="orange" stroke-width="2" fill="none" cy="128.0864119736146" r="6.3888538812655575" cx="156.57407640791567"/>
  <circle stroke="orange" stroke-width="2" fill="none" cy="128.0864119736146" r="6.3888538812655815" cx="169.72222922374692"/>
  <circle stroke="orange" stroke-width="2" fill="none" cy="117.12961796042187" r="6.388853881265569" cx="189.44445844749382"/>
  <circle stroke="orange" stroke-width="2" fill="none" cy="128.0864119736146" r="6.3888538812655575" cx="182.87038203957817"/>
  <circle stroke="orange" stroke-width="2" fill="none" cy="128.0864119736146" r="6.3888538812655815" cx="196.01853485540943"/>
  <circle stroke="orange" stroke-width="2" fill="none" cy="139.04320598680727" r="6.388853881265574" cx="97.40738873667499"/>
  <circle stroke="orange" stroke-width="2" fill="none" cy="150" r="6.38885388126555" cx="90.83331232875936"/>
  <circle stroke="orange" stroke-width="2" fill="none" cy="150" r="6.3888538812655815" cx="103.98146514459063"/>
  <circle stroke="orange" stroke-width="2" fill="none" cy="160.9567940131927" r="6.3888538812655575" cx="84.25923592084374"/>
  <circle stroke="orange" stroke-width="2" fill="none" cy="171.9135880263854" r="6.3888538812655815" cx="77.68515951292811"/>
  <circle stroke="orange" stroke-width="2" fill="none" cy="171.91358802638544" r="6.38885388126555" cx="90.83331232875936"/>
  <circle stroke="orange" stroke-width="2" fill="none" cy="160.95679401319273" r="6.3888538812655185" cx="110.55554155250624"/>
  <circle stroke="orange" stroke-width="2" fill="none" cy="171.91358802638544" r="6.3888538812655575" cx="103.98146514459063"/>
  <circle stroke="orange" stroke-width="2" fill="none" cy="171.91358802638544" r="6.3888538812655575" cx="117.1296179604219"/>
  <circle stroke="orange" stroke-width="2" fill="none" cy="182.87038203957815" r="6.3888538812655575" cx="71.11108310501248"/>
  <circle stroke="orange" stroke-width="2" fill="none" cy="193.82717605277085" r="6.3888538812655575" cx="64.53700669709686"/>
  <circle stroke="orange" stroke-width="2" fill="none" cy="193.82717605277085" r="6.3888538812655575" cx="77.68515951292811"/>
  <circle stroke="orange" stroke-width="2" fill="none" cy="204.78397006596356" r="6.3888538812655815" cx="57.96293028918122"/>
  <circle stroke="orange" stroke-width="2" fill="none" cy="215.74076407915626" r="6.388853881265593" cx="51.3888538812656"/>
  <circle stroke="orange" stroke-width="2" fill="none" cy="215.74076407915626" r="6.3888538812655815" cx="64.53700669709686"/>
  <circle stroke="orange" stroke-width="2" fill="none" cy="204.7839700659636" r="6.3888538812655575" cx="84.25923592084374"/>
  <circle stroke="orange" stroke-width="2" fill="none" cy="215.7407640791563" r="6.3888538812655575" cx="77.68515951292811"/>
  <circle stroke="orange" stroke-width="2" fill="none" cy="215.7407640791563" r="6.388853881265565" cx="90.83331232875936"/>
  <circle stroke="orange" stroke-width="2" fill="none" cy="182.87038203957815" r="6.388853881265574" cx="123.70369436833751"/>
  <circle stroke="orange" stroke-width="2" fill="none" cy="193.82717605277085" r="6.3888538812655575" cx="117.12961796042188"/>
  <circle stroke="orange" stroke-width="2" fill="none" cy="193.82717605277085" r="6.3888538812655815" cx="130.27777077625313"/>
  <circle stroke="orange" stroke-width="2" fill="none" cy="204.7839700659636" r="6.388853881265567" cx="110.55554155250624"/>
  <circle stroke="orange" stroke-width="2" fill="none" cy="215.7407640791563" r="6.3888538812655575" cx="103.98146514459063"/>
  <circle stroke="orange" stroke-width="2" fill="none" cy="215.7407640791563" r="6.38885388126555" cx="117.12961796042188"/>
  <circle stroke="orange" stroke-width="2" fill="none" cy="204.7839700659636" r="6.3888538812655815" cx="136.85184718416878"/>
  <circle stroke="orange" stroke-width="2" fill="none" cy="215.7407640791563" r="6.3888538812655575" cx="130.27777077625313"/>
  <circle stroke="orange" stroke-width="2" fill="none" cy="215.7407640791563" r="6.388853881265572" cx="143.42592359208442"/>
  <circle stroke="orange" stroke-width="2" fill="none" cy="139.04320598680732" r="6.3888538812655575" cx="202.59261126332507"/>
  <circle stroke="orange" stroke-width="2" fill="none" cy="150.00000000000003" r="6.3888538812655575" cx="196.01853485540943"/>
  <circle stroke="orange" stroke-width="2" fill="none" cy="150.00000000000003" r="6.388853881265572" cx="209.1666876712407"/>
  <circle stroke="orange" stroke-width="2" fill="none" cy="160.95679401319273" r="6.3888538812655815" cx="189.44445844749382"/>
  <circle stroke="orange" stroke-width="2" fill="none" cy="171.91358802638544" r="6.3888538812655815" cx="182.87038203957817"/>
  <circle stroke="orange" stroke-width="2" fill="none" cy="171.91358802638547" r="6.3888538812655575" cx="196.01853485540943"/>
  <circle stroke="orange" stroke-width="2" fill="none" cy="160.95679401319273" r="6.3888538812655815" cx="215.74076407915632"/>
  <circle stroke="orange" stroke-width="2" fill="none" cy="171.91358802638547" r="6.3888538812655575" cx="209.16668767124068"/>
  <circle stroke="orange" stroke-width="2" fill="none" cy="171.91358802638547" r="6.388853881265543" cx="222.31484048707193"/>
  <circle stroke="orange" stroke-width="2" fill="none" cy="182.87038203957815" r="6.388853881265567" cx="176.29630563166253"/>
  <circle stroke="orange" stroke-width="2" fill="none" cy="193.82717605277088" r="6.3888538812655575" cx="169.72222922374692"/>
  <circle stroke="orange" stroke-width="2" fill="none" cy="193.82717605277088" r="6.3888538812655815" cx="182.87038203957817"/>
  <circle stroke="orange" stroke-width="2" fill="none" cy="204.78397006596362" r="6.3888538812655575" cx="163.14815281583128"/>
  <circle stroke="orange" stroke-width="2" fill="none" cy="215.7407640791563" r="6.3888538812655575" cx="156.57407640791564"/>
  <circle stroke="orange" stroke-width="2" fill="none" cy="215.7407640791563" r="6.3888538812655815" cx="169.72222922374692"/>
  <circle stroke="orange" stroke-width="2" fill="none" cy="204.78397006596362" r="6.3888538812655575" cx="189.44445844749382"/>
  <circle stroke="orange" stroke-width="2" fill="none" cy="215.74076407915632" r="6.388853881265543" cx="182.87038203957815"/>
  <circle stroke="orange" stroke-width="2" fill="none" cy="215.7407640791563" r="6.3888538812655815" cx="196.01853485540943"/>
  <circle stroke="orange" stroke-width="2" fill="none" cy="182.87038203957815" r="6.388853881265567" cx="228.88891689498757"/>
  <circle stroke="orange" stroke-width="2" fill="none" cy="193.82717605277088" r="6.388853881265543" cx="222.31484048707193"/>
  <circle stroke="orange" stroke-width="2" fill="none" cy="193.82717605277088" r="6.388853881265543" cx="235.46299330290321"/>
  <circle stroke="orange" stroke-width="2" fill="none" cy="204.78397006596362" r="6.3888538812655575" cx="215.74076407915632"/>
  <circle stroke="orange" stroke-width="2" fill="none" cy="215.7407640791563" r="6.3888538812655575" cx="209.16668767124068"/>
  <circle stroke="orange" stroke-width="2" fill="none" cy="215.7407640791563" r="6.388853881265567" cx="222.31484048707193"/>
  <circle stroke="orange" stroke-width="2" fill="none" cy="204.78397006596362" r="6.388853881265543" cx="242.03706971081883"/>
  <circle stroke="orange" stroke-width="2" fill="none" cy="215.74076407915632" r="6.388853881265543" cx="235.4629933029032"/>
  <circle stroke="orange" stroke-width="2" fill="none" cy="215.74076407915632" r="6.3888538812655575" cx="248.61114611873447"/>
</svg>