<?xml version="1.0" encoding="UTF-8"?>
<!DOCTYPE svg PUBLIC "-//W3C//DTD SVG 1.1//EN"
    "http://www.w3.org/Graphics/SVG/1.1/DTD/svg11.dtd">
<svg xmlns="http://www.w3.org/2000/svg" style="background : #444;" height="240.4540222658694" width="420.0" xmlns:xlink="http://www.w3.org/1999/xlink" version="1.11.1">
  <polygon points="54.166666666666664,175.46203805189728 345.8333333333333,175.46203805189728 272.91666666666663,49.16666666666666 " stroke="orange" stroke-width="2" fill="none"/>
  <polyline points="71.48717474235548,165.46203805189728 54.166666666666664,175.46203805189728 74.16666636204917,175.4585473934109 " stroke="white" stroke-width="1.25" fill="none"/>
  <text dy="4" font-size="16" font-style="italic" stroke="none" fill="white" font-family="CMU Serif" x="69.14376375832484" text-anchor="middle" y="153.69493794049063">30°
  </text>
  <polyline points="68.02307312721771,167.46203805189728 68.27732462114946,167.91953633883216 68.74027176470636,168.85824865137923 69.14085407635483,169.82522056154542 69.47735734410927,170.81631410619505 69.7483415694526,171.82728809847688 69.95264712952226,172.85381627713562 70.08939973948421,173.89150581988136 70.15801419386096,174.9359161415969 70.16666642297267,175.45924552510817 " stroke="white" stroke-width="1.25" fill="none"/>
  <text dy="4" font-size="16" font-style="italic" stroke="none" fill="white" font-family="CMU Serif" x="69.14376375832484" text-anchor="middle" y="153.69493794049063">30°
  </text>
  <text dy="4" font-size="16" font-style="italic" stroke="none" fill="white" font-family="CMU Serif" x="69.14376375832484" text-anchor="middle" y="153.69493794049063">30°
  </text>
  <polyline points="282.9136435154343,66.48891980779149 272.91666666666663,49.16666666666666 255.59615859097823,59.1666666666668 " stroke="white" stroke-width="1.25" fill="none"/>
  <text dy="4" font-size="16" font-style="italic" stroke="none" fill="white" font-family="CMU Serif" x="265.14956655526" text-anchor="middle" y="78.14376375832504">90°
  </text>
  <polyline points="280.91424814568074,63.02446917956652 280.5717902404973,63.21654506718622 279.87325303767705,63.575202541719165 279.1579605322373,63.89915630296346 278.4276355436401,64.18762609131821 277.6840370978713,64.43991711218976 276.92895619073226,64.65542170944107 276.16421147413496,64.83362082896272 275.3916448757815,64.97408526884229 274.61311716278635,65.07647671311966 273.83050345992126,65.14054854663848 273.045688733279,65.16614644903225 272.2605632502315,65.1532087664124 271.4770180266247,65.10176665986492 270.6969402721685,65.0119440303977 269.9222088449893,64.88395722051828 269.1546897263057,64.7181144931615 268.39623152611205,64.51481528922184 267.6486610307089,64.2745492654798 266.9137788027871,63.997895115237185 266.19335484468104,63.68551917450432 265.4891243352246,63.33817381709494 264.8027834504852,62.956695642494225 264.1359852784286,62.54200346086523 263.4903358373755,62.0950960800466 262.86739020781954,61.61704989987143 262.26864878693743,61.10901631960169 261.6955536747979,60.572218964723476 261.14948520099426,60.007950739780114 260.6317586000465,59.41757071434452 260.14362084358766,58.8025008496285 259.6862476369703,58.16422257361492 259.2607405875175,57.50427321296084 259.0602602061159,57.16666666666677 " stroke="white" stroke-width="1.25" fill="none"/>
  <text dy="4" font-size="16" font-style="italic" stroke="none" fill="white" font-family="CMU Serif" x="265.14956655526" text-anchor="middle" y="78.14376375832504">90°
  </text>
  <text dy="4" font-size="16" font-style="italic" stroke="none" fill="white" font-family="CMU Serif" x="265.14956655526" text-anchor="middle" y="78.14376375832504">90°
  </text>
  <polyline points="325.8333336379504,175.4585473934109 345.8333333333333,175.46203805189728 335.8333333333333,158.14152997620832 " stroke="white" stroke-width="1.25" fill="none"/>
  <text dy="4" font-size="16" font-style="italic" stroke="none" fill="white" font-family="CMU Serif" x="319.85388031566475" text-anchor="middle" y="160.45977085981073">60°
  </text>
  <polyline points="329.83333357702696,175.45924552510817 329.84198867592687,174.9358289223342 329.91062596042076,173.8912452849809 330.04742400456263,172.85338578226995 330.25179721330306,171.82669320715425 330.52287072077735,170.81556255002127 330.85948413536636,169.82432218493935 331.2601965070165,168.85721534107145 331.7232924955518,167.91838193857077 332.2467897135787,167.01184086671222 332.8284472125445,166.14147278012754 333.46577507562444,165.3110034867814 334.15604507637573,164.5239879988067 334.8963023575291,163.78379531446856 335.6833780799282,163.09359399640337 336.5139029874602,162.45633860786805 337.38432182992375,161.87475706506078 337.8333333333333,161.6056315913461 " stroke="white" stroke-width="1.25" fill="none"/>
  <text dy="4" font-size="16" font-style="italic" stroke="none" fill="white" font-family="CMU Serif" x="319.85388031566475" text-anchor="middle" y="160.45977085981073">60°
  </text>
  <text dy="4" font-size="16" font-style="italic" stroke="none" fill="white" font-family="CMU Serif" x="319.85388031566475" text-anchor="middle" y="160.45977085981073">60°
  </text>
</svg>