<?xml version="1.0" encoding="UTF-8"?>
<!DOCTYPE svg PUBLIC "-//W3C//DTD SVG 1.1//EN"
    "http://www.w3.org/Graphics/SVG/1.1/DTD/svg11.dtd">
<svg xmlns="http://www.w3.org/2000/svg" style="background : #444;" height="87.0" width="450.0" xmlns:xlink="http://www.w3.org/1999/xlink" version="1.11.1">
  <polyline points="205,63 225,63 244.99999969538237,62.99650934151376 " stroke="white" stroke-width="1.25" fill="none"/>
  <text dy="4" font-size="16" font-style="italic" stroke="none" fill="white" font-family="CMU Serif" x="224.9973820061254" text-anchor="middle" y="33.00000011423161">180°
  </text>
  <polyline points="209,63 209.00481836546896,62.60736215367865 209.04334787848484,61.823032254922964 209.12031409385645,61.04153745958081 209.23553161382642,60.26476024792521 209.38872290013114,59.49457173641929 209.57951894254074,58.7328271705336 209.8074601477365,57.981361455793945 210.07199744639138,57.241984737824055 210.3724936157755,56.51647804203071 210.70822481471396,55.806588983434494 211.07838232718905,55.114027556979295 211.48207451039116,54.440462018462654 211.91832894252502,53.787514866007996 212.3860947652015,53.15675893175819 212.88424521476327,52.54971359320666 213.4115803364566,51.96784111329055 213.96682987490794,51.41254311806176 214.54865633393774,50.88515722042314 215.15565819835047,50.38695379805915 215.7863733099298,49.91913293332482 216.4392823895173,49.48282152246361 217.11281269668052,49.07907056111719 217.8053418181621,48.70885261266574 218.51520157598088,48.37305946549861 219.24068204577407,48.07249998485577 219.98003567569458,47.80789816441779 220.73148149595,47.57989138233506 221.49320940883945,47.38902886589858 222.2633845489513,47.23577036855022 223.04015170302364,47.12048506241956 223.82163977882055,47.04345064905499 224.60596631225553,47.00485269049011 225.39124200190827,47.00478416225826 226.17557526001156,47.04324522943193 226.95707676894745,47.12014324622396 227.7338640322705,47.2352929791557 228.5040659093056,47.388417053250464 229.26582712238633,47.57914662017981 230.01731272588722,47.80702224675326 230.75671252627626,48.07149502160996 231.4822454425448,48.37192787744709 232.19216379651198,48.7075971256005 232.88475752266686,49.07769419928036 233.55835828740737,49.481327601263274 234.21134350775674,49.91752505134809 234.84214025987376,50.385235828404234 235.4492290679409,50.8833333013697 236.03114756431205,51.410617643102455 236.5864940120896,51.96581872054787 237.11393068165717,52.54759915426075 237.61218707302942,53.15455753991171 238.0800629762589,53.785231824017615 238.5164313625246,54.438102825765554 238.920241098941,55.111597896445915 239.2905194805494,55.804094707679724 239.6263745733877,56.51392515931582 239.92699736300028,57.239379397583775 240.19166370320636,57.97870993382401 240.4197360604394,58.730135853873094 240.61066504944984,59.491847107965555 240.7639907566745,60.26200887081757 240.87934384808796,61.038765961391505 240.95644645885886,61.82024731169213 240.99511286267898,62.60457047383329 240.9999997563059,62.997207473211006 " stroke="white" stroke-width="1.25" fill="none"/>
  <text dy="4" font-size="16" font-style="italic" stroke="none" fill="white" font-family="CMU Serif" x="224.9973820061254" text-anchor="middle" y="33.00000011423161">180°
  </text>
  <text dy="4" font-size="16" font-style="italic" stroke="none" fill="white" font-family="CMU Serif" x="224.9973820061254" text-anchor="middle" y="33.00000011423161">180°
  </text>
  <circle stroke="#444" stroke-width="1" fill="red" cy="63" r="3" cx="225"/>
  <line x2="405" y1="63" stroke="orange" stroke-width="2" fill="none" y2="63" x1="225"/>
  <line x2="45" y1="63" stroke="orange" stroke-width="2" fill="none" y2="62.99999999999998" x1="225"/>
</svg>