<?xml version="1.0" encoding="UTF-8"?>
<!DOCTYPE svg PUBLIC "-//W3C//DTD SVG 1.1//EN"
    "http://www.w3.org/Graphics/SVG/1.1/DTD/svg11.dtd">
<svg xmlns="http://www.w3.org/2000/svg" style="background : #444;" height="276.0" width="450.0" xmlns:xlink="http://www.w3.org/1999/xlink" version="1.11.1">
  <polyline points="225,205 225,225 244.99999969538237,224.99650934151362 " stroke="white" stroke-width="1.25" fill="none"/>
  <text dy="4" font-size="16" font-style="italic" stroke="none" fill="white" font-family="CMU Serif" x="246.21135215360084" text-anchor="middle" y="203.78494544395522">90°
  </text>
  <polyline points="225,209 225.39261603627529,209.00481783010719 226.17690247253995,209.043343064096 226.95835427755992,209.1203007420304 227.73508928373576,209.2355055073117 228.5052366841237,209.38867988323 229.26694153837434,209.57945494127716 230.018369240453,209.80737118973548 230.75770993738342,210.07187968038306 231.4831828883748,210.3723433306668 232.19304075382888,210.70803845814862 232.88557380389875,211.07815652353247 233.55911403646223,211.48180607807262 234.21203919459322,211.9180149106769 234.8427766738523,212.3857323895254 235.44980730998577,212.88383199257441 236.03166903791453,213.41111402084198 236.58696041319172,213.96630848794803 237.1143439874577,214.5480781789397 237.61254952975196,215.15502187104767 238.08037708593338,215.78567770860036 238.51669986883098,216.4385267239836 238.92046697216983,217.11199649615128 239.29070590173478,217.80446493788486 239.62652491767267,218.51426420267535 239.9271151822959,219.23968470181762 240.1917527082087,219.97897922204675 240.41980010206953,220.73036713379133 240.6107080997872,221.49203867991173 240.76401688944998,222.26215933459798 240.87935721880922,223.03887422191883 240.95645128464002,223.82031258338793 240.99511340184745,224.60459228378522 240.9999997563059,224.9972074732109 " stroke="white" stroke-width="1.25" fill="none"/>
  <text dy="4" font-size="16" font-style="italic" stroke="none" fill="white" font-family="CMU Serif" x="246.21135215360084" text-anchor="middle" y="203.78494544395522">90°
  </text>
  <text dy="4" font-size="16" font-style="italic" stroke="none" fill="white" font-family="CMU Serif" x="246.21135215360084" text-anchor="middle" y="203.78494544395522">90°
  </text>
  <circle stroke="#444" stroke-width="1" fill="red" cy="225" r="3" cx="225"/>
  <line x2="405" y1="225" stroke="orange" stroke-width="2" fill="none" y2="225" x1="225"/>
  <line x2="45" y1="225" stroke="orange" stroke-width="2" fill="none" y2="224.99999999999997" x1="225"/>
  <line x2="225" y1="225" stroke="orange" stroke-width="2" fill="none" y2="45" x1="225"/>
</svg>